M48
;DRILL file {KiCad (5.0.1)-3} date 3/03/2019 22:41:36
;FORMAT={-:-/ absolute / inch / decimal}
FMAT,2
INCH,TZ
T1C0.0276
T2C0.0430
T3C0.0579
T4C0.0984
%
G90
G05
M72
T1
X11.4881Y-5.4388
X11.4881Y-5.7459
X9.0506Y-5.4388
X9.0506Y-5.7459
X12.2381Y-5.4388
X12.2381Y-5.7459
X9.0506Y-3.9388
X9.0506Y-4.2459
X4.5506Y-4.6888
X4.5506Y-4.9959
X3.8006Y-3.1888
X3.8006Y-3.4959
X8.3006Y-3.1888
X8.3006Y-3.4959
X6.0506Y-3.1888
X6.0506Y-3.4959
X9.0506Y-4.6888
X9.0506Y-4.9959
X14.1365Y-4.6888
X14.1365Y-4.9959
X3.0506Y-3.1888
X3.0506Y-3.4959
X8.8631Y-6.1888
X8.8631Y-6.4959
X4.5506Y-5.4388
X4.5506Y-5.7459
X8.3006Y-5.4388
X8.3006Y-5.7459
X5.3006Y-3.9388
X5.3006Y-4.2459
X3.8006Y-4.6888
X3.8006Y-4.9959
X6.8006Y-3.1888
X6.8006Y-3.4959
X3.8006Y-3.9388
X3.8006Y-4.2459
X7.5506Y-4.6888
X7.5506Y-4.9959
X4.2693Y-6.1888
X4.2693Y-6.4959
X9.8006Y-4.6888
X9.8006Y-4.9959
X3.8006Y-5.4388
X3.8006Y-5.7459
X12.2381Y-3.9388
X12.2381Y-4.2459
X7.5506Y-3.9388
X7.5506Y-4.2459
X11.3006Y-3.9388
X11.3006Y-4.2459
X12.2381Y-3.1888
X12.2381Y-3.4959
X4.5506Y-3.9388
X4.5506Y-4.2459
X10.5506Y-4.6888
X10.5506Y-4.9959
X5.3006Y-5.4388
X5.3006Y-5.7459
X4.0818Y-6.1888
X4.0818Y-6.4959
X6.0506Y-3.9388
X6.0506Y-4.2459
X9.8006Y-3.9388
X9.8006Y-4.2459
X8.3006Y-3.9388
X8.3006Y-4.2459
X9.0506Y-3.1888
X9.0506Y-3.4959
X3.0506Y-3.9388
X3.0506Y-4.2459
X8.3006Y-4.6888
X8.3006Y-4.9959
X2.3006Y-3.1888
X2.3006Y-3.4959
X7.8318Y-6.1888
X7.8318Y-6.4959
X3.0506Y-5.4388
X3.0506Y-5.7459
X9.8006Y-5.4388
X9.8006Y-5.7459
X6.8006Y-5.4388
X6.8006Y-5.7459
X3.0506Y-4.6888
X3.0506Y-4.9959
X5.3006Y-4.6888
X5.3006Y-4.9959
X6.8006Y-3.9388
X6.8006Y-4.2459
X5.3006Y-3.1888
X5.3006Y-3.4959
X10.5506Y-3.1888
X10.5506Y-3.4959
X12.449Y-3.1888
X12.449Y-3.4959
X12.9881Y-4.6888
X12.9881Y-4.9959
X6.0506Y-6.1888
X6.0506Y-6.4959
X14.1365Y-5.4388
X14.1365Y-5.7459
X2.3006Y-5.4388
X2.3006Y-5.7459
X14.1365Y-3.9154
X14.1365Y-4.2224
X12.449Y-3.9388
X12.449Y-4.2459
X2.3006Y-4.6888
X2.3006Y-4.9959
X9.8006Y-3.1888
X9.8006Y-3.4959
X11.3006Y-3.1888
X11.3006Y-3.4959
X2.3006Y-3.9388
X2.3006Y-4.2459
X12.2381Y-4.6888
X12.2381Y-4.9959
X6.0506Y-5.4388
X6.0506Y-5.7459
X7.5506Y-5.4388
X7.5506Y-5.7459
X12.9881Y-5.4388
X12.9881Y-5.7459
X6.0506Y-4.6888
X6.0506Y-4.9959
X10.5506Y-3.9388
X10.5506Y-4.2459
X4.5506Y-3.1888
X4.5506Y-3.4959
X7.5506Y-3.1888
X7.5506Y-3.4959
X14.1365Y-3.1888
X14.1365Y-3.4959
X6.8006Y-4.6888
X6.8006Y-4.9959
T2
X13.2506Y-2.9928
X13.2506Y-3.0928
X13.2506Y-3.1928
X13.2506Y-3.2928
X13.2506Y-3.3928
X13.2506Y-3.4928
X13.2506Y-3.5928
X13.2506Y-3.6928
X13.2506Y-3.7928
X13.2506Y-3.8928
X13.2506Y-3.9928
X13.2506Y-4.0928
X13.8506Y-2.9928
X13.8506Y-3.0928
X13.8506Y-3.1928
X13.8506Y-3.2928
X13.8506Y-3.3928
X13.8506Y-3.4928
X13.8506Y-3.5928
X13.8506Y-3.6928
X13.8506Y-3.7928
X13.8506Y-3.8928
X13.8506Y-3.9928
X13.8506Y-4.0928
T3
X1.3068Y-4.7084
X1.5568Y-4.6084
X2.5256Y-4.7084
X2.7756Y-4.6084
X8.5256Y-3.9584
X8.7756Y-3.8584
X10.7756Y-3.9584
X11.0256Y-3.8584
X2.5256Y-3.2084
X2.7756Y-3.1084
X3.2756Y-3.2084
X3.5256Y-3.1084
X14.4084Y-4.7084
X14.6584Y-4.6084
X14.4084Y-3.9584
X14.6584Y-3.8584
X5.5256Y-3.2084
X5.7756Y-3.1084
X12.6506Y-3.2084
X12.9006Y-3.1084
X4.7756Y-3.9584
X5.0256Y-3.8584
X10.7756Y-3.2084
X11.0256Y-3.1084
X10.0256Y-3.9584
X10.2756Y-3.8584
X7.0256Y-5.4584
X7.2756Y-5.3584
X7.7756Y-4.7084
X8.0256Y-4.6084
X6.2756Y-5.4584
X6.5256Y-5.3584
X3.4631Y-6.2084
X3.7131Y-6.1084
X10.0256Y-4.7084
X10.2756Y-4.6084
X11.7131Y-3.2084
X11.9631Y-3.1084
X4.7756Y-3.2084
X5.0256Y-3.1084
X7.7756Y-3.2084
X8.0256Y-3.1084
X1.4943Y-4.7084
X1.7443Y-4.6084
X4.0256Y-3.9584
X4.2756Y-3.8584
X4.0256Y-3.2084
X4.2756Y-3.1084
X9.2756Y-3.9584
X9.5256Y-3.8584
X5.5256Y-5.4584
X5.7756Y-5.3584
X4.0256Y-4.7084
X4.2756Y-4.6084
X6.2756Y-4.7084
X6.5256Y-4.6084
X4.7756Y-5.4584
X5.0256Y-5.3584
X3.2756Y-5.4584
X3.5256Y-5.3584
X1.5881Y-3.9584
X1.8381Y-3.8584
X6.2756Y-3.2084
X6.5256Y-3.1084
X8.5256Y-3.2084
X8.7756Y-3.1084
X3.2756Y-3.9584
X3.5256Y-3.8584
X5.0568Y-6.2084
X5.3068Y-6.1084
X6.2756Y-3.9584
X6.5256Y-3.8584
X11.7131Y-5.4584
X11.9631Y-5.3584
X4.7756Y-4.7084
X5.0256Y-4.6084
X8.5256Y-5.4584
X8.7756Y-5.3584
X6.2756Y-6.2084
X6.5256Y-6.1084
X12.4631Y-4.7084
X12.7131Y-4.6084
X8.2443Y-6.2084
X8.4943Y-6.1084
X2.5256Y-3.9584
X2.7756Y-3.8584
X9.2756Y-5.4584
X9.5256Y-5.3584
X3.2756Y-4.7084
X3.5256Y-4.6084
X12.4631Y-5.4584
X12.7131Y-5.3584
X8.5256Y-4.7084
X8.7756Y-4.6084
X7.0256Y-4.7084
X7.2756Y-4.6084
X11.7131Y-3.9584
X11.9631Y-3.8584
X2.5256Y-5.4584
X2.7756Y-5.3584
X12.6506Y-3.9584
X12.9006Y-3.8584
X14.4084Y-3.2084
X14.6584Y-3.1084
X10.0256Y-3.2084
X10.2756Y-3.1084
X7.7756Y-3.9584
X8.0256Y-3.8584
X5.5256Y-4.7084
X5.7756Y-4.6084
X7.7756Y-5.4584
X8.0256Y-5.3584
X1.4943Y-5.4584
X1.7443Y-5.3584
X4.0256Y-5.4584
X4.2756Y-5.3584
X9.1818Y-6.2084
X9.4318Y-6.1084
X7.0256Y-3.2084
X7.2756Y-3.1084
X9.0881Y-6.2084
X9.3381Y-6.1084
X9.2756Y-3.2084
X9.5256Y-3.1084
X10.4943Y-5.4584
X10.7443Y-5.3584
X11.2443Y-4.7084
X11.4943Y-4.6084
X5.5256Y-3.9584
X5.7756Y-3.8584
X9.2756Y-4.7084
X9.5256Y-4.6084
X7.0256Y-3.9584
X7.2756Y-3.8584
X1.5881Y-3.2084
X1.8381Y-3.1084
X6.9318Y-6.2084
X7.1818Y-6.1084
X14.4084Y-5.4584
X14.6584Y-5.3584
T4
X10.4531Y-2.5584G85X10.5358Y-2.5584
G05
X6.4689Y-2.5584G85X6.5516Y-2.5584
G05
X7.1884Y-7.0141G85X7.271Y-7.0141
G05
X2.2169Y-2.5584G85X2.2996Y-2.5584
G05
X14.6746Y-7.0141G85X14.7573Y-7.0141
G05
X9.6805Y-7.0141G85X9.7632Y-7.0141
G05
X14.7051Y-2.5584G85X14.7878Y-2.5584
G05
X2.1943Y-7.0141G85X2.2769Y-7.0141
G05
T0
M30
