M48
;DRILL file {KiCad (5.0.1)-3} date 3/03/2019 22:41:36
;FORMAT={-:-/ absolute / inch / decimal}
FMAT,2
INCH,TZ
T1C0.0689
T2C0.1200
T3C0.1570
%
G90
G05
M72
T1
X1.2568Y-4.8084
X1.6568Y-4.8084
X2.4756Y-4.8084
X2.8756Y-4.8084
X8.4756Y-4.0584
X8.8756Y-4.0584
X10.7256Y-4.0584
X11.1256Y-4.0584
X2.4756Y-3.3084
X2.8756Y-3.3084
X3.2256Y-3.3084
X3.6256Y-3.3084
X14.3584Y-4.8084
X14.7584Y-4.8084
X14.3584Y-4.0584
X14.7584Y-4.0584
X5.4756Y-3.3084
X5.8756Y-3.3084
X12.6006Y-3.3084
X13.0006Y-3.3084
X4.7256Y-4.0584
X5.1256Y-4.0584
X10.7256Y-3.3084
X11.1256Y-3.3084
X9.9756Y-4.0584
X10.3756Y-4.0584
X6.9756Y-5.5584
X7.3756Y-5.5584
X7.7256Y-4.8084
X8.1256Y-4.8084
X6.2256Y-5.5584
X6.6256Y-5.5584
X3.4131Y-6.3084
X3.8131Y-6.3084
X9.9756Y-4.8084
X10.3756Y-4.8084
X11.6631Y-3.3084
X12.0631Y-3.3084
X4.7256Y-3.3084
X5.1256Y-3.3084
X7.7256Y-3.3084
X8.1256Y-3.3084
X1.4443Y-4.8084
X1.8443Y-4.8084
X3.9756Y-4.0584
X4.3756Y-4.0584
X3.9756Y-3.3084
X4.3756Y-3.3084
X9.2256Y-4.0584
X9.6256Y-4.0584
X5.4756Y-5.5584
X5.8756Y-5.5584
X3.9756Y-4.8084
X4.3756Y-4.8084
X6.2256Y-4.8084
X6.6256Y-4.8084
X4.7256Y-5.5584
X5.1256Y-5.5584
X3.2256Y-5.5584
X3.6256Y-5.5584
X1.5381Y-4.0584
X1.9381Y-4.0584
X6.2256Y-3.3084
X6.6256Y-3.3084
X8.4756Y-3.3084
X8.8756Y-3.3084
X3.2256Y-4.0584
X3.6256Y-4.0584
X5.0068Y-6.3084
X5.4068Y-6.3084
X6.2256Y-4.0584
X6.6256Y-4.0584
X11.6631Y-5.5584
X12.0631Y-5.5584
X4.7256Y-4.8084
X5.1256Y-4.8084
X8.4756Y-5.5584
X8.8756Y-5.5584
X6.2256Y-6.3084
X6.6256Y-6.3084
X12.4131Y-4.8084
X12.8131Y-4.8084
X8.1943Y-6.3084
X8.5943Y-6.3084
X2.4756Y-4.0584
X2.8756Y-4.0584
X9.2256Y-5.5584
X9.6256Y-5.5584
X3.2256Y-4.8084
X3.6256Y-4.8084
X12.4131Y-5.5584
X12.8131Y-5.5584
X8.4756Y-4.8084
X8.8756Y-4.8084
X6.9756Y-4.8084
X7.3756Y-4.8084
X11.6631Y-4.0584
X12.0631Y-4.0584
X2.4756Y-5.5584
X2.8756Y-5.5584
X12.6006Y-4.0584
X13.0006Y-4.0584
X14.3584Y-3.3084
X14.7584Y-3.3084
X9.9756Y-3.3084
X10.3756Y-3.3084
X7.7256Y-4.0584
X8.1256Y-4.0584
X5.4756Y-4.8084
X5.8756Y-4.8084
X7.7256Y-5.5584
X8.1256Y-5.5584
X1.4443Y-5.5584
X1.8443Y-5.5584
X3.9756Y-5.5584
X4.3756Y-5.5584
X9.1318Y-6.3084
X9.5318Y-6.3084
X6.9756Y-3.3084
X7.3756Y-3.3084
X9.0381Y-6.3084
X9.4381Y-6.3084
X9.2256Y-3.3084
X9.6256Y-3.3084
X10.4443Y-5.5584
X10.8443Y-5.5584
X11.1943Y-4.8084
X11.5943Y-4.8084
X5.4756Y-4.0584
X5.8756Y-4.0584
X9.2256Y-4.8084
X9.6256Y-4.8084
X6.9756Y-4.0584
X7.3756Y-4.0584
X1.5381Y-3.3084
X1.9381Y-3.3084
X6.8818Y-6.3084
X7.2818Y-6.3084
X14.3584Y-5.5584
X14.7584Y-5.5584
T2
X4.7381Y-6.0334
X5.6756Y-6.0334
X4.5506Y-6.0334
X8.3006Y-6.0334
X10.1756Y-5.2834
X11.1131Y-5.2834
X10.9256Y-4.5334
X11.8631Y-4.5334
X6.6131Y-6.0334
X7.5506Y-6.0334
T3
X14.5584Y-5.5584
X1.4568Y-4.8084
X2.6756Y-4.8084
X8.6756Y-4.0584
X10.9256Y-4.0584
X2.6756Y-3.3084
X3.4256Y-3.3084
X14.5584Y-4.8084
X14.5584Y-4.0584
X5.6756Y-3.3084
X12.8006Y-3.3084
X4.9256Y-4.0584
X10.9256Y-3.3084
X10.1756Y-4.0584
X7.1756Y-5.5584
X7.9256Y-4.8084
X6.4256Y-5.5584
X3.6131Y-6.3084
X10.1756Y-4.8084
X11.8631Y-3.3084
X4.9256Y-3.3084
X7.9256Y-3.3084
X1.6443Y-4.8084
X4.1756Y-4.0584
X4.1756Y-3.3084
X9.4256Y-4.0584
X5.6756Y-5.5584
X4.1756Y-4.8084
X6.4256Y-4.8084
X4.9256Y-5.5584
X3.4256Y-5.5584
X1.7381Y-4.0584
X6.4256Y-3.3084
X8.6756Y-3.3084
X3.4256Y-4.0584
X4.7381Y-6.6334
X5.2068Y-6.3084
X5.6756Y-6.6334
X6.4256Y-4.0584
X11.8631Y-5.5584
X4.9256Y-4.8084
X8.6756Y-5.5584
X4.5506Y-6.6334
X6.4256Y-6.3084
X8.3006Y-6.6334
X12.6131Y-4.8084
X8.3943Y-6.3084
X2.6756Y-4.0584
X9.4256Y-5.5584
X3.4256Y-4.8084
X12.6131Y-5.5584
X8.6756Y-4.8084
X7.1756Y-4.8084
X11.8631Y-4.0584
X2.6756Y-5.5584
X12.8006Y-4.0584
X14.5584Y-3.3084
X10.1756Y-3.3084
X7.9256Y-4.0584
X5.6756Y-4.8084
X7.9256Y-5.5584
X1.6443Y-5.5584
X4.1756Y-5.5584
X9.3318Y-6.3084
X7.1756Y-3.3084
X9.2381Y-6.3084
X9.4256Y-3.3084
X10.1756Y-5.8834
X10.6443Y-5.5584
X11.1131Y-5.8834
X10.9256Y-5.1334
X11.3943Y-4.8084
X11.8631Y-5.1334
X5.6756Y-4.0584
X9.4256Y-4.8084
X7.1756Y-4.0584
X1.7381Y-3.3084
X6.6131Y-6.6334
X7.0818Y-6.3084
X7.5506Y-6.6334
T0
M30
