G04 #@! TF.GenerationSoftware,KiCad,Pcbnew,(5.0.1)-3*
G04 #@! TF.CreationDate,2019-03-15T23:25:09+01:00*
G04 #@! TF.ProjectId,OC64,4F4336342E6B696361645F7063620000,rev?*
G04 #@! TF.SameCoordinates,Original*
G04 #@! TF.FileFunction,Legend,Bot*
G04 #@! TF.FilePolarity,Positive*
%FSLAX46Y46*%
G04 Gerber Fmt 4.6, Leading zero omitted, Abs format (unit mm)*
G04 Created by KiCad (PCBNEW (5.0.1)-3) date 15/03/2019 23:25:09*
%MOMM*%
%LPD*%
G01*
G04 APERTURE LIST*
%ADD10C,0.300000*%
%ADD11C,0.200000*%
%ADD12C,0.120000*%
%ADD13C,0.150000*%
%ADD14C,0.381000*%
G04 APERTURE END LIST*
D10*
X342000000Y-164678571D02*
X342285714Y-164678571D01*
X342428571Y-164750000D01*
X342500000Y-164821428D01*
X342642857Y-165035714D01*
X342714285Y-165321428D01*
X342714285Y-165892857D01*
X342642857Y-166035714D01*
X342571428Y-166107142D01*
X342428571Y-166178571D01*
X342142857Y-166178571D01*
X342000000Y-166107142D01*
X341928571Y-166035714D01*
X341857142Y-165892857D01*
X341857142Y-165535714D01*
X341928571Y-165392857D01*
X342000000Y-165321428D01*
X342142857Y-165250000D01*
X342428571Y-165250000D01*
X342571428Y-165321428D01*
X342642857Y-165392857D01*
X342714285Y-165535714D01*
X340571428Y-165178571D02*
X340571428Y-166178571D01*
X340928571Y-164607142D02*
X341285714Y-165678571D01*
X340357142Y-165678571D01*
X339785714Y-166178571D02*
X339785714Y-164678571D01*
X338928571Y-166178571D02*
X339571428Y-165321428D01*
X338928571Y-164678571D02*
X339785714Y-165535714D01*
X336285714Y-166178571D02*
X336785714Y-165464285D01*
X337142857Y-166178571D02*
X337142857Y-164678571D01*
X336571428Y-164678571D01*
X336428571Y-164750000D01*
X336357142Y-164821428D01*
X336285714Y-164964285D01*
X336285714Y-165178571D01*
X336357142Y-165321428D01*
X336428571Y-165392857D01*
X336571428Y-165464285D01*
X337142857Y-165464285D01*
X335714285Y-165750000D02*
X335000000Y-165750000D01*
X335857142Y-166178571D02*
X335357142Y-164678571D01*
X334857142Y-166178571D01*
X334357142Y-166178571D02*
X334357142Y-164678571D01*
X333857142Y-165750000D01*
X333357142Y-164678571D01*
X333357142Y-166178571D01*
X331571428Y-166107142D02*
X331357142Y-166178571D01*
X331000000Y-166178571D01*
X330857142Y-166107142D01*
X330785714Y-166035714D01*
X330714285Y-165892857D01*
X330714285Y-165750000D01*
X330785714Y-165607142D01*
X330857142Y-165535714D01*
X331000000Y-165464285D01*
X331285714Y-165392857D01*
X331428571Y-165321428D01*
X331500000Y-165250000D01*
X331571428Y-165107142D01*
X331571428Y-164964285D01*
X331500000Y-164821428D01*
X331428571Y-164750000D01*
X331285714Y-164678571D01*
X330928571Y-164678571D01*
X330714285Y-164750000D01*
X329785714Y-165464285D02*
X329785714Y-166178571D01*
X330285714Y-164678571D02*
X329785714Y-165464285D01*
X329285714Y-164678571D01*
X328857142Y-166107142D02*
X328642857Y-166178571D01*
X328285714Y-166178571D01*
X328142857Y-166107142D01*
X328071428Y-166035714D01*
X328000000Y-165892857D01*
X328000000Y-165750000D01*
X328071428Y-165607142D01*
X328142857Y-165535714D01*
X328285714Y-165464285D01*
X328571428Y-165392857D01*
X328714285Y-165321428D01*
X328785714Y-165250000D01*
X328857142Y-165107142D01*
X328857142Y-164964285D01*
X328785714Y-164821428D01*
X328714285Y-164750000D01*
X328571428Y-164678571D01*
X328214285Y-164678571D01*
X328000000Y-164750000D01*
X327571428Y-164678571D02*
X326714285Y-164678571D01*
X327142857Y-166178571D02*
X327142857Y-164678571D01*
X326214285Y-165392857D02*
X325714285Y-165392857D01*
X325500000Y-166178571D02*
X326214285Y-166178571D01*
X326214285Y-164678571D01*
X325500000Y-164678571D01*
X324857142Y-166178571D02*
X324857142Y-164678571D01*
X324357142Y-165750000D01*
X323857142Y-164678571D01*
X323857142Y-166178571D01*
X321000000Y-164678571D02*
X320071428Y-164678571D01*
X320571428Y-165250000D01*
X320357142Y-165250000D01*
X320214285Y-165321428D01*
X320142857Y-165392857D01*
X320071428Y-165535714D01*
X320071428Y-165892857D01*
X320142857Y-166035714D01*
X320214285Y-166107142D01*
X320357142Y-166178571D01*
X320785714Y-166178571D01*
X320928571Y-166107142D01*
X321000000Y-166035714D01*
X319214285Y-165321428D02*
X319357142Y-165250000D01*
X319428571Y-165178571D01*
X319500000Y-165035714D01*
X319500000Y-164964285D01*
X319428571Y-164821428D01*
X319357142Y-164750000D01*
X319214285Y-164678571D01*
X318928571Y-164678571D01*
X318785714Y-164750000D01*
X318714285Y-164821428D01*
X318642857Y-164964285D01*
X318642857Y-165035714D01*
X318714285Y-165178571D01*
X318785714Y-165250000D01*
X318928571Y-165321428D01*
X319214285Y-165321428D01*
X319357142Y-165392857D01*
X319428571Y-165464285D01*
X319500000Y-165607142D01*
X319500000Y-165892857D01*
X319428571Y-166035714D01*
X319357142Y-166107142D01*
X319214285Y-166178571D01*
X318928571Y-166178571D01*
X318785714Y-166107142D01*
X318714285Y-166035714D01*
X318642857Y-165892857D01*
X318642857Y-165607142D01*
X318714285Y-165464285D01*
X318785714Y-165392857D01*
X318928571Y-165321428D01*
X317928571Y-166178571D02*
X317642857Y-166178571D01*
X317500000Y-166107142D01*
X317428571Y-166035714D01*
X317285714Y-165821428D01*
X317214285Y-165535714D01*
X317214285Y-164964285D01*
X317285714Y-164821428D01*
X317357142Y-164750000D01*
X317500000Y-164678571D01*
X317785714Y-164678571D01*
X317928571Y-164750000D01*
X318000000Y-164821428D01*
X318071428Y-164964285D01*
X318071428Y-165321428D01*
X318000000Y-165464285D01*
X317928571Y-165535714D01*
X317785714Y-165607142D01*
X317500000Y-165607142D01*
X317357142Y-165535714D01*
X317285714Y-165464285D01*
X317214285Y-165321428D01*
X315785714Y-166178571D02*
X316642857Y-166178571D01*
X316214285Y-166178571D02*
X316214285Y-164678571D01*
X316357142Y-164892857D01*
X316500000Y-165035714D01*
X316642857Y-165107142D01*
X314357142Y-166178571D02*
X315214285Y-166178571D01*
X314785714Y-166178571D02*
X314785714Y-164678571D01*
X314928571Y-164892857D01*
X315071428Y-165035714D01*
X315214285Y-165107142D01*
X312071428Y-165392857D02*
X311857142Y-165464285D01*
X311785714Y-165535714D01*
X311714285Y-165678571D01*
X311714285Y-165892857D01*
X311785714Y-166035714D01*
X311857142Y-166107142D01*
X312000000Y-166178571D01*
X312571428Y-166178571D01*
X312571428Y-164678571D01*
X312071428Y-164678571D01*
X311928571Y-164750000D01*
X311857142Y-164821428D01*
X311785714Y-164964285D01*
X311785714Y-165107142D01*
X311857142Y-165250000D01*
X311928571Y-165321428D01*
X312071428Y-165392857D01*
X312571428Y-165392857D01*
X311142857Y-165750000D02*
X310428571Y-165750000D01*
X311285714Y-166178571D02*
X310785714Y-164678571D01*
X310285714Y-166178571D01*
X309857142Y-166107142D02*
X309642857Y-166178571D01*
X309285714Y-166178571D01*
X309142857Y-166107142D01*
X309071428Y-166035714D01*
X309000000Y-165892857D01*
X309000000Y-165750000D01*
X309071428Y-165607142D01*
X309142857Y-165535714D01*
X309285714Y-165464285D01*
X309571428Y-165392857D01*
X309714285Y-165321428D01*
X309785714Y-165250000D01*
X309857142Y-165107142D01*
X309857142Y-164964285D01*
X309785714Y-164821428D01*
X309714285Y-164750000D01*
X309571428Y-164678571D01*
X309214285Y-164678571D01*
X309000000Y-164750000D01*
X308357142Y-166178571D02*
X308357142Y-164678571D01*
X306785714Y-166035714D02*
X306857142Y-166107142D01*
X307071428Y-166178571D01*
X307214285Y-166178571D01*
X307428571Y-166107142D01*
X307571428Y-165964285D01*
X307642857Y-165821428D01*
X307714285Y-165535714D01*
X307714285Y-165321428D01*
X307642857Y-165035714D01*
X307571428Y-164892857D01*
X307428571Y-164750000D01*
X307214285Y-164678571D01*
X307071428Y-164678571D01*
X306857142Y-164750000D01*
X306785714Y-164821428D01*
X304500000Y-165392857D02*
X304285714Y-165464285D01*
X304214285Y-165535714D01*
X304142857Y-165678571D01*
X304142857Y-165892857D01*
X304214285Y-166035714D01*
X304285714Y-166107142D01*
X304428571Y-166178571D01*
X305000000Y-166178571D01*
X305000000Y-164678571D01*
X304500000Y-164678571D01*
X304357142Y-164750000D01*
X304285714Y-164821428D01*
X304214285Y-164964285D01*
X304214285Y-165107142D01*
X304285714Y-165250000D01*
X304357142Y-165321428D01*
X304500000Y-165392857D01*
X305000000Y-165392857D01*
X303214285Y-165464285D02*
X303214285Y-166178571D01*
X303714285Y-164678571D02*
X303214285Y-165464285D01*
X302714285Y-164678571D01*
X302428571Y-164678571D02*
X301571428Y-164678571D01*
X302000000Y-166178571D02*
X302000000Y-164678571D01*
X301071428Y-165392857D02*
X300571428Y-165392857D01*
X300357142Y-166178571D02*
X301071428Y-166178571D01*
X301071428Y-164678571D01*
X300357142Y-164678571D01*
X299785714Y-166107142D02*
X299571428Y-166178571D01*
X299214285Y-166178571D01*
X299071428Y-166107142D01*
X299000000Y-166035714D01*
X298928571Y-165892857D01*
X298928571Y-165750000D01*
X299000000Y-165607142D01*
X299071428Y-165535714D01*
X299214285Y-165464285D01*
X299500000Y-165392857D01*
X299642857Y-165321428D01*
X299714285Y-165250000D01*
X299785714Y-165107142D01*
X299785714Y-164964285D01*
X299714285Y-164821428D01*
X299642857Y-164750000D01*
X299500000Y-164678571D01*
X299142857Y-164678571D01*
X298928571Y-164750000D01*
X296642857Y-165392857D02*
X297142857Y-165392857D01*
X297142857Y-166178571D02*
X297142857Y-164678571D01*
X296428571Y-164678571D01*
X295000000Y-166178571D02*
X295500000Y-165464285D01*
X295857142Y-166178571D02*
X295857142Y-164678571D01*
X295285714Y-164678571D01*
X295142857Y-164750000D01*
X295071428Y-164821428D01*
X295000000Y-164964285D01*
X295000000Y-165178571D01*
X295071428Y-165321428D01*
X295142857Y-165392857D01*
X295285714Y-165464285D01*
X295857142Y-165464285D01*
X294357142Y-165392857D02*
X293857142Y-165392857D01*
X293642857Y-166178571D02*
X294357142Y-166178571D01*
X294357142Y-164678571D01*
X293642857Y-164678571D01*
X293000000Y-165392857D02*
X292500000Y-165392857D01*
X292285714Y-166178571D02*
X293000000Y-166178571D01*
X293000000Y-164678571D01*
X292285714Y-164678571D01*
X344947857Y-173028571D02*
X344947857Y-171528571D01*
X344233571Y-173028571D02*
X344233571Y-171528571D01*
X343376428Y-173028571D02*
X344019285Y-172171428D01*
X343376428Y-171528571D02*
X344233571Y-172385714D01*
X342733571Y-173028571D02*
X342733571Y-171528571D01*
X341876428Y-173028571D01*
X341876428Y-171528571D01*
X340876428Y-171528571D02*
X340590714Y-171528571D01*
X340447857Y-171600000D01*
X340305000Y-171742857D01*
X340233571Y-172028571D01*
X340233571Y-172528571D01*
X340305000Y-172814285D01*
X340447857Y-172957142D01*
X340590714Y-173028571D01*
X340876428Y-173028571D01*
X341019285Y-172957142D01*
X341162142Y-172814285D01*
X341233571Y-172528571D01*
X341233571Y-172028571D01*
X341162142Y-171742857D01*
X341019285Y-171600000D01*
X340876428Y-171528571D01*
X337019285Y-171528571D02*
X336733571Y-171528571D01*
X336590714Y-171600000D01*
X336447857Y-171742857D01*
X336376428Y-172028571D01*
X336376428Y-172528571D01*
X336447857Y-172814285D01*
X336590714Y-172957142D01*
X336733571Y-173028571D01*
X337019285Y-173028571D01*
X337162142Y-172957142D01*
X337305000Y-172814285D01*
X337376428Y-172528571D01*
X337376428Y-172028571D01*
X337305000Y-171742857D01*
X337162142Y-171600000D01*
X337019285Y-171528571D01*
X334876428Y-172885714D02*
X334947857Y-172957142D01*
X335162142Y-173028571D01*
X335305000Y-173028571D01*
X335519285Y-172957142D01*
X335662142Y-172814285D01*
X335733571Y-172671428D01*
X335805000Y-172385714D01*
X335805000Y-172171428D01*
X335733571Y-171885714D01*
X335662142Y-171742857D01*
X335519285Y-171600000D01*
X335305000Y-171528571D01*
X335162142Y-171528571D01*
X334947857Y-171600000D01*
X334876428Y-171671428D01*
X333590714Y-171528571D02*
X333876428Y-171528571D01*
X334019285Y-171600000D01*
X334090714Y-171671428D01*
X334233571Y-171885714D01*
X334305000Y-172171428D01*
X334305000Y-172742857D01*
X334233571Y-172885714D01*
X334162142Y-172957142D01*
X334019285Y-173028571D01*
X333733571Y-173028571D01*
X333590714Y-172957142D01*
X333519285Y-172885714D01*
X333447857Y-172742857D01*
X333447857Y-172385714D01*
X333519285Y-172242857D01*
X333590714Y-172171428D01*
X333733571Y-172100000D01*
X334019285Y-172100000D01*
X334162142Y-172171428D01*
X334233571Y-172242857D01*
X334305000Y-172385714D01*
X332162142Y-172028571D02*
X332162142Y-173028571D01*
X332519285Y-171457142D02*
X332876428Y-172528571D01*
X331947857Y-172528571D01*
X331376428Y-172885714D02*
X331305000Y-172957142D01*
X331376428Y-173028571D01*
X331447857Y-172957142D01*
X331376428Y-172885714D01*
X331376428Y-173028571D01*
X331376428Y-172100000D02*
X331305000Y-172171428D01*
X331376428Y-172242857D01*
X331447857Y-172171428D01*
X331376428Y-172100000D01*
X331376428Y-172242857D01*
X330876428Y-172457142D02*
X330805000Y-172385714D01*
X330662142Y-172314285D01*
X330376428Y-172457142D01*
X330233571Y-172385714D01*
X330162142Y-172314285D01*
X329662142Y-172957142D02*
X329447857Y-173028571D01*
X329090714Y-173028571D01*
X328947857Y-172957142D01*
X328876428Y-172885714D01*
X328805000Y-172742857D01*
X328805000Y-172600000D01*
X328876428Y-172457142D01*
X328947857Y-172385714D01*
X329090714Y-172314285D01*
X329376428Y-172242857D01*
X329519285Y-172171428D01*
X329590714Y-172100000D01*
X329662142Y-171957142D01*
X329662142Y-171814285D01*
X329590714Y-171671428D01*
X329519285Y-171600000D01*
X329376428Y-171528571D01*
X329019285Y-171528571D01*
X328805000Y-171600000D01*
X329233571Y-171314285D02*
X329233571Y-173242857D01*
D11*
X338421428Y-172002380D02*
X338516666Y-171907142D01*
X338707142Y-171811904D01*
X338897619Y-171811904D01*
X339088095Y-171907142D01*
X339183333Y-172002380D01*
X339278571Y-172192857D01*
X339278571Y-172383333D01*
X339183333Y-172573809D01*
X339088095Y-172669047D01*
X338897619Y-172764285D01*
X338707142Y-172764285D01*
X338516666Y-172669047D01*
X338421428Y-172573809D01*
X338421428Y-171811904D02*
X338421428Y-172573809D01*
X338326190Y-172669047D01*
X338230952Y-172669047D01*
X338040476Y-172573809D01*
X337945238Y-172383333D01*
X337945238Y-171907142D01*
X338135714Y-171621428D01*
X338421428Y-171430952D01*
X338802380Y-171335714D01*
X339183333Y-171430952D01*
X339469047Y-171621428D01*
X339659523Y-171907142D01*
X339754761Y-172288095D01*
X339659523Y-172669047D01*
X339469047Y-172954761D01*
X339183333Y-173145238D01*
X338802380Y-173240476D01*
X338421428Y-173145238D01*
X338135714Y-172954761D01*
D10*
X327857142Y-173004761D02*
X327142857Y-172052380D01*
X327857142Y-172909523D02*
X327142857Y-171957142D01*
X327857142Y-172814285D02*
X327142857Y-171861904D01*
X327857142Y-172719047D02*
X327142857Y-171766666D01*
X327857142Y-172623809D02*
X327142857Y-171671428D01*
X327857142Y-172528571D02*
X327142857Y-171576190D01*
X327857142Y-172433333D02*
X327142857Y-171480952D01*
X327857142Y-172338095D02*
X327214285Y-171480952D01*
X327857142Y-172242857D02*
X327285714Y-171480952D01*
X327857142Y-172147619D02*
X327357142Y-171480952D01*
X327857142Y-172052380D02*
X327428571Y-171480952D01*
X327857142Y-171957142D02*
X327500000Y-171480952D01*
X327857142Y-171861904D02*
X327571428Y-171480952D01*
X327857142Y-171766666D02*
X327642857Y-171480952D01*
X327857142Y-171671428D02*
X327714285Y-171480952D01*
X327857142Y-171576190D02*
X327785714Y-171480952D01*
X327785714Y-173004761D02*
X327142857Y-172147619D01*
X327714285Y-173004761D02*
X327142857Y-172242857D01*
X327642857Y-173004761D02*
X327142857Y-172338095D01*
X327571428Y-173004761D02*
X327142857Y-172433333D01*
X327500000Y-173004761D02*
X327142857Y-172528571D01*
X327428571Y-173004761D02*
X327142857Y-172623809D01*
X327357142Y-173004761D02*
X327142857Y-172719047D01*
X327285714Y-173004761D02*
X327142857Y-172814285D01*
X327214285Y-173004761D02*
X327142857Y-172909523D01*
X327857142Y-173004761D02*
X327857142Y-171480952D01*
X327142857Y-171480952D01*
X327142857Y-173004761D01*
X327857142Y-173004761D01*
X344090714Y-170178571D02*
X344590714Y-169464285D01*
X344947857Y-170178571D02*
X344947857Y-168678571D01*
X344376428Y-168678571D01*
X344233571Y-168750000D01*
X344162142Y-168821428D01*
X344090714Y-168964285D01*
X344090714Y-169178571D01*
X344162142Y-169321428D01*
X344233571Y-169392857D01*
X344376428Y-169464285D01*
X344947857Y-169464285D01*
X343447857Y-169392857D02*
X342947857Y-169392857D01*
X342733571Y-170178571D02*
X343447857Y-170178571D01*
X343447857Y-168678571D01*
X342733571Y-168678571D01*
X342162142Y-169750000D02*
X341447857Y-169750000D01*
X342305000Y-170178571D02*
X341805000Y-168678571D01*
X341305000Y-170178571D01*
X340805000Y-170178571D02*
X340805000Y-168678571D01*
X340447857Y-168678571D01*
X340233571Y-168750000D01*
X340090714Y-168892857D01*
X340019285Y-169035714D01*
X339947857Y-169321428D01*
X339947857Y-169535714D01*
X340019285Y-169821428D01*
X340090714Y-169964285D01*
X340233571Y-170107142D01*
X340447857Y-170178571D01*
X340805000Y-170178571D01*
X339019285Y-169464285D02*
X339019285Y-170178571D01*
X339519285Y-168678571D02*
X339019285Y-169464285D01*
X338519285Y-168678571D01*
X338019285Y-170035714D02*
X337947857Y-170107142D01*
X338019285Y-170178571D01*
X338090714Y-170107142D01*
X338019285Y-170035714D01*
X338019285Y-170178571D01*
X345230400Y-161378571D02*
X345230400Y-161735714D01*
X345587543Y-161592857D02*
X345230400Y-161735714D01*
X344873257Y-161592857D01*
X345444686Y-162021428D02*
X345230400Y-161735714D01*
X345016114Y-162021428D01*
X344087543Y-161378571D02*
X344087543Y-161735714D01*
X344444686Y-161592857D02*
X344087543Y-161735714D01*
X343730400Y-161592857D01*
X344301829Y-162021428D02*
X344087543Y-161735714D01*
X343873257Y-162021428D01*
X342944686Y-161378571D02*
X342944686Y-161735714D01*
X343301829Y-161592857D02*
X342944686Y-161735714D01*
X342587543Y-161592857D01*
X343158971Y-162021428D02*
X342944686Y-161735714D01*
X342730400Y-162021428D01*
X341801829Y-161378571D02*
X341801829Y-161735714D01*
X342158971Y-161592857D02*
X341801829Y-161735714D01*
X341444686Y-161592857D01*
X342016114Y-162021428D02*
X341801829Y-161735714D01*
X341587543Y-162021428D01*
X339444686Y-161378571D02*
X339158971Y-161378571D01*
X339016114Y-161450000D01*
X338873257Y-161592857D01*
X338801829Y-161878571D01*
X338801829Y-162378571D01*
X338873257Y-162664285D01*
X339016114Y-162807142D01*
X339158971Y-162878571D01*
X339444686Y-162878571D01*
X339587543Y-162807142D01*
X339730400Y-162664285D01*
X339801829Y-162378571D01*
X339801829Y-161878571D01*
X339730400Y-161592857D01*
X339587543Y-161450000D01*
X339444686Y-161378571D01*
X337301829Y-162878571D02*
X337801829Y-162164285D01*
X338158971Y-162878571D02*
X338158971Y-161378571D01*
X337587543Y-161378571D01*
X337444686Y-161450000D01*
X337373257Y-161521428D01*
X337301829Y-161664285D01*
X337301829Y-161878571D01*
X337373257Y-162021428D01*
X337444686Y-162092857D01*
X337587543Y-162164285D01*
X338158971Y-162164285D01*
X336873257Y-161378571D02*
X336016114Y-161378571D01*
X336444686Y-162878571D02*
X336444686Y-161378571D01*
X335516114Y-162878571D02*
X335516114Y-161378571D01*
X335516114Y-162092857D02*
X334658971Y-162092857D01*
X334658971Y-162878571D02*
X334658971Y-161378571D01*
X333658971Y-161378571D02*
X333373257Y-161378571D01*
X333230400Y-161450000D01*
X333087543Y-161592857D01*
X333016114Y-161878571D01*
X333016114Y-162378571D01*
X333087543Y-162664285D01*
X333230400Y-162807142D01*
X333373257Y-162878571D01*
X333658971Y-162878571D01*
X333801829Y-162807142D01*
X333944686Y-162664285D01*
X334016114Y-162378571D01*
X334016114Y-161878571D01*
X333944686Y-161592857D01*
X333801829Y-161450000D01*
X333658971Y-161378571D01*
X331658971Y-162878571D02*
X332373257Y-162878571D01*
X332373257Y-161378571D01*
X331158971Y-162878571D02*
X331158971Y-161378571D01*
X330444686Y-162878571D02*
X330444686Y-161378571D01*
X329587543Y-162878571D01*
X329587543Y-161378571D01*
X328873257Y-162092857D02*
X328373257Y-162092857D01*
X328158971Y-162878571D02*
X328873257Y-162878571D01*
X328873257Y-161378571D01*
X328158971Y-161378571D01*
X327587543Y-162450000D02*
X326873257Y-162450000D01*
X327730400Y-162878571D02*
X327230400Y-161378571D01*
X326730400Y-162878571D01*
X325373257Y-162878571D02*
X325873257Y-162164285D01*
X326230400Y-162878571D02*
X326230400Y-161378571D01*
X325658971Y-161378571D01*
X325516114Y-161450000D01*
X325444686Y-161521428D01*
X325373257Y-161664285D01*
X325373257Y-161878571D01*
X325444686Y-162021428D01*
X325516114Y-162092857D01*
X325658971Y-162164285D01*
X326230400Y-162164285D01*
X322730400Y-162735714D02*
X322801828Y-162807142D01*
X323016114Y-162878571D01*
X323158971Y-162878571D01*
X323373257Y-162807142D01*
X323516114Y-162664285D01*
X323587543Y-162521428D01*
X323658971Y-162235714D01*
X323658971Y-162021428D01*
X323587543Y-161735714D01*
X323516114Y-161592857D01*
X323373257Y-161450000D01*
X323158971Y-161378571D01*
X323016114Y-161378571D01*
X322801828Y-161450000D01*
X322730400Y-161521428D01*
X321801828Y-161378571D02*
X321516114Y-161378571D01*
X321373257Y-161450000D01*
X321230400Y-161592857D01*
X321158971Y-161878571D01*
X321158971Y-162378571D01*
X321230400Y-162664285D01*
X321373257Y-162807142D01*
X321516114Y-162878571D01*
X321801828Y-162878571D01*
X321944686Y-162807142D01*
X322087543Y-162664285D01*
X322158971Y-162378571D01*
X322158971Y-161878571D01*
X322087543Y-161592857D01*
X321944686Y-161450000D01*
X321801828Y-161378571D01*
X320516114Y-162878571D02*
X320516114Y-161378571D01*
X320016114Y-162450000D01*
X319516114Y-161378571D01*
X319516114Y-162878571D01*
X318801828Y-162878571D02*
X318801828Y-161378571D01*
X318301828Y-162450000D01*
X317801828Y-161378571D01*
X317801828Y-162878571D01*
X316801828Y-161378571D02*
X316516114Y-161378571D01*
X316373257Y-161450000D01*
X316230400Y-161592857D01*
X316158971Y-161878571D01*
X316158971Y-162378571D01*
X316230400Y-162664285D01*
X316373257Y-162807142D01*
X316516114Y-162878571D01*
X316801828Y-162878571D01*
X316944686Y-162807142D01*
X317087543Y-162664285D01*
X317158971Y-162378571D01*
X317158971Y-161878571D01*
X317087543Y-161592857D01*
X316944686Y-161450000D01*
X316801828Y-161378571D01*
X315516114Y-162878571D02*
X315516114Y-161378571D01*
X315158971Y-161378571D01*
X314944686Y-161450000D01*
X314801828Y-161592857D01*
X314730400Y-161735714D01*
X314658971Y-162021428D01*
X314658971Y-162235714D01*
X314730400Y-162521428D01*
X314801828Y-162664285D01*
X314944686Y-162807142D01*
X315158971Y-162878571D01*
X315516114Y-162878571D01*
X313730400Y-161378571D02*
X313444686Y-161378571D01*
X313301828Y-161450000D01*
X313158971Y-161592857D01*
X313087543Y-161878571D01*
X313087543Y-162378571D01*
X313158971Y-162664285D01*
X313301828Y-162807142D01*
X313444686Y-162878571D01*
X313730400Y-162878571D01*
X313873257Y-162807142D01*
X314016114Y-162664285D01*
X314087543Y-162378571D01*
X314087543Y-161878571D01*
X314016114Y-161592857D01*
X313873257Y-161450000D01*
X313730400Y-161378571D01*
X311587543Y-162878571D02*
X312087543Y-162164285D01*
X312444686Y-162878571D02*
X312444686Y-161378571D01*
X311873257Y-161378571D01*
X311730400Y-161450000D01*
X311658971Y-161521428D01*
X311587543Y-161664285D01*
X311587543Y-161878571D01*
X311658971Y-162021428D01*
X311730400Y-162092857D01*
X311873257Y-162164285D01*
X312444686Y-162164285D01*
X310944686Y-162092857D02*
X310444686Y-162092857D01*
X310230400Y-162878571D02*
X310944686Y-162878571D01*
X310944686Y-161378571D01*
X310230400Y-161378571D01*
X307801828Y-161378571D02*
X308087543Y-161378571D01*
X308230400Y-161450000D01*
X308301828Y-161521428D01*
X308444686Y-161735714D01*
X308516114Y-162021428D01*
X308516114Y-162592857D01*
X308444686Y-162735714D01*
X308373257Y-162807142D01*
X308230400Y-162878571D01*
X307944686Y-162878571D01*
X307801828Y-162807142D01*
X307730400Y-162735714D01*
X307658971Y-162592857D01*
X307658971Y-162235714D01*
X307730400Y-162092857D01*
X307801828Y-162021428D01*
X307944686Y-161950000D01*
X308230400Y-161950000D01*
X308373257Y-162021428D01*
X308444686Y-162092857D01*
X308516114Y-162235714D01*
X306373257Y-161878571D02*
X306373257Y-162878571D01*
X306730400Y-161307142D02*
X307087543Y-162378571D01*
X306158971Y-162378571D01*
X303944686Y-162092857D02*
X303730400Y-162164285D01*
X303658971Y-162235714D01*
X303587543Y-162378571D01*
X303587543Y-162592857D01*
X303658971Y-162735714D01*
X303730400Y-162807142D01*
X303873257Y-162878571D01*
X304444686Y-162878571D01*
X304444686Y-161378571D01*
X303944686Y-161378571D01*
X303801828Y-161450000D01*
X303730400Y-161521428D01*
X303658971Y-161664285D01*
X303658971Y-161807142D01*
X303730400Y-161950000D01*
X303801828Y-162021428D01*
X303944686Y-162092857D01*
X304444686Y-162092857D01*
X303016114Y-162450000D02*
X302301828Y-162450000D01*
X303158971Y-162878571D02*
X302658971Y-161378571D01*
X302158971Y-162878571D01*
X301730400Y-162807142D02*
X301516114Y-162878571D01*
X301158971Y-162878571D01*
X301016114Y-162807142D01*
X300944686Y-162735714D01*
X300873257Y-162592857D01*
X300873257Y-162450000D01*
X300944686Y-162307142D01*
X301016114Y-162235714D01*
X301158971Y-162164285D01*
X301444686Y-162092857D01*
X301587543Y-162021428D01*
X301658971Y-161950000D01*
X301730400Y-161807142D01*
X301730400Y-161664285D01*
X301658971Y-161521428D01*
X301587543Y-161450000D01*
X301444686Y-161378571D01*
X301087543Y-161378571D01*
X300873257Y-161450000D01*
X300230400Y-162878571D02*
X300230400Y-161378571D01*
X298658971Y-162735714D02*
X298730400Y-162807142D01*
X298944686Y-162878571D01*
X299087543Y-162878571D01*
X299301828Y-162807142D01*
X299444686Y-162664285D01*
X299516114Y-162521428D01*
X299587543Y-162235714D01*
X299587543Y-162021428D01*
X299516114Y-161735714D01*
X299444686Y-161592857D01*
X299301828Y-161450000D01*
X299087543Y-161378571D01*
X298944686Y-161378571D01*
X298730400Y-161450000D01*
X298658971Y-161521428D01*
X297087543Y-161378571D02*
X296587543Y-162878571D01*
X296087543Y-161378571D01*
X294801828Y-162878571D02*
X295658971Y-162878571D01*
X295230400Y-162878571D02*
X295230400Y-161378571D01*
X295373257Y-161592857D01*
X295516114Y-161735714D01*
X295658971Y-161807142D01*
X292801828Y-161378571D02*
X292801828Y-161735714D01*
X293158971Y-161592857D02*
X292801828Y-161735714D01*
X292444686Y-161592857D01*
X293016114Y-162021428D02*
X292801828Y-161735714D01*
X292587543Y-162021428D01*
X291658971Y-161378571D02*
X291658971Y-161735714D01*
X292016114Y-161592857D02*
X291658971Y-161735714D01*
X291301828Y-161592857D01*
X291873257Y-162021428D02*
X291658971Y-161735714D01*
X291444686Y-162021428D01*
X290516114Y-161378571D02*
X290516114Y-161735714D01*
X290873257Y-161592857D02*
X290516114Y-161735714D01*
X290158971Y-161592857D01*
X290730400Y-162021428D02*
X290516114Y-161735714D01*
X290301828Y-162021428D01*
X289373257Y-161378571D02*
X289373257Y-161735714D01*
X289730400Y-161592857D02*
X289373257Y-161735714D01*
X289016114Y-161592857D01*
X289587543Y-162021428D02*
X289373257Y-161735714D01*
X289158971Y-162021428D01*
D12*
G04 #@! TO.C,D68*
X362406243Y-65186308D02*
X365066243Y-65186308D01*
X362406243Y-67786308D02*
X362406243Y-65186308D01*
X365066243Y-67786308D02*
X365066243Y-65186308D01*
X362406243Y-67786308D02*
X365066243Y-67786308D01*
X362406243Y-69056308D02*
X362406243Y-70386308D01*
X362406243Y-70386308D02*
X363736243Y-70386308D01*
D13*
G04 #@! TO.C,R1*
X357783113Y-65071682D02*
X357783113Y-64563682D01*
X357783113Y-71167682D02*
X357783113Y-70659682D01*
X357021113Y-70659682D02*
X358545113Y-70659682D01*
X356767113Y-70405682D02*
X357021113Y-70659682D01*
X356767113Y-70151682D02*
X356767113Y-70405682D01*
X357021113Y-69897682D02*
X356767113Y-70151682D01*
X357021113Y-65833682D02*
X357021113Y-69897682D01*
X356767113Y-65579682D02*
X357021113Y-65833682D01*
X356767113Y-65325682D02*
X356767113Y-65579682D01*
X357021113Y-65071682D02*
X356767113Y-65325682D01*
X358545113Y-65071682D02*
X357021113Y-65071682D01*
X358799113Y-65325682D02*
X358545113Y-65071682D01*
X358799113Y-65579682D02*
X358799113Y-65325682D01*
X358545113Y-65833682D02*
X358799113Y-65579682D01*
X358545113Y-69897682D02*
X358545113Y-65833682D01*
X358799113Y-70151682D02*
X358545113Y-69897682D01*
X358799113Y-70405682D02*
X358799113Y-70151682D01*
X358545113Y-70659682D02*
X358799113Y-70405682D01*
G04 #@! TO.C,RSW1*
X333552848Y-60255416D02*
X333552848Y-63855416D01*
X326052848Y-60255416D02*
X333552848Y-60255416D01*
X326052848Y-63855416D02*
X326052848Y-60255416D01*
X326052848Y-66805416D02*
X333552848Y-66805416D01*
X331302848Y-58955416D02*
X331302848Y-60055416D01*
X328302848Y-58955416D02*
X331302848Y-58955416D01*
X328302848Y-60055416D02*
X328302848Y-58955416D01*
D14*
G04 #@! TO.C,U1*
X353074664Y-76160000D02*
X353074664Y-106640000D01*
X353074664Y-106640000D02*
X335294664Y-106640000D01*
X335294664Y-106640000D02*
X335294664Y-76160000D01*
X350534664Y-76160000D02*
X350534664Y-78700000D01*
X350534664Y-78700000D02*
X353074664Y-78700000D01*
D13*
G36*
X339253096Y-82039360D02*
X339253096Y-82339360D01*
X339353096Y-82339360D01*
X339353096Y-82039360D01*
X339253096Y-82039360D01*
G37*
X339253096Y-82039360D02*
X339253096Y-82339360D01*
X339353096Y-82339360D01*
X339353096Y-82039360D01*
X339253096Y-82039360D01*
G36*
X339453096Y-82439360D02*
X339453096Y-82539360D01*
X339553096Y-82539360D01*
X339553096Y-82439360D01*
X339453096Y-82439360D01*
G37*
X339453096Y-82439360D02*
X339453096Y-82539360D01*
X339553096Y-82539360D01*
X339553096Y-82439360D01*
X339453096Y-82439360D01*
G36*
X339253096Y-82039360D02*
X339253096Y-82139360D01*
X339753096Y-82139360D01*
X339753096Y-82039360D01*
X339253096Y-82039360D01*
G37*
X339253096Y-82039360D02*
X339253096Y-82139360D01*
X339753096Y-82139360D01*
X339753096Y-82039360D01*
X339253096Y-82039360D01*
G36*
X339653096Y-82039360D02*
X339653096Y-82839360D01*
X339753096Y-82839360D01*
X339753096Y-82039360D01*
X339653096Y-82039360D01*
G37*
X339653096Y-82039360D02*
X339653096Y-82839360D01*
X339753096Y-82839360D01*
X339753096Y-82039360D01*
X339653096Y-82039360D01*
G36*
X339253096Y-82639360D02*
X339253096Y-82839360D01*
X339353096Y-82839360D01*
X339353096Y-82639360D01*
X339253096Y-82639360D01*
G37*
X339253096Y-82639360D02*
X339253096Y-82839360D01*
X339353096Y-82839360D01*
X339353096Y-82639360D01*
X339253096Y-82639360D01*
D14*
X335294664Y-76160000D02*
X335294664Y-73620000D01*
X335294664Y-73620000D02*
X353074664Y-73620000D01*
X353074664Y-73620000D02*
X353074664Y-76160000D01*
X350534664Y-76160000D02*
X353074664Y-76160000D01*
D11*
G04 #@! TO.C,D64*
X107240740Y-158295203D02*
X107240740Y-164095203D01*
X109640740Y-158295203D02*
X107240740Y-158295203D01*
X109640740Y-164095203D02*
X109640740Y-158295203D01*
X109640740Y-164020203D02*
X107240740Y-164020203D01*
X109640740Y-163895203D02*
X107240740Y-163895203D01*
X107240740Y-164120203D02*
X109640740Y-164120203D01*
X109640740Y-163720203D02*
X107240740Y-163720203D01*
X109640740Y-163545203D02*
X107240740Y-163545203D01*
X109640740Y-163370203D02*
X107240740Y-163370203D01*
G04 #@! TO.C,D65*
X154884490Y-163370203D02*
X152484490Y-163370203D01*
X154884490Y-163545203D02*
X152484490Y-163545203D01*
X154884490Y-163720203D02*
X152484490Y-163720203D01*
X152484490Y-164120203D02*
X154884490Y-164120203D01*
X154884490Y-163895203D02*
X152484490Y-163895203D01*
X154884490Y-164020203D02*
X152484490Y-164020203D01*
X154884490Y-164095203D02*
X154884490Y-158295203D01*
X154884490Y-158295203D02*
X152484490Y-158295203D01*
X152484490Y-158295203D02*
X152484490Y-164095203D01*
G04 #@! TO.C,D66*
X197728240Y-158295203D02*
X197728240Y-164095203D01*
X200128240Y-158295203D02*
X197728240Y-158295203D01*
X200128240Y-164095203D02*
X200128240Y-158295203D01*
X200128240Y-164020203D02*
X197728240Y-164020203D01*
X200128240Y-163895203D02*
X197728240Y-163895203D01*
X197728240Y-164120203D02*
X200128240Y-164120203D01*
X200128240Y-163720203D02*
X197728240Y-163720203D01*
X200128240Y-163545203D02*
X197728240Y-163545203D01*
X200128240Y-163370203D02*
X197728240Y-163370203D01*
G04 #@! TO.C,D67*
X226322064Y-163370451D02*
X223922064Y-163370451D01*
X226322064Y-163545451D02*
X223922064Y-163545451D01*
X226322064Y-163720451D02*
X223922064Y-163720451D01*
X223922064Y-164120451D02*
X226322064Y-164120451D01*
X226322064Y-163895451D02*
X223922064Y-163895451D01*
X226322064Y-164020451D02*
X223922064Y-164020451D01*
X226322064Y-164095451D02*
X226322064Y-158295451D01*
X226322064Y-158295451D02*
X223922064Y-158295451D01*
X223922064Y-158295451D02*
X223922064Y-164095451D01*
G04 #@! TO.C,D1*
X57234490Y-82095203D02*
X57234490Y-87895203D01*
X59634490Y-82095203D02*
X57234490Y-82095203D01*
X59634490Y-87895203D02*
X59634490Y-82095203D01*
X59634490Y-87820203D02*
X57234490Y-87820203D01*
X59634490Y-87695203D02*
X57234490Y-87695203D01*
X57234490Y-87920203D02*
X59634490Y-87920203D01*
X59634490Y-87520203D02*
X57234490Y-87520203D01*
X59634490Y-87345203D02*
X57234490Y-87345203D01*
X59634490Y-87170203D02*
X57234490Y-87170203D01*
G04 #@! TO.C,D2*
X76284490Y-82095203D02*
X76284490Y-87895203D01*
X78684490Y-82095203D02*
X76284490Y-82095203D01*
X78684490Y-87895203D02*
X78684490Y-82095203D01*
X78684490Y-87820203D02*
X76284490Y-87820203D01*
X78684490Y-87695203D02*
X76284490Y-87695203D01*
X76284490Y-87920203D02*
X78684490Y-87920203D01*
X78684490Y-87520203D02*
X76284490Y-87520203D01*
X78684490Y-87345203D02*
X76284490Y-87345203D01*
X78684490Y-87170203D02*
X76284490Y-87170203D01*
G04 #@! TO.C,D3*
X95334490Y-82095203D02*
X95334490Y-87895203D01*
X97734490Y-82095203D02*
X95334490Y-82095203D01*
X97734490Y-87895203D02*
X97734490Y-82095203D01*
X97734490Y-87820203D02*
X95334490Y-87820203D01*
X97734490Y-87695203D02*
X95334490Y-87695203D01*
X95334490Y-87920203D02*
X97734490Y-87920203D01*
X97734490Y-87520203D02*
X95334490Y-87520203D01*
X97734490Y-87345203D02*
X95334490Y-87345203D01*
X97734490Y-87170203D02*
X95334490Y-87170203D01*
G04 #@! TO.C,D4*
X114384490Y-82095203D02*
X114384490Y-87895203D01*
X116784490Y-82095203D02*
X114384490Y-82095203D01*
X116784490Y-87895203D02*
X116784490Y-82095203D01*
X116784490Y-87820203D02*
X114384490Y-87820203D01*
X116784490Y-87695203D02*
X114384490Y-87695203D01*
X114384490Y-87920203D02*
X116784490Y-87920203D01*
X116784490Y-87520203D02*
X114384490Y-87520203D01*
X116784490Y-87345203D02*
X114384490Y-87345203D01*
X116784490Y-87170203D02*
X114384490Y-87170203D01*
G04 #@! TO.C,D5*
X133434490Y-82095203D02*
X133434490Y-87895203D01*
X135834490Y-82095203D02*
X133434490Y-82095203D01*
X135834490Y-87895203D02*
X135834490Y-82095203D01*
X135834490Y-87820203D02*
X133434490Y-87820203D01*
X135834490Y-87695203D02*
X133434490Y-87695203D01*
X133434490Y-87920203D02*
X135834490Y-87920203D01*
X135834490Y-87520203D02*
X133434490Y-87520203D01*
X135834490Y-87345203D02*
X133434490Y-87345203D01*
X135834490Y-87170203D02*
X133434490Y-87170203D01*
G04 #@! TO.C,D6*
X152484490Y-82095203D02*
X152484490Y-87895203D01*
X154884490Y-82095203D02*
X152484490Y-82095203D01*
X154884490Y-87895203D02*
X154884490Y-82095203D01*
X154884490Y-87820203D02*
X152484490Y-87820203D01*
X154884490Y-87695203D02*
X152484490Y-87695203D01*
X152484490Y-87920203D02*
X154884490Y-87920203D01*
X154884490Y-87520203D02*
X152484490Y-87520203D01*
X154884490Y-87345203D02*
X152484490Y-87345203D01*
X154884490Y-87170203D02*
X152484490Y-87170203D01*
G04 #@! TO.C,D7*
X171534490Y-82095203D02*
X171534490Y-87895203D01*
X173934490Y-82095203D02*
X171534490Y-82095203D01*
X173934490Y-87895203D02*
X173934490Y-82095203D01*
X173934490Y-87820203D02*
X171534490Y-87820203D01*
X173934490Y-87695203D02*
X171534490Y-87695203D01*
X171534490Y-87920203D02*
X173934490Y-87920203D01*
X173934490Y-87520203D02*
X171534490Y-87520203D01*
X173934490Y-87345203D02*
X171534490Y-87345203D01*
X173934490Y-87170203D02*
X171534490Y-87170203D01*
G04 #@! TO.C,D8*
X190584490Y-82095203D02*
X190584490Y-87895203D01*
X192984490Y-82095203D02*
X190584490Y-82095203D01*
X192984490Y-87895203D02*
X192984490Y-82095203D01*
X192984490Y-87820203D02*
X190584490Y-87820203D01*
X192984490Y-87695203D02*
X190584490Y-87695203D01*
X190584490Y-87920203D02*
X192984490Y-87920203D01*
X192984490Y-87520203D02*
X190584490Y-87520203D01*
X192984490Y-87345203D02*
X190584490Y-87345203D01*
X192984490Y-87170203D02*
X190584490Y-87170203D01*
G04 #@! TO.C,D9*
X212034490Y-87170203D02*
X209634490Y-87170203D01*
X212034490Y-87345203D02*
X209634490Y-87345203D01*
X212034490Y-87520203D02*
X209634490Y-87520203D01*
X209634490Y-87920203D02*
X212034490Y-87920203D01*
X212034490Y-87695203D02*
X209634490Y-87695203D01*
X212034490Y-87820203D02*
X209634490Y-87820203D01*
X212034490Y-87895203D02*
X212034490Y-82095203D01*
X212034490Y-82095203D02*
X209634490Y-82095203D01*
X209634490Y-82095203D02*
X209634490Y-87895203D01*
G04 #@! TO.C,D10*
X231084490Y-87170203D02*
X228684490Y-87170203D01*
X231084490Y-87345203D02*
X228684490Y-87345203D01*
X231084490Y-87520203D02*
X228684490Y-87520203D01*
X228684490Y-87920203D02*
X231084490Y-87920203D01*
X231084490Y-87695203D02*
X228684490Y-87695203D01*
X231084490Y-87820203D02*
X228684490Y-87820203D01*
X231084490Y-87895203D02*
X231084490Y-82095203D01*
X231084490Y-82095203D02*
X228684490Y-82095203D01*
X228684490Y-82095203D02*
X228684490Y-87895203D01*
G04 #@! TO.C,D11*
X250134490Y-87170203D02*
X247734490Y-87170203D01*
X250134490Y-87345203D02*
X247734490Y-87345203D01*
X250134490Y-87520203D02*
X247734490Y-87520203D01*
X247734490Y-87920203D02*
X250134490Y-87920203D01*
X250134490Y-87695203D02*
X247734490Y-87695203D01*
X250134490Y-87820203D02*
X247734490Y-87820203D01*
X250134490Y-87895203D02*
X250134490Y-82095203D01*
X250134490Y-82095203D02*
X247734490Y-82095203D01*
X247734490Y-82095203D02*
X247734490Y-87895203D01*
G04 #@! TO.C,D12*
X269184490Y-87170203D02*
X266784490Y-87170203D01*
X269184490Y-87345203D02*
X266784490Y-87345203D01*
X269184490Y-87520203D02*
X266784490Y-87520203D01*
X266784490Y-87920203D02*
X269184490Y-87920203D01*
X269184490Y-87695203D02*
X266784490Y-87695203D01*
X269184490Y-87820203D02*
X266784490Y-87820203D01*
X269184490Y-87895203D02*
X269184490Y-82095203D01*
X269184490Y-82095203D02*
X266784490Y-82095203D01*
X266784490Y-82095203D02*
X266784490Y-87895203D01*
G04 #@! TO.C,D13*
X288234490Y-87170203D02*
X285834490Y-87170203D01*
X288234490Y-87345203D02*
X285834490Y-87345203D01*
X288234490Y-87520203D02*
X285834490Y-87520203D01*
X285834490Y-87920203D02*
X288234490Y-87920203D01*
X288234490Y-87695203D02*
X285834490Y-87695203D01*
X288234490Y-87820203D02*
X285834490Y-87820203D01*
X288234490Y-87895203D02*
X288234490Y-82095203D01*
X288234490Y-82095203D02*
X285834490Y-82095203D01*
X285834490Y-82095203D02*
X285834490Y-87895203D01*
G04 #@! TO.C,D14*
X312047136Y-87170203D02*
X309647136Y-87170203D01*
X312047136Y-87345203D02*
X309647136Y-87345203D01*
X312047136Y-87520203D02*
X309647136Y-87520203D01*
X309647136Y-87920203D02*
X312047136Y-87920203D01*
X312047136Y-87695203D02*
X309647136Y-87695203D01*
X312047136Y-87820203D02*
X309647136Y-87820203D01*
X312047136Y-87895203D02*
X312047136Y-82095203D01*
X312047136Y-82095203D02*
X309647136Y-82095203D01*
X309647136Y-82095203D02*
X309647136Y-87895203D01*
G04 #@! TO.C,D15*
X317404953Y-87170203D02*
X315004953Y-87170203D01*
X317404953Y-87345203D02*
X315004953Y-87345203D01*
X317404953Y-87520203D02*
X315004953Y-87520203D01*
X315004953Y-87920203D02*
X317404953Y-87920203D01*
X317404953Y-87695203D02*
X315004953Y-87695203D01*
X317404953Y-87820203D02*
X315004953Y-87820203D01*
X317404953Y-87895203D02*
X317404953Y-82095203D01*
X317404953Y-82095203D02*
X315004953Y-82095203D01*
X315004953Y-82095203D02*
X315004953Y-87895203D01*
G04 #@! TO.C,D16*
X360267489Y-87170387D02*
X357867489Y-87170387D01*
X360267489Y-87345387D02*
X357867489Y-87345387D01*
X360267489Y-87520387D02*
X357867489Y-87520387D01*
X357867489Y-87920387D02*
X360267489Y-87920387D01*
X360267489Y-87695387D02*
X357867489Y-87695387D01*
X360267489Y-87820387D02*
X357867489Y-87820387D01*
X360267489Y-87895387D02*
X360267489Y-82095387D01*
X360267489Y-82095387D02*
X357867489Y-82095387D01*
X357867489Y-82095387D02*
X357867489Y-87895387D01*
G04 #@! TO.C,D17*
X57234490Y-101145203D02*
X57234490Y-106945203D01*
X59634490Y-101145203D02*
X57234490Y-101145203D01*
X59634490Y-106945203D02*
X59634490Y-101145203D01*
X59634490Y-106870203D02*
X57234490Y-106870203D01*
X59634490Y-106745203D02*
X57234490Y-106745203D01*
X57234490Y-106970203D02*
X59634490Y-106970203D01*
X59634490Y-106570203D02*
X57234490Y-106570203D01*
X59634490Y-106395203D02*
X57234490Y-106395203D01*
X59634490Y-106220203D02*
X57234490Y-106220203D01*
G04 #@! TO.C,D18*
X76284490Y-101145203D02*
X76284490Y-106945203D01*
X78684490Y-101145203D02*
X76284490Y-101145203D01*
X78684490Y-106945203D02*
X78684490Y-101145203D01*
X78684490Y-106870203D02*
X76284490Y-106870203D01*
X78684490Y-106745203D02*
X76284490Y-106745203D01*
X76284490Y-106970203D02*
X78684490Y-106970203D01*
X78684490Y-106570203D02*
X76284490Y-106570203D01*
X78684490Y-106395203D02*
X76284490Y-106395203D01*
X78684490Y-106220203D02*
X76284490Y-106220203D01*
G04 #@! TO.C,D19*
X95334490Y-101145203D02*
X95334490Y-106945203D01*
X97734490Y-101145203D02*
X95334490Y-101145203D01*
X97734490Y-106945203D02*
X97734490Y-101145203D01*
X97734490Y-106870203D02*
X95334490Y-106870203D01*
X97734490Y-106745203D02*
X95334490Y-106745203D01*
X95334490Y-106970203D02*
X97734490Y-106970203D01*
X97734490Y-106570203D02*
X95334490Y-106570203D01*
X97734490Y-106395203D02*
X95334490Y-106395203D01*
X97734490Y-106220203D02*
X95334490Y-106220203D01*
G04 #@! TO.C,D20*
X114384490Y-101145203D02*
X114384490Y-106945203D01*
X116784490Y-101145203D02*
X114384490Y-101145203D01*
X116784490Y-106945203D02*
X116784490Y-101145203D01*
X116784490Y-106870203D02*
X114384490Y-106870203D01*
X116784490Y-106745203D02*
X114384490Y-106745203D01*
X114384490Y-106970203D02*
X116784490Y-106970203D01*
X116784490Y-106570203D02*
X114384490Y-106570203D01*
X116784490Y-106395203D02*
X114384490Y-106395203D01*
X116784490Y-106220203D02*
X114384490Y-106220203D01*
G04 #@! TO.C,D21*
X133434490Y-101145203D02*
X133434490Y-106945203D01*
X135834490Y-101145203D02*
X133434490Y-101145203D01*
X135834490Y-106945203D02*
X135834490Y-101145203D01*
X135834490Y-106870203D02*
X133434490Y-106870203D01*
X135834490Y-106745203D02*
X133434490Y-106745203D01*
X133434490Y-106970203D02*
X135834490Y-106970203D01*
X135834490Y-106570203D02*
X133434490Y-106570203D01*
X135834490Y-106395203D02*
X133434490Y-106395203D01*
X135834490Y-106220203D02*
X133434490Y-106220203D01*
G04 #@! TO.C,D22*
X152484490Y-101145203D02*
X152484490Y-106945203D01*
X154884490Y-101145203D02*
X152484490Y-101145203D01*
X154884490Y-106945203D02*
X154884490Y-101145203D01*
X154884490Y-106870203D02*
X152484490Y-106870203D01*
X154884490Y-106745203D02*
X152484490Y-106745203D01*
X152484490Y-106970203D02*
X154884490Y-106970203D01*
X154884490Y-106570203D02*
X152484490Y-106570203D01*
X154884490Y-106395203D02*
X152484490Y-106395203D01*
X154884490Y-106220203D02*
X152484490Y-106220203D01*
G04 #@! TO.C,D23*
X171534490Y-101145203D02*
X171534490Y-106945203D01*
X173934490Y-101145203D02*
X171534490Y-101145203D01*
X173934490Y-106945203D02*
X173934490Y-101145203D01*
X173934490Y-106870203D02*
X171534490Y-106870203D01*
X173934490Y-106745203D02*
X171534490Y-106745203D01*
X171534490Y-106970203D02*
X173934490Y-106970203D01*
X173934490Y-106570203D02*
X171534490Y-106570203D01*
X173934490Y-106395203D02*
X171534490Y-106395203D01*
X173934490Y-106220203D02*
X171534490Y-106220203D01*
G04 #@! TO.C,D24*
X190584490Y-101145203D02*
X190584490Y-106945203D01*
X192984490Y-101145203D02*
X190584490Y-101145203D01*
X192984490Y-106945203D02*
X192984490Y-101145203D01*
X192984490Y-106870203D02*
X190584490Y-106870203D01*
X192984490Y-106745203D02*
X190584490Y-106745203D01*
X190584490Y-106970203D02*
X192984490Y-106970203D01*
X192984490Y-106570203D02*
X190584490Y-106570203D01*
X192984490Y-106395203D02*
X190584490Y-106395203D01*
X192984490Y-106220203D02*
X190584490Y-106220203D01*
G04 #@! TO.C,D25*
X212034490Y-106220203D02*
X209634490Y-106220203D01*
X212034490Y-106395203D02*
X209634490Y-106395203D01*
X212034490Y-106570203D02*
X209634490Y-106570203D01*
X209634490Y-106970203D02*
X212034490Y-106970203D01*
X212034490Y-106745203D02*
X209634490Y-106745203D01*
X212034490Y-106870203D02*
X209634490Y-106870203D01*
X212034490Y-106945203D02*
X212034490Y-101145203D01*
X212034490Y-101145203D02*
X209634490Y-101145203D01*
X209634490Y-101145203D02*
X209634490Y-106945203D01*
G04 #@! TO.C,D26*
X231084490Y-106220203D02*
X228684490Y-106220203D01*
X231084490Y-106395203D02*
X228684490Y-106395203D01*
X231084490Y-106570203D02*
X228684490Y-106570203D01*
X228684490Y-106970203D02*
X231084490Y-106970203D01*
X231084490Y-106745203D02*
X228684490Y-106745203D01*
X231084490Y-106870203D02*
X228684490Y-106870203D01*
X231084490Y-106945203D02*
X231084490Y-101145203D01*
X231084490Y-101145203D02*
X228684490Y-101145203D01*
X228684490Y-101145203D02*
X228684490Y-106945203D01*
G04 #@! TO.C,D27*
X250134490Y-106220203D02*
X247734490Y-106220203D01*
X250134490Y-106395203D02*
X247734490Y-106395203D01*
X250134490Y-106570203D02*
X247734490Y-106570203D01*
X247734490Y-106970203D02*
X250134490Y-106970203D01*
X250134490Y-106745203D02*
X247734490Y-106745203D01*
X250134490Y-106870203D02*
X247734490Y-106870203D01*
X250134490Y-106945203D02*
X250134490Y-101145203D01*
X250134490Y-101145203D02*
X247734490Y-101145203D01*
X247734490Y-101145203D02*
X247734490Y-106945203D01*
G04 #@! TO.C,D28*
X269184490Y-106220203D02*
X266784490Y-106220203D01*
X269184490Y-106395203D02*
X266784490Y-106395203D01*
X269184490Y-106570203D02*
X266784490Y-106570203D01*
X266784490Y-106970203D02*
X269184490Y-106970203D01*
X269184490Y-106745203D02*
X266784490Y-106745203D01*
X269184490Y-106870203D02*
X266784490Y-106870203D01*
X269184490Y-106945203D02*
X269184490Y-101145203D01*
X269184490Y-101145203D02*
X266784490Y-101145203D01*
X266784490Y-101145203D02*
X266784490Y-106945203D01*
G04 #@! TO.C,D29*
X288234490Y-106220203D02*
X285834490Y-106220203D01*
X288234490Y-106395203D02*
X285834490Y-106395203D01*
X288234490Y-106570203D02*
X285834490Y-106570203D01*
X285834490Y-106970203D02*
X288234490Y-106970203D01*
X288234490Y-106745203D02*
X285834490Y-106745203D01*
X288234490Y-106870203D02*
X285834490Y-106870203D01*
X288234490Y-106945203D02*
X288234490Y-101145203D01*
X288234490Y-101145203D02*
X285834490Y-101145203D01*
X285834490Y-101145203D02*
X285834490Y-106945203D01*
G04 #@! TO.C,D30*
X312047136Y-106220203D02*
X309647136Y-106220203D01*
X312047136Y-106395203D02*
X309647136Y-106395203D01*
X312047136Y-106570203D02*
X309647136Y-106570203D01*
X309647136Y-106970203D02*
X312047136Y-106970203D01*
X312047136Y-106745203D02*
X309647136Y-106745203D01*
X312047136Y-106870203D02*
X309647136Y-106870203D01*
X312047136Y-106945203D02*
X312047136Y-101145203D01*
X312047136Y-101145203D02*
X309647136Y-101145203D01*
X309647136Y-101145203D02*
X309647136Y-106945203D01*
G04 #@! TO.C,D31*
X317404953Y-106220203D02*
X315004953Y-106220203D01*
X317404953Y-106395203D02*
X315004953Y-106395203D01*
X317404953Y-106570203D02*
X315004953Y-106570203D01*
X315004953Y-106970203D02*
X317404953Y-106970203D01*
X317404953Y-106745203D02*
X315004953Y-106745203D01*
X317404953Y-106870203D02*
X315004953Y-106870203D01*
X317404953Y-106945203D02*
X317404953Y-101145203D01*
X317404953Y-101145203D02*
X315004953Y-101145203D01*
X315004953Y-101145203D02*
X315004953Y-106945203D01*
G04 #@! TO.C,D32*
X360267489Y-106220203D02*
X357867489Y-106220203D01*
X360267489Y-106395203D02*
X357867489Y-106395203D01*
X360267489Y-106570203D02*
X357867489Y-106570203D01*
X357867489Y-106970203D02*
X360267489Y-106970203D01*
X360267489Y-106745203D02*
X357867489Y-106745203D01*
X360267489Y-106870203D02*
X357867489Y-106870203D01*
X360267489Y-106945203D02*
X360267489Y-101145203D01*
X360267489Y-101145203D02*
X357867489Y-101145203D01*
X357867489Y-101145203D02*
X357867489Y-106945203D01*
G04 #@! TO.C,D33*
X57234490Y-120195203D02*
X57234490Y-125995203D01*
X59634490Y-120195203D02*
X57234490Y-120195203D01*
X59634490Y-125995203D02*
X59634490Y-120195203D01*
X59634490Y-125920203D02*
X57234490Y-125920203D01*
X59634490Y-125795203D02*
X57234490Y-125795203D01*
X57234490Y-126020203D02*
X59634490Y-126020203D01*
X59634490Y-125620203D02*
X57234490Y-125620203D01*
X59634490Y-125445203D02*
X57234490Y-125445203D01*
X59634490Y-125270203D02*
X57234490Y-125270203D01*
G04 #@! TO.C,D34*
X76284490Y-120195203D02*
X76284490Y-125995203D01*
X78684490Y-120195203D02*
X76284490Y-120195203D01*
X78684490Y-125995203D02*
X78684490Y-120195203D01*
X78684490Y-125920203D02*
X76284490Y-125920203D01*
X78684490Y-125795203D02*
X76284490Y-125795203D01*
X76284490Y-126020203D02*
X78684490Y-126020203D01*
X78684490Y-125620203D02*
X76284490Y-125620203D01*
X78684490Y-125445203D02*
X76284490Y-125445203D01*
X78684490Y-125270203D02*
X76284490Y-125270203D01*
G04 #@! TO.C,D35*
X95334490Y-120195203D02*
X95334490Y-125995203D01*
X97734490Y-120195203D02*
X95334490Y-120195203D01*
X97734490Y-125995203D02*
X97734490Y-120195203D01*
X97734490Y-125920203D02*
X95334490Y-125920203D01*
X97734490Y-125795203D02*
X95334490Y-125795203D01*
X95334490Y-126020203D02*
X97734490Y-126020203D01*
X97734490Y-125620203D02*
X95334490Y-125620203D01*
X97734490Y-125445203D02*
X95334490Y-125445203D01*
X97734490Y-125270203D02*
X95334490Y-125270203D01*
G04 #@! TO.C,D36*
X114384490Y-120195203D02*
X114384490Y-125995203D01*
X116784490Y-120195203D02*
X114384490Y-120195203D01*
X116784490Y-125995203D02*
X116784490Y-120195203D01*
X116784490Y-125920203D02*
X114384490Y-125920203D01*
X116784490Y-125795203D02*
X114384490Y-125795203D01*
X114384490Y-126020203D02*
X116784490Y-126020203D01*
X116784490Y-125620203D02*
X114384490Y-125620203D01*
X116784490Y-125445203D02*
X114384490Y-125445203D01*
X116784490Y-125270203D02*
X114384490Y-125270203D01*
G04 #@! TO.C,D37*
X133434490Y-120195203D02*
X133434490Y-125995203D01*
X135834490Y-120195203D02*
X133434490Y-120195203D01*
X135834490Y-125995203D02*
X135834490Y-120195203D01*
X135834490Y-125920203D02*
X133434490Y-125920203D01*
X135834490Y-125795203D02*
X133434490Y-125795203D01*
X133434490Y-126020203D02*
X135834490Y-126020203D01*
X135834490Y-125620203D02*
X133434490Y-125620203D01*
X135834490Y-125445203D02*
X133434490Y-125445203D01*
X135834490Y-125270203D02*
X133434490Y-125270203D01*
G04 #@! TO.C,D38*
X152484490Y-120195203D02*
X152484490Y-125995203D01*
X154884490Y-120195203D02*
X152484490Y-120195203D01*
X154884490Y-125995203D02*
X154884490Y-120195203D01*
X154884490Y-125920203D02*
X152484490Y-125920203D01*
X154884490Y-125795203D02*
X152484490Y-125795203D01*
X152484490Y-126020203D02*
X154884490Y-126020203D01*
X154884490Y-125620203D02*
X152484490Y-125620203D01*
X154884490Y-125445203D02*
X152484490Y-125445203D01*
X154884490Y-125270203D02*
X152484490Y-125270203D01*
G04 #@! TO.C,D39*
X171534490Y-120195203D02*
X171534490Y-125995203D01*
X173934490Y-120195203D02*
X171534490Y-120195203D01*
X173934490Y-125995203D02*
X173934490Y-120195203D01*
X173934490Y-125920203D02*
X171534490Y-125920203D01*
X173934490Y-125795203D02*
X171534490Y-125795203D01*
X171534490Y-126020203D02*
X173934490Y-126020203D01*
X173934490Y-125620203D02*
X171534490Y-125620203D01*
X173934490Y-125445203D02*
X171534490Y-125445203D01*
X173934490Y-125270203D02*
X171534490Y-125270203D01*
G04 #@! TO.C,D40*
X190584490Y-120195203D02*
X190584490Y-125995203D01*
X192984490Y-120195203D02*
X190584490Y-120195203D01*
X192984490Y-125995203D02*
X192984490Y-120195203D01*
X192984490Y-125920203D02*
X190584490Y-125920203D01*
X192984490Y-125795203D02*
X190584490Y-125795203D01*
X190584490Y-126020203D02*
X192984490Y-126020203D01*
X192984490Y-125620203D02*
X190584490Y-125620203D01*
X192984490Y-125445203D02*
X190584490Y-125445203D01*
X192984490Y-125270203D02*
X190584490Y-125270203D01*
G04 #@! TO.C,D41*
X212034490Y-125270203D02*
X209634490Y-125270203D01*
X212034490Y-125445203D02*
X209634490Y-125445203D01*
X212034490Y-125620203D02*
X209634490Y-125620203D01*
X209634490Y-126020203D02*
X212034490Y-126020203D01*
X212034490Y-125795203D02*
X209634490Y-125795203D01*
X212034490Y-125920203D02*
X209634490Y-125920203D01*
X212034490Y-125995203D02*
X212034490Y-120195203D01*
X212034490Y-120195203D02*
X209634490Y-120195203D01*
X209634490Y-120195203D02*
X209634490Y-125995203D01*
G04 #@! TO.C,D42*
X231084490Y-125270203D02*
X228684490Y-125270203D01*
X231084490Y-125445203D02*
X228684490Y-125445203D01*
X231084490Y-125620203D02*
X228684490Y-125620203D01*
X228684490Y-126020203D02*
X231084490Y-126020203D01*
X231084490Y-125795203D02*
X228684490Y-125795203D01*
X231084490Y-125920203D02*
X228684490Y-125920203D01*
X231084490Y-125995203D02*
X231084490Y-120195203D01*
X231084490Y-120195203D02*
X228684490Y-120195203D01*
X228684490Y-120195203D02*
X228684490Y-125995203D01*
G04 #@! TO.C,D43*
X250134490Y-125270203D02*
X247734490Y-125270203D01*
X250134490Y-125445203D02*
X247734490Y-125445203D01*
X250134490Y-125620203D02*
X247734490Y-125620203D01*
X247734490Y-126020203D02*
X250134490Y-126020203D01*
X250134490Y-125795203D02*
X247734490Y-125795203D01*
X250134490Y-125920203D02*
X247734490Y-125920203D01*
X250134490Y-125995203D02*
X250134490Y-120195203D01*
X250134490Y-120195203D02*
X247734490Y-120195203D01*
X247734490Y-120195203D02*
X247734490Y-125995203D01*
G04 #@! TO.C,D44*
X266784490Y-120195203D02*
X266784490Y-125995203D01*
X269184490Y-120195203D02*
X266784490Y-120195203D01*
X269184490Y-125995203D02*
X269184490Y-120195203D01*
X269184490Y-125920203D02*
X266784490Y-125920203D01*
X269184490Y-125795203D02*
X266784490Y-125795203D01*
X266784490Y-126020203D02*
X269184490Y-126020203D01*
X269184490Y-125620203D02*
X266784490Y-125620203D01*
X269184490Y-125445203D02*
X266784490Y-125445203D01*
X269184490Y-125270203D02*
X266784490Y-125270203D01*
G04 #@! TO.C,D45*
X312046990Y-125270203D02*
X309646990Y-125270203D01*
X312046990Y-125445203D02*
X309646990Y-125445203D01*
X312046990Y-125620203D02*
X309646990Y-125620203D01*
X309646990Y-126020203D02*
X312046990Y-126020203D01*
X312046990Y-125795203D02*
X309646990Y-125795203D01*
X312046990Y-125920203D02*
X309646990Y-125920203D01*
X312046990Y-125995203D02*
X312046990Y-120195203D01*
X312046990Y-120195203D02*
X309646990Y-120195203D01*
X309646990Y-120195203D02*
X309646990Y-125995203D01*
G04 #@! TO.C,D46*
X331096990Y-125270203D02*
X328696990Y-125270203D01*
X331096990Y-125445203D02*
X328696990Y-125445203D01*
X331096990Y-125620203D02*
X328696990Y-125620203D01*
X328696990Y-126020203D02*
X331096990Y-126020203D01*
X331096990Y-125795203D02*
X328696990Y-125795203D01*
X331096990Y-125920203D02*
X328696990Y-125920203D01*
X331096990Y-125995203D02*
X331096990Y-120195203D01*
X331096990Y-120195203D02*
X328696990Y-120195203D01*
X328696990Y-120195203D02*
X328696990Y-125995203D01*
G04 #@! TO.C,D47*
X360267489Y-125270419D02*
X357867489Y-125270419D01*
X360267489Y-125445419D02*
X357867489Y-125445419D01*
X360267489Y-125620419D02*
X357867489Y-125620419D01*
X357867489Y-126020419D02*
X360267489Y-126020419D01*
X360267489Y-125795419D02*
X357867489Y-125795419D01*
X360267489Y-125920419D02*
X357867489Y-125920419D01*
X360267489Y-125995419D02*
X360267489Y-120195419D01*
X360267489Y-120195419D02*
X357867489Y-120195419D01*
X357867489Y-120195419D02*
X357867489Y-125995419D01*
G04 #@! TO.C,D48*
X57234490Y-139245203D02*
X57234490Y-145045203D01*
X59634490Y-139245203D02*
X57234490Y-139245203D01*
X59634490Y-145045203D02*
X59634490Y-139245203D01*
X59634490Y-144970203D02*
X57234490Y-144970203D01*
X59634490Y-144845203D02*
X57234490Y-144845203D01*
X57234490Y-145070203D02*
X59634490Y-145070203D01*
X59634490Y-144670203D02*
X57234490Y-144670203D01*
X59634490Y-144495203D02*
X57234490Y-144495203D01*
X59634490Y-144320203D02*
X57234490Y-144320203D01*
G04 #@! TO.C,D49*
X76284490Y-139245203D02*
X76284490Y-145045203D01*
X78684490Y-139245203D02*
X76284490Y-139245203D01*
X78684490Y-145045203D02*
X78684490Y-139245203D01*
X78684490Y-144970203D02*
X76284490Y-144970203D01*
X78684490Y-144845203D02*
X76284490Y-144845203D01*
X76284490Y-145070203D02*
X78684490Y-145070203D01*
X78684490Y-144670203D02*
X76284490Y-144670203D01*
X78684490Y-144495203D02*
X76284490Y-144495203D01*
X78684490Y-144320203D02*
X76284490Y-144320203D01*
G04 #@! TO.C,D50*
X95334490Y-139245203D02*
X95334490Y-145045203D01*
X97734490Y-139245203D02*
X95334490Y-139245203D01*
X97734490Y-145045203D02*
X97734490Y-139245203D01*
X97734490Y-144970203D02*
X95334490Y-144970203D01*
X97734490Y-144845203D02*
X95334490Y-144845203D01*
X95334490Y-145070203D02*
X97734490Y-145070203D01*
X97734490Y-144670203D02*
X95334490Y-144670203D01*
X97734490Y-144495203D02*
X95334490Y-144495203D01*
X97734490Y-144320203D02*
X95334490Y-144320203D01*
G04 #@! TO.C,D51*
X114384490Y-139245203D02*
X114384490Y-145045203D01*
X116784490Y-139245203D02*
X114384490Y-139245203D01*
X116784490Y-145045203D02*
X116784490Y-139245203D01*
X116784490Y-144970203D02*
X114384490Y-144970203D01*
X116784490Y-144845203D02*
X114384490Y-144845203D01*
X114384490Y-145070203D02*
X116784490Y-145070203D01*
X116784490Y-144670203D02*
X114384490Y-144670203D01*
X116784490Y-144495203D02*
X114384490Y-144495203D01*
X116784490Y-144320203D02*
X114384490Y-144320203D01*
G04 #@! TO.C,D52*
X133434490Y-139245203D02*
X133434490Y-145045203D01*
X135834490Y-139245203D02*
X133434490Y-139245203D01*
X135834490Y-145045203D02*
X135834490Y-139245203D01*
X135834490Y-144970203D02*
X133434490Y-144970203D01*
X135834490Y-144845203D02*
X133434490Y-144845203D01*
X133434490Y-145070203D02*
X135834490Y-145070203D01*
X135834490Y-144670203D02*
X133434490Y-144670203D01*
X135834490Y-144495203D02*
X133434490Y-144495203D01*
X135834490Y-144320203D02*
X133434490Y-144320203D01*
G04 #@! TO.C,D53*
X152484490Y-139245203D02*
X152484490Y-145045203D01*
X154884490Y-139245203D02*
X152484490Y-139245203D01*
X154884490Y-145045203D02*
X154884490Y-139245203D01*
X154884490Y-144970203D02*
X152484490Y-144970203D01*
X154884490Y-144845203D02*
X152484490Y-144845203D01*
X152484490Y-145070203D02*
X154884490Y-145070203D01*
X154884490Y-144670203D02*
X152484490Y-144670203D01*
X154884490Y-144495203D02*
X152484490Y-144495203D01*
X154884490Y-144320203D02*
X152484490Y-144320203D01*
G04 #@! TO.C,D54*
X171534490Y-139245203D02*
X171534490Y-145045203D01*
X173934490Y-139245203D02*
X171534490Y-139245203D01*
X173934490Y-145045203D02*
X173934490Y-139245203D01*
X173934490Y-144970203D02*
X171534490Y-144970203D01*
X173934490Y-144845203D02*
X171534490Y-144845203D01*
X171534490Y-145070203D02*
X173934490Y-145070203D01*
X173934490Y-144670203D02*
X171534490Y-144670203D01*
X173934490Y-144495203D02*
X171534490Y-144495203D01*
X173934490Y-144320203D02*
X171534490Y-144320203D01*
G04 #@! TO.C,D55*
X190584490Y-139245203D02*
X190584490Y-145045203D01*
X192984490Y-139245203D02*
X190584490Y-139245203D01*
X192984490Y-145045203D02*
X192984490Y-139245203D01*
X192984490Y-144970203D02*
X190584490Y-144970203D01*
X192984490Y-144845203D02*
X190584490Y-144845203D01*
X190584490Y-145070203D02*
X192984490Y-145070203D01*
X192984490Y-144670203D02*
X190584490Y-144670203D01*
X192984490Y-144495203D02*
X190584490Y-144495203D01*
X192984490Y-144320203D02*
X190584490Y-144320203D01*
G04 #@! TO.C,D56*
X212034490Y-144320203D02*
X209634490Y-144320203D01*
X212034490Y-144495203D02*
X209634490Y-144495203D01*
X212034490Y-144670203D02*
X209634490Y-144670203D01*
X209634490Y-145070203D02*
X212034490Y-145070203D01*
X212034490Y-144845203D02*
X209634490Y-144845203D01*
X212034490Y-144970203D02*
X209634490Y-144970203D01*
X212034490Y-145045203D02*
X212034490Y-139245203D01*
X212034490Y-139245203D02*
X209634490Y-139245203D01*
X209634490Y-139245203D02*
X209634490Y-145045203D01*
G04 #@! TO.C,D57*
X231084490Y-144320203D02*
X228684490Y-144320203D01*
X231084490Y-144495203D02*
X228684490Y-144495203D01*
X231084490Y-144670203D02*
X228684490Y-144670203D01*
X228684490Y-145070203D02*
X231084490Y-145070203D01*
X231084490Y-144845203D02*
X228684490Y-144845203D01*
X231084490Y-144970203D02*
X228684490Y-144970203D01*
X231084490Y-145045203D02*
X231084490Y-139245203D01*
X231084490Y-139245203D02*
X228684490Y-139245203D01*
X228684490Y-139245203D02*
X228684490Y-145045203D01*
G04 #@! TO.C,D58*
X250134490Y-144320203D02*
X247734490Y-144320203D01*
X250134490Y-144495203D02*
X247734490Y-144495203D01*
X250134490Y-144670203D02*
X247734490Y-144670203D01*
X247734490Y-145070203D02*
X250134490Y-145070203D01*
X250134490Y-144845203D02*
X247734490Y-144845203D01*
X250134490Y-144970203D02*
X247734490Y-144970203D01*
X250134490Y-145045203D02*
X250134490Y-139245203D01*
X250134490Y-139245203D02*
X247734490Y-139245203D01*
X247734490Y-139245203D02*
X247734490Y-145045203D01*
G04 #@! TO.C,D59*
X290596990Y-139245203D02*
X290596990Y-145045203D01*
X292996990Y-139245203D02*
X290596990Y-139245203D01*
X292996990Y-145045203D02*
X292996990Y-139245203D01*
X292996990Y-144970203D02*
X290596990Y-144970203D01*
X292996990Y-144845203D02*
X290596990Y-144845203D01*
X290596990Y-145070203D02*
X292996990Y-145070203D01*
X292996990Y-144670203D02*
X290596990Y-144670203D01*
X292996990Y-144495203D02*
X290596990Y-144495203D01*
X292996990Y-144320203D02*
X290596990Y-144320203D01*
G04 #@! TO.C,D60*
X312046990Y-144320203D02*
X309646990Y-144320203D01*
X312046990Y-144495203D02*
X309646990Y-144495203D01*
X312046990Y-144670203D02*
X309646990Y-144670203D01*
X309646990Y-145070203D02*
X312046990Y-145070203D01*
X312046990Y-144845203D02*
X309646990Y-144845203D01*
X312046990Y-144970203D02*
X309646990Y-144970203D01*
X312046990Y-145045203D02*
X312046990Y-139245203D01*
X312046990Y-139245203D02*
X309646990Y-139245203D01*
X309646990Y-139245203D02*
X309646990Y-145045203D01*
G04 #@! TO.C,D61*
X331096990Y-144320203D02*
X328696990Y-144320203D01*
X331096990Y-144495203D02*
X328696990Y-144495203D01*
X331096990Y-144670203D02*
X328696990Y-144670203D01*
X328696990Y-145070203D02*
X331096990Y-145070203D01*
X331096990Y-144845203D02*
X328696990Y-144845203D01*
X331096990Y-144970203D02*
X328696990Y-144970203D01*
X331096990Y-145045203D02*
X331096990Y-139245203D01*
X331096990Y-139245203D02*
X328696990Y-139245203D01*
X328696990Y-139245203D02*
X328696990Y-145045203D01*
G04 #@! TO.C,D62*
X360267489Y-144320435D02*
X357867489Y-144320435D01*
X360267489Y-144495435D02*
X357867489Y-144495435D01*
X360267489Y-144670435D02*
X357867489Y-144670435D01*
X357867489Y-145070435D02*
X360267489Y-145070435D01*
X360267489Y-144845435D02*
X357867489Y-144845435D01*
X360267489Y-144970435D02*
X357867489Y-144970435D01*
X360267489Y-145045435D02*
X360267489Y-139245435D01*
X360267489Y-139245435D02*
X357867489Y-139245435D01*
X357867489Y-139245435D02*
X357867489Y-145045435D01*
G04 #@! TO.C,D63*
X102478240Y-158295203D02*
X102478240Y-164095203D01*
X104878240Y-158295203D02*
X102478240Y-158295203D01*
X104878240Y-164095203D02*
X104878240Y-158295203D01*
X104878240Y-164020203D02*
X102478240Y-164020203D01*
X104878240Y-163895203D02*
X102478240Y-163895203D01*
X102478240Y-164120203D02*
X104878240Y-164120203D01*
X104878240Y-163720203D02*
X102478240Y-163720203D01*
X104878240Y-163545203D02*
X102478240Y-163545203D01*
X104878240Y-163370203D02*
X102478240Y-163370203D01*
G04 #@! TO.C,D68*
D13*
X364950528Y-71838688D02*
X364950528Y-70838688D01*
X364712433Y-70838688D01*
X364569576Y-70886308D01*
X364474338Y-70981546D01*
X364426719Y-71076784D01*
X364379100Y-71267260D01*
X364379100Y-71410117D01*
X364426719Y-71600593D01*
X364474338Y-71695831D01*
X364569576Y-71791069D01*
X364712433Y-71838688D01*
X364950528Y-71838688D01*
X363521957Y-70838688D02*
X363712433Y-70838688D01*
X363807671Y-70886308D01*
X363855290Y-70933927D01*
X363950528Y-71076784D01*
X363998147Y-71267260D01*
X363998147Y-71648212D01*
X363950528Y-71743450D01*
X363902909Y-71791069D01*
X363807671Y-71838688D01*
X363617195Y-71838688D01*
X363521957Y-71791069D01*
X363474338Y-71743450D01*
X363426719Y-71648212D01*
X363426719Y-71410117D01*
X363474338Y-71314879D01*
X363521957Y-71267260D01*
X363617195Y-71219641D01*
X363807671Y-71219641D01*
X363902909Y-71267260D01*
X363950528Y-71314879D01*
X363998147Y-71410117D01*
X362855290Y-71267260D02*
X362950528Y-71219641D01*
X362998147Y-71172022D01*
X363045766Y-71076784D01*
X363045766Y-71029165D01*
X362998147Y-70933927D01*
X362950528Y-70886308D01*
X362855290Y-70838688D01*
X362664814Y-70838688D01*
X362569576Y-70886308D01*
X362521957Y-70933927D01*
X362474338Y-71029165D01*
X362474338Y-71076784D01*
X362521957Y-71172022D01*
X362569576Y-71219641D01*
X362664814Y-71267260D01*
X362855290Y-71267260D01*
X362950528Y-71314879D01*
X362998147Y-71362498D01*
X363045766Y-71457736D01*
X363045766Y-71648212D01*
X362998147Y-71743450D01*
X362950528Y-71791069D01*
X362855290Y-71838688D01*
X362664814Y-71838688D01*
X362569576Y-71791069D01*
X362521957Y-71743450D01*
X362474338Y-71648212D01*
X362474338Y-71457736D01*
X362521957Y-71362498D01*
X362569576Y-71314879D01*
X362664814Y-71267260D01*
G04 #@! TO.C,R1*
X358145017Y-67770443D02*
X358145017Y-67313301D01*
X358145017Y-67541872D02*
X357345017Y-67541872D01*
X357459303Y-67465682D01*
X357535493Y-67389491D01*
X357573589Y-67313301D01*
X358145017Y-68113301D02*
X357345017Y-68113301D01*
X357840255Y-68189491D02*
X358145017Y-68418062D01*
X357611684Y-68418062D02*
X357916446Y-68113301D01*
G04 #@! TO.C,RSW1*
X333064752Y-65760177D02*
X332921895Y-65807796D01*
X332683800Y-65807796D01*
X332588562Y-65760177D01*
X332540943Y-65712558D01*
X332493324Y-65617320D01*
X332493324Y-65522082D01*
X332540943Y-65426844D01*
X332588562Y-65379225D01*
X332683800Y-65331606D01*
X332874276Y-65283987D01*
X332969514Y-65236368D01*
X333017133Y-65188749D01*
X333064752Y-65093511D01*
X333064752Y-64998273D01*
X333017133Y-64903035D01*
X332969514Y-64855416D01*
X332874276Y-64807796D01*
X332636181Y-64807796D01*
X332493324Y-64855416D01*
X332159990Y-64807796D02*
X331921895Y-65807796D01*
X331731419Y-65093511D01*
X331540943Y-65807796D01*
X331302848Y-64807796D01*
X331159990Y-65903035D02*
X330398086Y-65903035D01*
X330159990Y-65807796D02*
X330159990Y-64807796D01*
X329779038Y-64807796D01*
X329683800Y-64855416D01*
X329636181Y-64903035D01*
X329588562Y-64998273D01*
X329588562Y-65141130D01*
X329636181Y-65236368D01*
X329683800Y-65283987D01*
X329779038Y-65331606D01*
X330159990Y-65331606D01*
X329159990Y-64807796D02*
X329159990Y-65617320D01*
X329112371Y-65712558D01*
X329064752Y-65760177D01*
X328969514Y-65807796D01*
X328779038Y-65807796D01*
X328683800Y-65760177D01*
X328636181Y-65712558D01*
X328588562Y-65617320D01*
X328588562Y-64807796D01*
X328159990Y-65760177D02*
X328017133Y-65807796D01*
X327779038Y-65807796D01*
X327683800Y-65760177D01*
X327636181Y-65712558D01*
X327588562Y-65617320D01*
X327588562Y-65522082D01*
X327636181Y-65426844D01*
X327683800Y-65379225D01*
X327779038Y-65331606D01*
X327969514Y-65283987D01*
X328064752Y-65236368D01*
X328112371Y-65188749D01*
X328159990Y-65093511D01*
X328159990Y-64998273D01*
X328112371Y-64903035D01*
X328064752Y-64855416D01*
X327969514Y-64807796D01*
X327731419Y-64807796D01*
X327588562Y-64855416D01*
X327159990Y-65807796D02*
X327159990Y-64807796D01*
X327159990Y-65283987D02*
X326588562Y-65283987D01*
X326588562Y-65807796D02*
X326588562Y-64807796D01*
G04 #@! TO.C,U1*
X339047473Y-102772857D02*
X338933187Y-102810952D01*
X338895092Y-102849047D01*
X338856997Y-102925238D01*
X338856997Y-103039523D01*
X338895092Y-103115714D01*
X338933187Y-103153809D01*
X339009378Y-103191904D01*
X339314140Y-103191904D01*
X339314140Y-102391904D01*
X339047473Y-102391904D01*
X338971283Y-102430000D01*
X338933187Y-102468095D01*
X338895092Y-102544285D01*
X338895092Y-102620476D01*
X338933187Y-102696666D01*
X338971283Y-102734761D01*
X339047473Y-102772857D01*
X339314140Y-102772857D01*
X338552235Y-102468095D02*
X338514140Y-102430000D01*
X338437949Y-102391904D01*
X338247473Y-102391904D01*
X338171283Y-102430000D01*
X338133187Y-102468095D01*
X338095092Y-102544285D01*
X338095092Y-102620476D01*
X338133187Y-102734761D01*
X338590330Y-103191904D01*
X338095092Y-103191904D01*
X338990330Y-95152857D02*
X339256997Y-95152857D01*
X339256997Y-95571904D02*
X339256997Y-94771904D01*
X338876044Y-94771904D01*
X338647473Y-94771904D02*
X338114140Y-94771904D01*
X338456997Y-95571904D01*
X338990330Y-92612857D02*
X339256997Y-92612857D01*
X339256997Y-93031904D02*
X339256997Y-92231904D01*
X338876044Y-92231904D01*
X338228425Y-92231904D02*
X338380806Y-92231904D01*
X338456997Y-92270000D01*
X338495092Y-92308095D01*
X338571283Y-92422380D01*
X338609378Y-92574761D01*
X338609378Y-92879523D01*
X338571283Y-92955714D01*
X338533187Y-92993809D01*
X338456997Y-93031904D01*
X338304616Y-93031904D01*
X338228425Y-92993809D01*
X338190330Y-92955714D01*
X338152235Y-92879523D01*
X338152235Y-92689047D01*
X338190330Y-92612857D01*
X338228425Y-92574761D01*
X338304616Y-92536666D01*
X338456997Y-92536666D01*
X338533187Y-92574761D01*
X338571283Y-92612857D01*
X338609378Y-92689047D01*
X338990330Y-90072857D02*
X339256997Y-90072857D01*
X339256997Y-90491904D02*
X339256997Y-89691904D01*
X338876044Y-89691904D01*
X338190330Y-89691904D02*
X338571283Y-89691904D01*
X338609378Y-90072857D01*
X338571283Y-90034761D01*
X338495092Y-89996666D01*
X338304616Y-89996666D01*
X338228425Y-90034761D01*
X338190330Y-90072857D01*
X338152235Y-90149047D01*
X338152235Y-90339523D01*
X338190330Y-90415714D01*
X338228425Y-90453809D01*
X338304616Y-90491904D01*
X338495092Y-90491904D01*
X338571283Y-90453809D01*
X338609378Y-90415714D01*
X339276044Y-77791904D02*
X339542711Y-77410952D01*
X339733187Y-77791904D02*
X339733187Y-76991904D01*
X339428425Y-76991904D01*
X339352235Y-77030000D01*
X339314140Y-77068095D01*
X339276044Y-77144285D01*
X339276044Y-77258571D01*
X339314140Y-77334761D01*
X339352235Y-77372857D01*
X339428425Y-77410952D01*
X339733187Y-77410952D01*
X338971283Y-77563333D02*
X338590330Y-77563333D01*
X339047473Y-77791904D02*
X338780806Y-76991904D01*
X338514140Y-77791904D01*
X338323664Y-76991904D02*
X338133187Y-77791904D01*
X337980806Y-77220476D01*
X337828425Y-77791904D01*
X337637949Y-76991904D01*
X339333187Y-79570000D02*
X339409378Y-79531904D01*
X339523664Y-79531904D01*
X339637949Y-79570000D01*
X339714140Y-79646190D01*
X339752235Y-79722380D01*
X339790330Y-79874761D01*
X339790330Y-79989047D01*
X339752235Y-80141428D01*
X339714140Y-80217619D01*
X339637949Y-80293809D01*
X339523664Y-80331904D01*
X339447473Y-80331904D01*
X339333187Y-80293809D01*
X339295092Y-80255714D01*
X339295092Y-79989047D01*
X339447473Y-79989047D01*
X338952235Y-80331904D02*
X338952235Y-79531904D01*
X338495092Y-80331904D01*
X338495092Y-79531904D01*
X338114140Y-80331904D02*
X338114140Y-79531904D01*
X337923664Y-79531904D01*
X337809378Y-79570000D01*
X337733187Y-79646190D01*
X337695092Y-79722380D01*
X337656997Y-79874761D01*
X337656997Y-79989047D01*
X337695092Y-80141428D01*
X337733187Y-80217619D01*
X337809378Y-80293809D01*
X337923664Y-80331904D01*
X338114140Y-80331904D01*
X338984877Y-82803809D02*
X338870591Y-82841904D01*
X338680115Y-82841904D01*
X338603924Y-82803809D01*
X338565829Y-82765714D01*
X338527734Y-82689523D01*
X338527734Y-82613333D01*
X338565829Y-82537142D01*
X338603924Y-82499047D01*
X338680115Y-82460952D01*
X338832496Y-82422857D01*
X338908686Y-82384761D01*
X338946782Y-82346666D01*
X338984877Y-82270476D01*
X338984877Y-82194285D01*
X338946782Y-82118095D01*
X338908686Y-82080000D01*
X338832496Y-82041904D01*
X338642020Y-82041904D01*
X338527734Y-82080000D01*
X338299163Y-82041904D02*
X337842020Y-82041904D01*
X338070591Y-82841904D02*
X338070591Y-82041904D01*
X339790330Y-84611904D02*
X339523664Y-85411904D01*
X339256997Y-84611904D01*
X338533187Y-85335714D02*
X338571283Y-85373809D01*
X338685568Y-85411904D01*
X338761759Y-85411904D01*
X338876044Y-85373809D01*
X338952235Y-85297619D01*
X338990330Y-85221428D01*
X339028425Y-85069047D01*
X339028425Y-84954761D01*
X338990330Y-84802380D01*
X338952235Y-84726190D01*
X338876044Y-84650000D01*
X338761759Y-84611904D01*
X338685568Y-84611904D01*
X338571283Y-84650000D01*
X338533187Y-84688095D01*
X337733187Y-85335714D02*
X337771283Y-85373809D01*
X337885568Y-85411904D01*
X337961759Y-85411904D01*
X338076044Y-85373809D01*
X338152235Y-85297619D01*
X338190330Y-85221428D01*
X338228425Y-85069047D01*
X338228425Y-84954761D01*
X338190330Y-84802380D01*
X338152235Y-84726190D01*
X338076044Y-84650000D01*
X337961759Y-84611904D01*
X337885568Y-84611904D01*
X337771283Y-84650000D01*
X337733187Y-84688095D01*
X338990330Y-87532857D02*
X339256997Y-87532857D01*
X339256997Y-87951904D02*
X339256997Y-87151904D01*
X338876044Y-87151904D01*
X338228425Y-87418571D02*
X338228425Y-87951904D01*
X338418902Y-87113809D02*
X338609378Y-87685238D01*
X338114140Y-87685238D01*
X339047473Y-97692857D02*
X338933187Y-97730952D01*
X338895092Y-97769047D01*
X338856997Y-97845238D01*
X338856997Y-97959523D01*
X338895092Y-98035714D01*
X338933187Y-98073809D01*
X339009378Y-98111904D01*
X339314140Y-98111904D01*
X339314140Y-97311904D01*
X339047473Y-97311904D01*
X338971283Y-97350000D01*
X338933187Y-97388095D01*
X338895092Y-97464285D01*
X338895092Y-97540476D01*
X338933187Y-97616666D01*
X338971283Y-97654761D01*
X339047473Y-97692857D01*
X339314140Y-97692857D01*
X338095092Y-98111904D02*
X338552235Y-98111904D01*
X338323664Y-98111904D02*
X338323664Y-97311904D01*
X338399854Y-97426190D01*
X338476044Y-97502380D01*
X338552235Y-97540476D01*
X339047473Y-100232857D02*
X338933187Y-100270952D01*
X338895092Y-100309047D01*
X338856997Y-100385238D01*
X338856997Y-100499523D01*
X338895092Y-100575714D01*
X338933187Y-100613809D01*
X339009378Y-100651904D01*
X339314140Y-100651904D01*
X339314140Y-99851904D01*
X339047473Y-99851904D01*
X338971283Y-99890000D01*
X338933187Y-99928095D01*
X338895092Y-100004285D01*
X338895092Y-100080476D01*
X338933187Y-100156666D01*
X338971283Y-100194761D01*
X339047473Y-100232857D01*
X339314140Y-100232857D01*
X338590330Y-99851904D02*
X338095092Y-99851904D01*
X338361759Y-100156666D01*
X338247473Y-100156666D01*
X338171283Y-100194761D01*
X338133187Y-100232857D01*
X338095092Y-100309047D01*
X338095092Y-100499523D01*
X338133187Y-100575714D01*
X338171283Y-100613809D01*
X338247473Y-100651904D01*
X338476044Y-100651904D01*
X338552235Y-100613809D01*
X338590330Y-100575714D01*
X339047473Y-105312857D02*
X338933187Y-105350952D01*
X338895092Y-105389047D01*
X338856997Y-105465238D01*
X338856997Y-105579523D01*
X338895092Y-105655714D01*
X338933187Y-105693809D01*
X339009378Y-105731904D01*
X339314140Y-105731904D01*
X339314140Y-104931904D01*
X339047473Y-104931904D01*
X338971283Y-104970000D01*
X338933187Y-105008095D01*
X338895092Y-105084285D01*
X338895092Y-105160476D01*
X338933187Y-105236666D01*
X338971283Y-105274761D01*
X339047473Y-105312857D01*
X339314140Y-105312857D01*
X338171283Y-104931904D02*
X338323664Y-104931904D01*
X338399854Y-104970000D01*
X338437949Y-105008095D01*
X338514140Y-105122380D01*
X338552235Y-105274761D01*
X338552235Y-105579523D01*
X338514140Y-105655714D01*
X338476044Y-105693809D01*
X338399854Y-105731904D01*
X338247473Y-105731904D01*
X338171283Y-105693809D01*
X338133187Y-105655714D01*
X338095092Y-105579523D01*
X338095092Y-105389047D01*
X338133187Y-105312857D01*
X338171283Y-105274761D01*
X338247473Y-105236666D01*
X338399854Y-105236666D01*
X338476044Y-105274761D01*
X338514140Y-105312857D01*
X338552235Y-105389047D01*
X349969473Y-105312857D02*
X349855187Y-105350952D01*
X349817092Y-105389047D01*
X349778997Y-105465238D01*
X349778997Y-105579523D01*
X349817092Y-105655714D01*
X349855187Y-105693809D01*
X349931378Y-105731904D01*
X350236140Y-105731904D01*
X350236140Y-104931904D01*
X349969473Y-104931904D01*
X349893283Y-104970000D01*
X349855187Y-105008095D01*
X349817092Y-105084285D01*
X349817092Y-105160476D01*
X349855187Y-105236666D01*
X349893283Y-105274761D01*
X349969473Y-105312857D01*
X350236140Y-105312857D01*
X349055187Y-104931904D02*
X349436140Y-104931904D01*
X349474235Y-105312857D01*
X349436140Y-105274761D01*
X349359949Y-105236666D01*
X349169473Y-105236666D01*
X349093283Y-105274761D01*
X349055187Y-105312857D01*
X349017092Y-105389047D01*
X349017092Y-105579523D01*
X349055187Y-105655714D01*
X349093283Y-105693809D01*
X349169473Y-105731904D01*
X349359949Y-105731904D01*
X349436140Y-105693809D01*
X349474235Y-105655714D01*
X349969473Y-102772857D02*
X349855187Y-102810952D01*
X349817092Y-102849047D01*
X349778997Y-102925238D01*
X349778997Y-103039523D01*
X349817092Y-103115714D01*
X349855187Y-103153809D01*
X349931378Y-103191904D01*
X350236140Y-103191904D01*
X350236140Y-102391904D01*
X349969473Y-102391904D01*
X349893283Y-102430000D01*
X349855187Y-102468095D01*
X349817092Y-102544285D01*
X349817092Y-102620476D01*
X349855187Y-102696666D01*
X349893283Y-102734761D01*
X349969473Y-102772857D01*
X350236140Y-102772857D01*
X349093283Y-102658571D02*
X349093283Y-103191904D01*
X349283759Y-102353809D02*
X349474235Y-102925238D01*
X348978997Y-102925238D01*
X350198044Y-100232857D02*
X349931378Y-100232857D01*
X349817092Y-100651904D02*
X350198044Y-100651904D01*
X350198044Y-99851904D01*
X349817092Y-99851904D01*
X349131378Y-99851904D02*
X349283759Y-99851904D01*
X349359949Y-99890000D01*
X349398044Y-99928095D01*
X349474235Y-100042380D01*
X349512330Y-100194761D01*
X349512330Y-100499523D01*
X349474235Y-100575714D01*
X349436140Y-100613809D01*
X349359949Y-100651904D01*
X349207568Y-100651904D01*
X349131378Y-100613809D01*
X349093283Y-100575714D01*
X349055187Y-100499523D01*
X349055187Y-100309047D01*
X349093283Y-100232857D01*
X349131378Y-100194761D01*
X349207568Y-100156666D01*
X349359949Y-100156666D01*
X349436140Y-100194761D01*
X349474235Y-100232857D01*
X349512330Y-100309047D01*
X350236140Y-98111904D02*
X350236140Y-97311904D01*
X350045664Y-97311904D01*
X349931378Y-97350000D01*
X349855187Y-97426190D01*
X349817092Y-97502380D01*
X349778997Y-97654761D01*
X349778997Y-97769047D01*
X349817092Y-97921428D01*
X349855187Y-97997619D01*
X349931378Y-98073809D01*
X350045664Y-98111904D01*
X350236140Y-98111904D01*
X349512330Y-97311904D02*
X348978997Y-97311904D01*
X349321854Y-98111904D01*
X349778997Y-95495714D02*
X349817092Y-95533809D01*
X349931378Y-95571904D01*
X350007568Y-95571904D01*
X350121854Y-95533809D01*
X350198044Y-95457619D01*
X350236140Y-95381428D01*
X350274235Y-95229047D01*
X350274235Y-95114761D01*
X350236140Y-94962380D01*
X350198044Y-94886190D01*
X350121854Y-94810000D01*
X350007568Y-94771904D01*
X349931378Y-94771904D01*
X349817092Y-94810000D01*
X349778997Y-94848095D01*
X349093283Y-94771904D02*
X349245664Y-94771904D01*
X349321854Y-94810000D01*
X349359949Y-94848095D01*
X349436140Y-94962380D01*
X349474235Y-95114761D01*
X349474235Y-95419523D01*
X349436140Y-95495714D01*
X349398044Y-95533809D01*
X349321854Y-95571904D01*
X349169473Y-95571904D01*
X349093283Y-95533809D01*
X349055187Y-95495714D01*
X349017092Y-95419523D01*
X349017092Y-95229047D01*
X349055187Y-95152857D01*
X349093283Y-95114761D01*
X349169473Y-95076666D01*
X349321854Y-95076666D01*
X349398044Y-95114761D01*
X349436140Y-95152857D01*
X349474235Y-95229047D01*
X350236140Y-93031904D02*
X350236140Y-92231904D01*
X350045664Y-92231904D01*
X349931378Y-92270000D01*
X349855187Y-92346190D01*
X349817092Y-92422380D01*
X349778997Y-92574761D01*
X349778997Y-92689047D01*
X349817092Y-92841428D01*
X349855187Y-92917619D01*
X349931378Y-92993809D01*
X350045664Y-93031904D01*
X350236140Y-93031904D01*
X349093283Y-92498571D02*
X349093283Y-93031904D01*
X349283759Y-92193809D02*
X349474235Y-92765238D01*
X348978997Y-92765238D01*
X350255187Y-82110000D02*
X350331378Y-82071904D01*
X350445664Y-82071904D01*
X350559949Y-82110000D01*
X350636140Y-82186190D01*
X350674235Y-82262380D01*
X350712330Y-82414761D01*
X350712330Y-82529047D01*
X350674235Y-82681428D01*
X350636140Y-82757619D01*
X350559949Y-82833809D01*
X350445664Y-82871904D01*
X350369473Y-82871904D01*
X350255187Y-82833809D01*
X350217092Y-82795714D01*
X350217092Y-82529047D01*
X350369473Y-82529047D01*
X349874235Y-82871904D02*
X349874235Y-82071904D01*
X349417092Y-82871904D01*
X349417092Y-82071904D01*
X349036140Y-82871904D02*
X349036140Y-82071904D01*
X348845664Y-82071904D01*
X348731378Y-82110000D01*
X348655187Y-82186190D01*
X348617092Y-82262380D01*
X348578997Y-82414761D01*
X348578997Y-82529047D01*
X348617092Y-82681428D01*
X348655187Y-82757619D01*
X348731378Y-82833809D01*
X348845664Y-82871904D01*
X349036140Y-82871904D01*
X350255187Y-84650000D02*
X350331378Y-84611904D01*
X350445664Y-84611904D01*
X350559949Y-84650000D01*
X350636140Y-84726190D01*
X350674235Y-84802380D01*
X350712330Y-84954761D01*
X350712330Y-85069047D01*
X350674235Y-85221428D01*
X350636140Y-85297619D01*
X350559949Y-85373809D01*
X350445664Y-85411904D01*
X350369473Y-85411904D01*
X350255187Y-85373809D01*
X350217092Y-85335714D01*
X350217092Y-85069047D01*
X350369473Y-85069047D01*
X349874235Y-85411904D02*
X349874235Y-84611904D01*
X349417092Y-85411904D01*
X349417092Y-84611904D01*
X349036140Y-85411904D02*
X349036140Y-84611904D01*
X348845664Y-84611904D01*
X348731378Y-84650000D01*
X348655187Y-84726190D01*
X348617092Y-84802380D01*
X348578997Y-84954761D01*
X348578997Y-85069047D01*
X348617092Y-85221428D01*
X348655187Y-85297619D01*
X348731378Y-85373809D01*
X348845664Y-85411904D01*
X349036140Y-85411904D01*
X350236140Y-87951904D02*
X350236140Y-87151904D01*
X350045664Y-87151904D01*
X349931378Y-87190000D01*
X349855187Y-87266190D01*
X349817092Y-87342380D01*
X349778997Y-87494761D01*
X349778997Y-87609047D01*
X349817092Y-87761428D01*
X349855187Y-87837619D01*
X349931378Y-87913809D01*
X350045664Y-87951904D01*
X350236140Y-87951904D01*
X349017092Y-87951904D02*
X349474235Y-87951904D01*
X349245664Y-87951904D02*
X349245664Y-87151904D01*
X349321854Y-87266190D01*
X349398044Y-87342380D01*
X349474235Y-87380476D01*
X350236140Y-90491904D02*
X350236140Y-89691904D01*
X350045664Y-89691904D01*
X349931378Y-89730000D01*
X349855187Y-89806190D01*
X349817092Y-89882380D01*
X349778997Y-90034761D01*
X349778997Y-90149047D01*
X349817092Y-90301428D01*
X349855187Y-90377619D01*
X349931378Y-90453809D01*
X350045664Y-90491904D01*
X350236140Y-90491904D01*
X349283759Y-89691904D02*
X349207568Y-89691904D01*
X349131378Y-89730000D01*
X349093283Y-89768095D01*
X349055187Y-89844285D01*
X349017092Y-89996666D01*
X349017092Y-90187142D01*
X349055187Y-90339523D01*
X349093283Y-90415714D01*
X349131378Y-90453809D01*
X349207568Y-90491904D01*
X349283759Y-90491904D01*
X349359949Y-90453809D01*
X349398044Y-90415714D01*
X349436140Y-90339523D01*
X349474235Y-90187142D01*
X349474235Y-89996666D01*
X349436140Y-89844285D01*
X349398044Y-89768095D01*
X349359949Y-89730000D01*
X349283759Y-89691904D01*
X350236140Y-80331904D02*
X350236140Y-79531904D01*
X350045664Y-79531904D01*
X349931378Y-79570000D01*
X349855187Y-79646190D01*
X349817092Y-79722380D01*
X349778997Y-79874761D01*
X349778997Y-79989047D01*
X349817092Y-80141428D01*
X349855187Y-80217619D01*
X349931378Y-80293809D01*
X350045664Y-80331904D01*
X350236140Y-80331904D01*
X349474235Y-79608095D02*
X349436140Y-79570000D01*
X349359949Y-79531904D01*
X349169473Y-79531904D01*
X349093283Y-79570000D01*
X349055187Y-79608095D01*
X349017092Y-79684285D01*
X349017092Y-79760476D01*
X349055187Y-79874761D01*
X349512330Y-80331904D01*
X349017092Y-80331904D01*
X349947012Y-76991904D02*
X349489869Y-76991904D01*
X349718440Y-77791904D02*
X349718440Y-76991904D01*
X349299393Y-76991904D02*
X348766059Y-77791904D01*
X348766059Y-76991904D02*
X349299393Y-77791904D01*
X348308916Y-76991904D02*
X348232726Y-76991904D01*
X348156536Y-77030000D01*
X348118440Y-77068095D01*
X348080345Y-77144285D01*
X348042250Y-77296666D01*
X348042250Y-77487142D01*
X348080345Y-77639523D01*
X348118440Y-77715714D01*
X348156536Y-77753809D01*
X348232726Y-77791904D01*
X348308916Y-77791904D01*
X348385107Y-77753809D01*
X348423202Y-77715714D01*
X348461297Y-77639523D01*
X348499393Y-77487142D01*
X348499393Y-77296666D01*
X348461297Y-77144285D01*
X348423202Y-77068095D01*
X348385107Y-77030000D01*
X348308916Y-76991904D01*
X347127964Y-76953809D02*
X347813678Y-77982380D01*
X346861297Y-77791904D02*
X346861297Y-76991904D01*
X346670821Y-76991904D01*
X346556536Y-77030000D01*
X346480345Y-77106190D01*
X346442250Y-77182380D01*
X346404155Y-77334761D01*
X346404155Y-77449047D01*
X346442250Y-77601428D01*
X346480345Y-77677619D01*
X346556536Y-77753809D01*
X346670821Y-77791904D01*
X346861297Y-77791904D01*
X346137488Y-76991904D02*
X345642250Y-76991904D01*
X345908916Y-77296666D01*
X345794631Y-77296666D01*
X345718440Y-77334761D01*
X345680345Y-77372857D01*
X345642250Y-77449047D01*
X345642250Y-77639523D01*
X345680345Y-77715714D01*
X345718440Y-77753809D01*
X345794631Y-77791904D01*
X346023202Y-77791904D01*
X346099393Y-77753809D01*
X346137488Y-77715714D01*
G04 #@! TO.C,D64*
X106877644Y-160123774D02*
X106077644Y-160123774D01*
X106077644Y-160314250D01*
X106115740Y-160428536D01*
X106191930Y-160504726D01*
X106268120Y-160542822D01*
X106420501Y-160580917D01*
X106534787Y-160580917D01*
X106687168Y-160542822D01*
X106763359Y-160504726D01*
X106839549Y-160428536D01*
X106877644Y-160314250D01*
X106877644Y-160123774D01*
X106077644Y-161266631D02*
X106077644Y-161114250D01*
X106115740Y-161038060D01*
X106153835Y-160999964D01*
X106268120Y-160923774D01*
X106420501Y-160885679D01*
X106725263Y-160885679D01*
X106801454Y-160923774D01*
X106839549Y-160961869D01*
X106877644Y-161038060D01*
X106877644Y-161190441D01*
X106839549Y-161266631D01*
X106801454Y-161304726D01*
X106725263Y-161342822D01*
X106534787Y-161342822D01*
X106458597Y-161304726D01*
X106420501Y-161266631D01*
X106382406Y-161190441D01*
X106382406Y-161038060D01*
X106420501Y-160961869D01*
X106458597Y-160923774D01*
X106534787Y-160885679D01*
X106344311Y-162028536D02*
X106877644Y-162028536D01*
X106039549Y-161838060D02*
X106610978Y-161647583D01*
X106610978Y-162142822D01*
G04 #@! TO.C,D65*
X152121394Y-160123774D02*
X151321394Y-160123774D01*
X151321394Y-160314250D01*
X151359490Y-160428536D01*
X151435680Y-160504726D01*
X151511870Y-160542822D01*
X151664251Y-160580917D01*
X151778537Y-160580917D01*
X151930918Y-160542822D01*
X152007109Y-160504726D01*
X152083299Y-160428536D01*
X152121394Y-160314250D01*
X152121394Y-160123774D01*
X151321394Y-161266631D02*
X151321394Y-161114250D01*
X151359490Y-161038060D01*
X151397585Y-160999964D01*
X151511870Y-160923774D01*
X151664251Y-160885679D01*
X151969013Y-160885679D01*
X152045204Y-160923774D01*
X152083299Y-160961869D01*
X152121394Y-161038060D01*
X152121394Y-161190441D01*
X152083299Y-161266631D01*
X152045204Y-161304726D01*
X151969013Y-161342822D01*
X151778537Y-161342822D01*
X151702347Y-161304726D01*
X151664251Y-161266631D01*
X151626156Y-161190441D01*
X151626156Y-161038060D01*
X151664251Y-160961869D01*
X151702347Y-160923774D01*
X151778537Y-160885679D01*
X151321394Y-162066631D02*
X151321394Y-161685679D01*
X151702347Y-161647583D01*
X151664251Y-161685679D01*
X151626156Y-161761869D01*
X151626156Y-161952345D01*
X151664251Y-162028536D01*
X151702347Y-162066631D01*
X151778537Y-162104726D01*
X151969013Y-162104726D01*
X152045204Y-162066631D01*
X152083299Y-162028536D01*
X152121394Y-161952345D01*
X152121394Y-161761869D01*
X152083299Y-161685679D01*
X152045204Y-161647583D01*
G04 #@! TO.C,D66*
X197365144Y-160123774D02*
X196565144Y-160123774D01*
X196565144Y-160314250D01*
X196603240Y-160428536D01*
X196679430Y-160504726D01*
X196755620Y-160542822D01*
X196908001Y-160580917D01*
X197022287Y-160580917D01*
X197174668Y-160542822D01*
X197250859Y-160504726D01*
X197327049Y-160428536D01*
X197365144Y-160314250D01*
X197365144Y-160123774D01*
X196565144Y-161266631D02*
X196565144Y-161114250D01*
X196603240Y-161038060D01*
X196641335Y-160999964D01*
X196755620Y-160923774D01*
X196908001Y-160885679D01*
X197212763Y-160885679D01*
X197288954Y-160923774D01*
X197327049Y-160961869D01*
X197365144Y-161038060D01*
X197365144Y-161190441D01*
X197327049Y-161266631D01*
X197288954Y-161304726D01*
X197212763Y-161342822D01*
X197022287Y-161342822D01*
X196946097Y-161304726D01*
X196908001Y-161266631D01*
X196869906Y-161190441D01*
X196869906Y-161038060D01*
X196908001Y-160961869D01*
X196946097Y-160923774D01*
X197022287Y-160885679D01*
X196565144Y-162028536D02*
X196565144Y-161876155D01*
X196603240Y-161799964D01*
X196641335Y-161761869D01*
X196755620Y-161685679D01*
X196908001Y-161647583D01*
X197212763Y-161647583D01*
X197288954Y-161685679D01*
X197327049Y-161723774D01*
X197365144Y-161799964D01*
X197365144Y-161952345D01*
X197327049Y-162028536D01*
X197288954Y-162066631D01*
X197212763Y-162104726D01*
X197022287Y-162104726D01*
X196946097Y-162066631D01*
X196908001Y-162028536D01*
X196869906Y-161952345D01*
X196869906Y-161799964D01*
X196908001Y-161723774D01*
X196946097Y-161685679D01*
X197022287Y-161647583D01*
G04 #@! TO.C,D67*
X223558968Y-160124022D02*
X222758968Y-160124022D01*
X222758968Y-160314498D01*
X222797064Y-160428784D01*
X222873254Y-160504974D01*
X222949444Y-160543070D01*
X223101825Y-160581165D01*
X223216111Y-160581165D01*
X223368492Y-160543070D01*
X223444683Y-160504974D01*
X223520873Y-160428784D01*
X223558968Y-160314498D01*
X223558968Y-160124022D01*
X222758968Y-161266879D02*
X222758968Y-161114498D01*
X222797064Y-161038308D01*
X222835159Y-161000212D01*
X222949444Y-160924022D01*
X223101825Y-160885927D01*
X223406587Y-160885927D01*
X223482778Y-160924022D01*
X223520873Y-160962117D01*
X223558968Y-161038308D01*
X223558968Y-161190689D01*
X223520873Y-161266879D01*
X223482778Y-161304974D01*
X223406587Y-161343070D01*
X223216111Y-161343070D01*
X223139921Y-161304974D01*
X223101825Y-161266879D01*
X223063730Y-161190689D01*
X223063730Y-161038308D01*
X223101825Y-160962117D01*
X223139921Y-160924022D01*
X223216111Y-160885927D01*
X222758968Y-161609736D02*
X222758968Y-162143070D01*
X223558968Y-161800212D01*
G04 #@! TO.C,D1*
X56871394Y-84304726D02*
X56071394Y-84304726D01*
X56071394Y-84495203D01*
X56109490Y-84609488D01*
X56185680Y-84685679D01*
X56261870Y-84723774D01*
X56414251Y-84761869D01*
X56528537Y-84761869D01*
X56680918Y-84723774D01*
X56757109Y-84685679D01*
X56833299Y-84609488D01*
X56871394Y-84495203D01*
X56871394Y-84304726D01*
X56871394Y-85523774D02*
X56871394Y-85066631D01*
X56871394Y-85295203D02*
X56071394Y-85295203D01*
X56185680Y-85219012D01*
X56261870Y-85142822D01*
X56299966Y-85066631D01*
G04 #@! TO.C,D2*
X75921394Y-84304726D02*
X75121394Y-84304726D01*
X75121394Y-84495203D01*
X75159490Y-84609488D01*
X75235680Y-84685679D01*
X75311870Y-84723774D01*
X75464251Y-84761869D01*
X75578537Y-84761869D01*
X75730918Y-84723774D01*
X75807109Y-84685679D01*
X75883299Y-84609488D01*
X75921394Y-84495203D01*
X75921394Y-84304726D01*
X75197585Y-85066631D02*
X75159490Y-85104726D01*
X75121394Y-85180917D01*
X75121394Y-85371393D01*
X75159490Y-85447583D01*
X75197585Y-85485679D01*
X75273775Y-85523774D01*
X75349966Y-85523774D01*
X75464251Y-85485679D01*
X75921394Y-85028536D01*
X75921394Y-85523774D01*
G04 #@! TO.C,D3*
X94971394Y-84304726D02*
X94171394Y-84304726D01*
X94171394Y-84495203D01*
X94209490Y-84609488D01*
X94285680Y-84685679D01*
X94361870Y-84723774D01*
X94514251Y-84761869D01*
X94628537Y-84761869D01*
X94780918Y-84723774D01*
X94857109Y-84685679D01*
X94933299Y-84609488D01*
X94971394Y-84495203D01*
X94971394Y-84304726D01*
X94171394Y-85028536D02*
X94171394Y-85523774D01*
X94476156Y-85257107D01*
X94476156Y-85371393D01*
X94514251Y-85447583D01*
X94552347Y-85485679D01*
X94628537Y-85523774D01*
X94819013Y-85523774D01*
X94895204Y-85485679D01*
X94933299Y-85447583D01*
X94971394Y-85371393D01*
X94971394Y-85142822D01*
X94933299Y-85066631D01*
X94895204Y-85028536D01*
G04 #@! TO.C,D4*
X114021394Y-84304726D02*
X113221394Y-84304726D01*
X113221394Y-84495203D01*
X113259490Y-84609488D01*
X113335680Y-84685679D01*
X113411870Y-84723774D01*
X113564251Y-84761869D01*
X113678537Y-84761869D01*
X113830918Y-84723774D01*
X113907109Y-84685679D01*
X113983299Y-84609488D01*
X114021394Y-84495203D01*
X114021394Y-84304726D01*
X113488061Y-85447583D02*
X114021394Y-85447583D01*
X113183299Y-85257107D02*
X113754728Y-85066631D01*
X113754728Y-85561869D01*
G04 #@! TO.C,D5*
X133071394Y-84304726D02*
X132271394Y-84304726D01*
X132271394Y-84495203D01*
X132309490Y-84609488D01*
X132385680Y-84685679D01*
X132461870Y-84723774D01*
X132614251Y-84761869D01*
X132728537Y-84761869D01*
X132880918Y-84723774D01*
X132957109Y-84685679D01*
X133033299Y-84609488D01*
X133071394Y-84495203D01*
X133071394Y-84304726D01*
X132271394Y-85485679D02*
X132271394Y-85104726D01*
X132652347Y-85066631D01*
X132614251Y-85104726D01*
X132576156Y-85180917D01*
X132576156Y-85371393D01*
X132614251Y-85447583D01*
X132652347Y-85485679D01*
X132728537Y-85523774D01*
X132919013Y-85523774D01*
X132995204Y-85485679D01*
X133033299Y-85447583D01*
X133071394Y-85371393D01*
X133071394Y-85180917D01*
X133033299Y-85104726D01*
X132995204Y-85066631D01*
G04 #@! TO.C,D6*
X152121394Y-84304726D02*
X151321394Y-84304726D01*
X151321394Y-84495203D01*
X151359490Y-84609488D01*
X151435680Y-84685679D01*
X151511870Y-84723774D01*
X151664251Y-84761869D01*
X151778537Y-84761869D01*
X151930918Y-84723774D01*
X152007109Y-84685679D01*
X152083299Y-84609488D01*
X152121394Y-84495203D01*
X152121394Y-84304726D01*
X151321394Y-85447583D02*
X151321394Y-85295203D01*
X151359490Y-85219012D01*
X151397585Y-85180917D01*
X151511870Y-85104726D01*
X151664251Y-85066631D01*
X151969013Y-85066631D01*
X152045204Y-85104726D01*
X152083299Y-85142822D01*
X152121394Y-85219012D01*
X152121394Y-85371393D01*
X152083299Y-85447583D01*
X152045204Y-85485679D01*
X151969013Y-85523774D01*
X151778537Y-85523774D01*
X151702347Y-85485679D01*
X151664251Y-85447583D01*
X151626156Y-85371393D01*
X151626156Y-85219012D01*
X151664251Y-85142822D01*
X151702347Y-85104726D01*
X151778537Y-85066631D01*
G04 #@! TO.C,D7*
X171171394Y-84304726D02*
X170371394Y-84304726D01*
X170371394Y-84495203D01*
X170409490Y-84609488D01*
X170485680Y-84685679D01*
X170561870Y-84723774D01*
X170714251Y-84761869D01*
X170828537Y-84761869D01*
X170980918Y-84723774D01*
X171057109Y-84685679D01*
X171133299Y-84609488D01*
X171171394Y-84495203D01*
X171171394Y-84304726D01*
X170371394Y-85028536D02*
X170371394Y-85561869D01*
X171171394Y-85219012D01*
G04 #@! TO.C,D8*
X190221394Y-84304726D02*
X189421394Y-84304726D01*
X189421394Y-84495203D01*
X189459490Y-84609488D01*
X189535680Y-84685679D01*
X189611870Y-84723774D01*
X189764251Y-84761869D01*
X189878537Y-84761869D01*
X190030918Y-84723774D01*
X190107109Y-84685679D01*
X190183299Y-84609488D01*
X190221394Y-84495203D01*
X190221394Y-84304726D01*
X189764251Y-85219012D02*
X189726156Y-85142822D01*
X189688061Y-85104726D01*
X189611870Y-85066631D01*
X189573775Y-85066631D01*
X189497585Y-85104726D01*
X189459490Y-85142822D01*
X189421394Y-85219012D01*
X189421394Y-85371393D01*
X189459490Y-85447583D01*
X189497585Y-85485679D01*
X189573775Y-85523774D01*
X189611870Y-85523774D01*
X189688061Y-85485679D01*
X189726156Y-85447583D01*
X189764251Y-85371393D01*
X189764251Y-85219012D01*
X189802347Y-85142822D01*
X189840442Y-85104726D01*
X189916632Y-85066631D01*
X190069013Y-85066631D01*
X190145204Y-85104726D01*
X190183299Y-85142822D01*
X190221394Y-85219012D01*
X190221394Y-85371393D01*
X190183299Y-85447583D01*
X190145204Y-85485679D01*
X190069013Y-85523774D01*
X189916632Y-85523774D01*
X189840442Y-85485679D01*
X189802347Y-85447583D01*
X189764251Y-85371393D01*
G04 #@! TO.C,D9*
X209271394Y-84304726D02*
X208471394Y-84304726D01*
X208471394Y-84495203D01*
X208509490Y-84609488D01*
X208585680Y-84685679D01*
X208661870Y-84723774D01*
X208814251Y-84761869D01*
X208928537Y-84761869D01*
X209080918Y-84723774D01*
X209157109Y-84685679D01*
X209233299Y-84609488D01*
X209271394Y-84495203D01*
X209271394Y-84304726D01*
X209271394Y-85142822D02*
X209271394Y-85295203D01*
X209233299Y-85371393D01*
X209195204Y-85409488D01*
X209080918Y-85485679D01*
X208928537Y-85523774D01*
X208623775Y-85523774D01*
X208547585Y-85485679D01*
X208509490Y-85447583D01*
X208471394Y-85371393D01*
X208471394Y-85219012D01*
X208509490Y-85142822D01*
X208547585Y-85104726D01*
X208623775Y-85066631D01*
X208814251Y-85066631D01*
X208890442Y-85104726D01*
X208928537Y-85142822D01*
X208966632Y-85219012D01*
X208966632Y-85371393D01*
X208928537Y-85447583D01*
X208890442Y-85485679D01*
X208814251Y-85523774D01*
G04 #@! TO.C,D10*
X228321394Y-83923774D02*
X227521394Y-83923774D01*
X227521394Y-84114250D01*
X227559490Y-84228536D01*
X227635680Y-84304726D01*
X227711870Y-84342822D01*
X227864251Y-84380917D01*
X227978537Y-84380917D01*
X228130918Y-84342822D01*
X228207109Y-84304726D01*
X228283299Y-84228536D01*
X228321394Y-84114250D01*
X228321394Y-83923774D01*
X228321394Y-85142822D02*
X228321394Y-84685679D01*
X228321394Y-84914250D02*
X227521394Y-84914250D01*
X227635680Y-84838060D01*
X227711870Y-84761869D01*
X227749966Y-84685679D01*
X227521394Y-85638060D02*
X227521394Y-85714250D01*
X227559490Y-85790441D01*
X227597585Y-85828536D01*
X227673775Y-85866631D01*
X227826156Y-85904726D01*
X228016632Y-85904726D01*
X228169013Y-85866631D01*
X228245204Y-85828536D01*
X228283299Y-85790441D01*
X228321394Y-85714250D01*
X228321394Y-85638060D01*
X228283299Y-85561869D01*
X228245204Y-85523774D01*
X228169013Y-85485679D01*
X228016632Y-85447583D01*
X227826156Y-85447583D01*
X227673775Y-85485679D01*
X227597585Y-85523774D01*
X227559490Y-85561869D01*
X227521394Y-85638060D01*
G04 #@! TO.C,D11*
X247371394Y-83923774D02*
X246571394Y-83923774D01*
X246571394Y-84114250D01*
X246609490Y-84228536D01*
X246685680Y-84304726D01*
X246761870Y-84342822D01*
X246914251Y-84380917D01*
X247028537Y-84380917D01*
X247180918Y-84342822D01*
X247257109Y-84304726D01*
X247333299Y-84228536D01*
X247371394Y-84114250D01*
X247371394Y-83923774D01*
X247371394Y-85142822D02*
X247371394Y-84685679D01*
X247371394Y-84914250D02*
X246571394Y-84914250D01*
X246685680Y-84838060D01*
X246761870Y-84761869D01*
X246799966Y-84685679D01*
X247371394Y-85904726D02*
X247371394Y-85447583D01*
X247371394Y-85676155D02*
X246571394Y-85676155D01*
X246685680Y-85599964D01*
X246761870Y-85523774D01*
X246799966Y-85447583D01*
G04 #@! TO.C,D12*
X266421394Y-83923774D02*
X265621394Y-83923774D01*
X265621394Y-84114250D01*
X265659490Y-84228536D01*
X265735680Y-84304726D01*
X265811870Y-84342822D01*
X265964251Y-84380917D01*
X266078537Y-84380917D01*
X266230918Y-84342822D01*
X266307109Y-84304726D01*
X266383299Y-84228536D01*
X266421394Y-84114250D01*
X266421394Y-83923774D01*
X266421394Y-85142822D02*
X266421394Y-84685679D01*
X266421394Y-84914250D02*
X265621394Y-84914250D01*
X265735680Y-84838060D01*
X265811870Y-84761869D01*
X265849966Y-84685679D01*
X265697585Y-85447583D02*
X265659490Y-85485679D01*
X265621394Y-85561869D01*
X265621394Y-85752345D01*
X265659490Y-85828536D01*
X265697585Y-85866631D01*
X265773775Y-85904726D01*
X265849966Y-85904726D01*
X265964251Y-85866631D01*
X266421394Y-85409488D01*
X266421394Y-85904726D01*
G04 #@! TO.C,D13*
X285471394Y-83923774D02*
X284671394Y-83923774D01*
X284671394Y-84114250D01*
X284709490Y-84228536D01*
X284785680Y-84304726D01*
X284861870Y-84342822D01*
X285014251Y-84380917D01*
X285128537Y-84380917D01*
X285280918Y-84342822D01*
X285357109Y-84304726D01*
X285433299Y-84228536D01*
X285471394Y-84114250D01*
X285471394Y-83923774D01*
X285471394Y-85142822D02*
X285471394Y-84685679D01*
X285471394Y-84914250D02*
X284671394Y-84914250D01*
X284785680Y-84838060D01*
X284861870Y-84761869D01*
X284899966Y-84685679D01*
X284671394Y-85409488D02*
X284671394Y-85904726D01*
X284976156Y-85638060D01*
X284976156Y-85752345D01*
X285014251Y-85828536D01*
X285052347Y-85866631D01*
X285128537Y-85904726D01*
X285319013Y-85904726D01*
X285395204Y-85866631D01*
X285433299Y-85828536D01*
X285471394Y-85752345D01*
X285471394Y-85523774D01*
X285433299Y-85447583D01*
X285395204Y-85409488D01*
G04 #@! TO.C,D14*
X309284040Y-83923774D02*
X308484040Y-83923774D01*
X308484040Y-84114250D01*
X308522136Y-84228536D01*
X308598326Y-84304726D01*
X308674516Y-84342822D01*
X308826897Y-84380917D01*
X308941183Y-84380917D01*
X309093564Y-84342822D01*
X309169755Y-84304726D01*
X309245945Y-84228536D01*
X309284040Y-84114250D01*
X309284040Y-83923774D01*
X309284040Y-85142822D02*
X309284040Y-84685679D01*
X309284040Y-84914250D02*
X308484040Y-84914250D01*
X308598326Y-84838060D01*
X308674516Y-84761869D01*
X308712612Y-84685679D01*
X308750707Y-85828536D02*
X309284040Y-85828536D01*
X308445945Y-85638060D02*
X309017374Y-85447583D01*
X309017374Y-85942822D01*
G04 #@! TO.C,D15*
X314641857Y-83923774D02*
X313841857Y-83923774D01*
X313841857Y-84114250D01*
X313879953Y-84228536D01*
X313956143Y-84304726D01*
X314032333Y-84342822D01*
X314184714Y-84380917D01*
X314299000Y-84380917D01*
X314451381Y-84342822D01*
X314527572Y-84304726D01*
X314603762Y-84228536D01*
X314641857Y-84114250D01*
X314641857Y-83923774D01*
X314641857Y-85142822D02*
X314641857Y-84685679D01*
X314641857Y-84914250D02*
X313841857Y-84914250D01*
X313956143Y-84838060D01*
X314032333Y-84761869D01*
X314070429Y-84685679D01*
X313841857Y-85866631D02*
X313841857Y-85485679D01*
X314222810Y-85447583D01*
X314184714Y-85485679D01*
X314146619Y-85561869D01*
X314146619Y-85752345D01*
X314184714Y-85828536D01*
X314222810Y-85866631D01*
X314299000Y-85904726D01*
X314489476Y-85904726D01*
X314565667Y-85866631D01*
X314603762Y-85828536D01*
X314641857Y-85752345D01*
X314641857Y-85561869D01*
X314603762Y-85485679D01*
X314565667Y-85447583D01*
G04 #@! TO.C,D16*
X357504393Y-83923958D02*
X356704393Y-83923958D01*
X356704393Y-84114434D01*
X356742489Y-84228720D01*
X356818679Y-84304910D01*
X356894869Y-84343006D01*
X357047250Y-84381101D01*
X357161536Y-84381101D01*
X357313917Y-84343006D01*
X357390108Y-84304910D01*
X357466298Y-84228720D01*
X357504393Y-84114434D01*
X357504393Y-83923958D01*
X357504393Y-85143006D02*
X357504393Y-84685863D01*
X357504393Y-84914434D02*
X356704393Y-84914434D01*
X356818679Y-84838244D01*
X356894869Y-84762053D01*
X356932965Y-84685863D01*
X356704393Y-85828720D02*
X356704393Y-85676339D01*
X356742489Y-85600148D01*
X356780584Y-85562053D01*
X356894869Y-85485863D01*
X357047250Y-85447767D01*
X357352012Y-85447767D01*
X357428203Y-85485863D01*
X357466298Y-85523958D01*
X357504393Y-85600148D01*
X357504393Y-85752529D01*
X357466298Y-85828720D01*
X357428203Y-85866815D01*
X357352012Y-85904910D01*
X357161536Y-85904910D01*
X357085346Y-85866815D01*
X357047250Y-85828720D01*
X357009155Y-85752529D01*
X357009155Y-85600148D01*
X357047250Y-85523958D01*
X357085346Y-85485863D01*
X357161536Y-85447767D01*
G04 #@! TO.C,D17*
X56871394Y-102973774D02*
X56071394Y-102973774D01*
X56071394Y-103164250D01*
X56109490Y-103278536D01*
X56185680Y-103354726D01*
X56261870Y-103392822D01*
X56414251Y-103430917D01*
X56528537Y-103430917D01*
X56680918Y-103392822D01*
X56757109Y-103354726D01*
X56833299Y-103278536D01*
X56871394Y-103164250D01*
X56871394Y-102973774D01*
X56871394Y-104192822D02*
X56871394Y-103735679D01*
X56871394Y-103964250D02*
X56071394Y-103964250D01*
X56185680Y-103888060D01*
X56261870Y-103811869D01*
X56299966Y-103735679D01*
X56071394Y-104459488D02*
X56071394Y-104992822D01*
X56871394Y-104649964D01*
G04 #@! TO.C,D18*
X75921394Y-102973774D02*
X75121394Y-102973774D01*
X75121394Y-103164250D01*
X75159490Y-103278536D01*
X75235680Y-103354726D01*
X75311870Y-103392822D01*
X75464251Y-103430917D01*
X75578537Y-103430917D01*
X75730918Y-103392822D01*
X75807109Y-103354726D01*
X75883299Y-103278536D01*
X75921394Y-103164250D01*
X75921394Y-102973774D01*
X75921394Y-104192822D02*
X75921394Y-103735679D01*
X75921394Y-103964250D02*
X75121394Y-103964250D01*
X75235680Y-103888060D01*
X75311870Y-103811869D01*
X75349966Y-103735679D01*
X75464251Y-104649964D02*
X75426156Y-104573774D01*
X75388061Y-104535679D01*
X75311870Y-104497583D01*
X75273775Y-104497583D01*
X75197585Y-104535679D01*
X75159490Y-104573774D01*
X75121394Y-104649964D01*
X75121394Y-104802345D01*
X75159490Y-104878536D01*
X75197585Y-104916631D01*
X75273775Y-104954726D01*
X75311870Y-104954726D01*
X75388061Y-104916631D01*
X75426156Y-104878536D01*
X75464251Y-104802345D01*
X75464251Y-104649964D01*
X75502347Y-104573774D01*
X75540442Y-104535679D01*
X75616632Y-104497583D01*
X75769013Y-104497583D01*
X75845204Y-104535679D01*
X75883299Y-104573774D01*
X75921394Y-104649964D01*
X75921394Y-104802345D01*
X75883299Y-104878536D01*
X75845204Y-104916631D01*
X75769013Y-104954726D01*
X75616632Y-104954726D01*
X75540442Y-104916631D01*
X75502347Y-104878536D01*
X75464251Y-104802345D01*
G04 #@! TO.C,D19*
X94971394Y-102973774D02*
X94171394Y-102973774D01*
X94171394Y-103164250D01*
X94209490Y-103278536D01*
X94285680Y-103354726D01*
X94361870Y-103392822D01*
X94514251Y-103430917D01*
X94628537Y-103430917D01*
X94780918Y-103392822D01*
X94857109Y-103354726D01*
X94933299Y-103278536D01*
X94971394Y-103164250D01*
X94971394Y-102973774D01*
X94971394Y-104192822D02*
X94971394Y-103735679D01*
X94971394Y-103964250D02*
X94171394Y-103964250D01*
X94285680Y-103888060D01*
X94361870Y-103811869D01*
X94399966Y-103735679D01*
X94971394Y-104573774D02*
X94971394Y-104726155D01*
X94933299Y-104802345D01*
X94895204Y-104840441D01*
X94780918Y-104916631D01*
X94628537Y-104954726D01*
X94323775Y-104954726D01*
X94247585Y-104916631D01*
X94209490Y-104878536D01*
X94171394Y-104802345D01*
X94171394Y-104649964D01*
X94209490Y-104573774D01*
X94247585Y-104535679D01*
X94323775Y-104497583D01*
X94514251Y-104497583D01*
X94590442Y-104535679D01*
X94628537Y-104573774D01*
X94666632Y-104649964D01*
X94666632Y-104802345D01*
X94628537Y-104878536D01*
X94590442Y-104916631D01*
X94514251Y-104954726D01*
G04 #@! TO.C,D20*
X114021394Y-102973774D02*
X113221394Y-102973774D01*
X113221394Y-103164250D01*
X113259490Y-103278536D01*
X113335680Y-103354726D01*
X113411870Y-103392822D01*
X113564251Y-103430917D01*
X113678537Y-103430917D01*
X113830918Y-103392822D01*
X113907109Y-103354726D01*
X113983299Y-103278536D01*
X114021394Y-103164250D01*
X114021394Y-102973774D01*
X113297585Y-103735679D02*
X113259490Y-103773774D01*
X113221394Y-103849964D01*
X113221394Y-104040441D01*
X113259490Y-104116631D01*
X113297585Y-104154726D01*
X113373775Y-104192822D01*
X113449966Y-104192822D01*
X113564251Y-104154726D01*
X114021394Y-103697583D01*
X114021394Y-104192822D01*
X113221394Y-104688060D02*
X113221394Y-104764250D01*
X113259490Y-104840441D01*
X113297585Y-104878536D01*
X113373775Y-104916631D01*
X113526156Y-104954726D01*
X113716632Y-104954726D01*
X113869013Y-104916631D01*
X113945204Y-104878536D01*
X113983299Y-104840441D01*
X114021394Y-104764250D01*
X114021394Y-104688060D01*
X113983299Y-104611869D01*
X113945204Y-104573774D01*
X113869013Y-104535679D01*
X113716632Y-104497583D01*
X113526156Y-104497583D01*
X113373775Y-104535679D01*
X113297585Y-104573774D01*
X113259490Y-104611869D01*
X113221394Y-104688060D01*
G04 #@! TO.C,D21*
X133071394Y-102973774D02*
X132271394Y-102973774D01*
X132271394Y-103164250D01*
X132309490Y-103278536D01*
X132385680Y-103354726D01*
X132461870Y-103392822D01*
X132614251Y-103430917D01*
X132728537Y-103430917D01*
X132880918Y-103392822D01*
X132957109Y-103354726D01*
X133033299Y-103278536D01*
X133071394Y-103164250D01*
X133071394Y-102973774D01*
X132347585Y-103735679D02*
X132309490Y-103773774D01*
X132271394Y-103849964D01*
X132271394Y-104040441D01*
X132309490Y-104116631D01*
X132347585Y-104154726D01*
X132423775Y-104192822D01*
X132499966Y-104192822D01*
X132614251Y-104154726D01*
X133071394Y-103697583D01*
X133071394Y-104192822D01*
X133071394Y-104954726D02*
X133071394Y-104497583D01*
X133071394Y-104726155D02*
X132271394Y-104726155D01*
X132385680Y-104649964D01*
X132461870Y-104573774D01*
X132499966Y-104497583D01*
G04 #@! TO.C,D22*
X152121394Y-102973774D02*
X151321394Y-102973774D01*
X151321394Y-103164250D01*
X151359490Y-103278536D01*
X151435680Y-103354726D01*
X151511870Y-103392822D01*
X151664251Y-103430917D01*
X151778537Y-103430917D01*
X151930918Y-103392822D01*
X152007109Y-103354726D01*
X152083299Y-103278536D01*
X152121394Y-103164250D01*
X152121394Y-102973774D01*
X151397585Y-103735679D02*
X151359490Y-103773774D01*
X151321394Y-103849964D01*
X151321394Y-104040441D01*
X151359490Y-104116631D01*
X151397585Y-104154726D01*
X151473775Y-104192822D01*
X151549966Y-104192822D01*
X151664251Y-104154726D01*
X152121394Y-103697583D01*
X152121394Y-104192822D01*
X151397585Y-104497583D02*
X151359490Y-104535679D01*
X151321394Y-104611869D01*
X151321394Y-104802345D01*
X151359490Y-104878536D01*
X151397585Y-104916631D01*
X151473775Y-104954726D01*
X151549966Y-104954726D01*
X151664251Y-104916631D01*
X152121394Y-104459488D01*
X152121394Y-104954726D01*
G04 #@! TO.C,D23*
X171171394Y-102973774D02*
X170371394Y-102973774D01*
X170371394Y-103164250D01*
X170409490Y-103278536D01*
X170485680Y-103354726D01*
X170561870Y-103392822D01*
X170714251Y-103430917D01*
X170828537Y-103430917D01*
X170980918Y-103392822D01*
X171057109Y-103354726D01*
X171133299Y-103278536D01*
X171171394Y-103164250D01*
X171171394Y-102973774D01*
X170447585Y-103735679D02*
X170409490Y-103773774D01*
X170371394Y-103849964D01*
X170371394Y-104040441D01*
X170409490Y-104116631D01*
X170447585Y-104154726D01*
X170523775Y-104192822D01*
X170599966Y-104192822D01*
X170714251Y-104154726D01*
X171171394Y-103697583D01*
X171171394Y-104192822D01*
X170371394Y-104459488D02*
X170371394Y-104954726D01*
X170676156Y-104688060D01*
X170676156Y-104802345D01*
X170714251Y-104878536D01*
X170752347Y-104916631D01*
X170828537Y-104954726D01*
X171019013Y-104954726D01*
X171095204Y-104916631D01*
X171133299Y-104878536D01*
X171171394Y-104802345D01*
X171171394Y-104573774D01*
X171133299Y-104497583D01*
X171095204Y-104459488D01*
G04 #@! TO.C,D24*
X190221394Y-102973774D02*
X189421394Y-102973774D01*
X189421394Y-103164250D01*
X189459490Y-103278536D01*
X189535680Y-103354726D01*
X189611870Y-103392822D01*
X189764251Y-103430917D01*
X189878537Y-103430917D01*
X190030918Y-103392822D01*
X190107109Y-103354726D01*
X190183299Y-103278536D01*
X190221394Y-103164250D01*
X190221394Y-102973774D01*
X189497585Y-103735679D02*
X189459490Y-103773774D01*
X189421394Y-103849964D01*
X189421394Y-104040441D01*
X189459490Y-104116631D01*
X189497585Y-104154726D01*
X189573775Y-104192822D01*
X189649966Y-104192822D01*
X189764251Y-104154726D01*
X190221394Y-103697583D01*
X190221394Y-104192822D01*
X189688061Y-104878536D02*
X190221394Y-104878536D01*
X189383299Y-104688060D02*
X189954728Y-104497583D01*
X189954728Y-104992822D01*
G04 #@! TO.C,D25*
X209271394Y-102973774D02*
X208471394Y-102973774D01*
X208471394Y-103164250D01*
X208509490Y-103278536D01*
X208585680Y-103354726D01*
X208661870Y-103392822D01*
X208814251Y-103430917D01*
X208928537Y-103430917D01*
X209080918Y-103392822D01*
X209157109Y-103354726D01*
X209233299Y-103278536D01*
X209271394Y-103164250D01*
X209271394Y-102973774D01*
X208547585Y-103735679D02*
X208509490Y-103773774D01*
X208471394Y-103849964D01*
X208471394Y-104040441D01*
X208509490Y-104116631D01*
X208547585Y-104154726D01*
X208623775Y-104192822D01*
X208699966Y-104192822D01*
X208814251Y-104154726D01*
X209271394Y-103697583D01*
X209271394Y-104192822D01*
X208471394Y-104916631D02*
X208471394Y-104535679D01*
X208852347Y-104497583D01*
X208814251Y-104535679D01*
X208776156Y-104611869D01*
X208776156Y-104802345D01*
X208814251Y-104878536D01*
X208852347Y-104916631D01*
X208928537Y-104954726D01*
X209119013Y-104954726D01*
X209195204Y-104916631D01*
X209233299Y-104878536D01*
X209271394Y-104802345D01*
X209271394Y-104611869D01*
X209233299Y-104535679D01*
X209195204Y-104497583D01*
G04 #@! TO.C,D26*
X228321394Y-102973774D02*
X227521394Y-102973774D01*
X227521394Y-103164250D01*
X227559490Y-103278536D01*
X227635680Y-103354726D01*
X227711870Y-103392822D01*
X227864251Y-103430917D01*
X227978537Y-103430917D01*
X228130918Y-103392822D01*
X228207109Y-103354726D01*
X228283299Y-103278536D01*
X228321394Y-103164250D01*
X228321394Y-102973774D01*
X227597585Y-103735679D02*
X227559490Y-103773774D01*
X227521394Y-103849964D01*
X227521394Y-104040441D01*
X227559490Y-104116631D01*
X227597585Y-104154726D01*
X227673775Y-104192822D01*
X227749966Y-104192822D01*
X227864251Y-104154726D01*
X228321394Y-103697583D01*
X228321394Y-104192822D01*
X227521394Y-104878536D02*
X227521394Y-104726155D01*
X227559490Y-104649964D01*
X227597585Y-104611869D01*
X227711870Y-104535679D01*
X227864251Y-104497583D01*
X228169013Y-104497583D01*
X228245204Y-104535679D01*
X228283299Y-104573774D01*
X228321394Y-104649964D01*
X228321394Y-104802345D01*
X228283299Y-104878536D01*
X228245204Y-104916631D01*
X228169013Y-104954726D01*
X227978537Y-104954726D01*
X227902347Y-104916631D01*
X227864251Y-104878536D01*
X227826156Y-104802345D01*
X227826156Y-104649964D01*
X227864251Y-104573774D01*
X227902347Y-104535679D01*
X227978537Y-104497583D01*
G04 #@! TO.C,D27*
X247371394Y-102973774D02*
X246571394Y-102973774D01*
X246571394Y-103164250D01*
X246609490Y-103278536D01*
X246685680Y-103354726D01*
X246761870Y-103392822D01*
X246914251Y-103430917D01*
X247028537Y-103430917D01*
X247180918Y-103392822D01*
X247257109Y-103354726D01*
X247333299Y-103278536D01*
X247371394Y-103164250D01*
X247371394Y-102973774D01*
X246647585Y-103735679D02*
X246609490Y-103773774D01*
X246571394Y-103849964D01*
X246571394Y-104040441D01*
X246609490Y-104116631D01*
X246647585Y-104154726D01*
X246723775Y-104192822D01*
X246799966Y-104192822D01*
X246914251Y-104154726D01*
X247371394Y-103697583D01*
X247371394Y-104192822D01*
X246571394Y-104459488D02*
X246571394Y-104992822D01*
X247371394Y-104649964D01*
G04 #@! TO.C,D28*
X266421394Y-102973774D02*
X265621394Y-102973774D01*
X265621394Y-103164250D01*
X265659490Y-103278536D01*
X265735680Y-103354726D01*
X265811870Y-103392822D01*
X265964251Y-103430917D01*
X266078537Y-103430917D01*
X266230918Y-103392822D01*
X266307109Y-103354726D01*
X266383299Y-103278536D01*
X266421394Y-103164250D01*
X266421394Y-102973774D01*
X265697585Y-103735679D02*
X265659490Y-103773774D01*
X265621394Y-103849964D01*
X265621394Y-104040441D01*
X265659490Y-104116631D01*
X265697585Y-104154726D01*
X265773775Y-104192822D01*
X265849966Y-104192822D01*
X265964251Y-104154726D01*
X266421394Y-103697583D01*
X266421394Y-104192822D01*
X265964251Y-104649964D02*
X265926156Y-104573774D01*
X265888061Y-104535679D01*
X265811870Y-104497583D01*
X265773775Y-104497583D01*
X265697585Y-104535679D01*
X265659490Y-104573774D01*
X265621394Y-104649964D01*
X265621394Y-104802345D01*
X265659490Y-104878536D01*
X265697585Y-104916631D01*
X265773775Y-104954726D01*
X265811870Y-104954726D01*
X265888061Y-104916631D01*
X265926156Y-104878536D01*
X265964251Y-104802345D01*
X265964251Y-104649964D01*
X266002347Y-104573774D01*
X266040442Y-104535679D01*
X266116632Y-104497583D01*
X266269013Y-104497583D01*
X266345204Y-104535679D01*
X266383299Y-104573774D01*
X266421394Y-104649964D01*
X266421394Y-104802345D01*
X266383299Y-104878536D01*
X266345204Y-104916631D01*
X266269013Y-104954726D01*
X266116632Y-104954726D01*
X266040442Y-104916631D01*
X266002347Y-104878536D01*
X265964251Y-104802345D01*
G04 #@! TO.C,D29*
X285471394Y-102973774D02*
X284671394Y-102973774D01*
X284671394Y-103164250D01*
X284709490Y-103278536D01*
X284785680Y-103354726D01*
X284861870Y-103392822D01*
X285014251Y-103430917D01*
X285128537Y-103430917D01*
X285280918Y-103392822D01*
X285357109Y-103354726D01*
X285433299Y-103278536D01*
X285471394Y-103164250D01*
X285471394Y-102973774D01*
X284747585Y-103735679D02*
X284709490Y-103773774D01*
X284671394Y-103849964D01*
X284671394Y-104040441D01*
X284709490Y-104116631D01*
X284747585Y-104154726D01*
X284823775Y-104192822D01*
X284899966Y-104192822D01*
X285014251Y-104154726D01*
X285471394Y-103697583D01*
X285471394Y-104192822D01*
X285471394Y-104573774D02*
X285471394Y-104726155D01*
X285433299Y-104802345D01*
X285395204Y-104840441D01*
X285280918Y-104916631D01*
X285128537Y-104954726D01*
X284823775Y-104954726D01*
X284747585Y-104916631D01*
X284709490Y-104878536D01*
X284671394Y-104802345D01*
X284671394Y-104649964D01*
X284709490Y-104573774D01*
X284747585Y-104535679D01*
X284823775Y-104497583D01*
X285014251Y-104497583D01*
X285090442Y-104535679D01*
X285128537Y-104573774D01*
X285166632Y-104649964D01*
X285166632Y-104802345D01*
X285128537Y-104878536D01*
X285090442Y-104916631D01*
X285014251Y-104954726D01*
G04 #@! TO.C,D30*
X309284040Y-102973774D02*
X308484040Y-102973774D01*
X308484040Y-103164250D01*
X308522136Y-103278536D01*
X308598326Y-103354726D01*
X308674516Y-103392822D01*
X308826897Y-103430917D01*
X308941183Y-103430917D01*
X309093564Y-103392822D01*
X309169755Y-103354726D01*
X309245945Y-103278536D01*
X309284040Y-103164250D01*
X309284040Y-102973774D01*
X308484040Y-103697583D02*
X308484040Y-104192822D01*
X308788802Y-103926155D01*
X308788802Y-104040441D01*
X308826897Y-104116631D01*
X308864993Y-104154726D01*
X308941183Y-104192822D01*
X309131659Y-104192822D01*
X309207850Y-104154726D01*
X309245945Y-104116631D01*
X309284040Y-104040441D01*
X309284040Y-103811869D01*
X309245945Y-103735679D01*
X309207850Y-103697583D01*
X308484040Y-104688060D02*
X308484040Y-104764250D01*
X308522136Y-104840441D01*
X308560231Y-104878536D01*
X308636421Y-104916631D01*
X308788802Y-104954726D01*
X308979278Y-104954726D01*
X309131659Y-104916631D01*
X309207850Y-104878536D01*
X309245945Y-104840441D01*
X309284040Y-104764250D01*
X309284040Y-104688060D01*
X309245945Y-104611869D01*
X309207850Y-104573774D01*
X309131659Y-104535679D01*
X308979278Y-104497583D01*
X308788802Y-104497583D01*
X308636421Y-104535679D01*
X308560231Y-104573774D01*
X308522136Y-104611869D01*
X308484040Y-104688060D01*
G04 #@! TO.C,D31*
X314641857Y-102973774D02*
X313841857Y-102973774D01*
X313841857Y-103164250D01*
X313879953Y-103278536D01*
X313956143Y-103354726D01*
X314032333Y-103392822D01*
X314184714Y-103430917D01*
X314299000Y-103430917D01*
X314451381Y-103392822D01*
X314527572Y-103354726D01*
X314603762Y-103278536D01*
X314641857Y-103164250D01*
X314641857Y-102973774D01*
X313841857Y-103697583D02*
X313841857Y-104192822D01*
X314146619Y-103926155D01*
X314146619Y-104040441D01*
X314184714Y-104116631D01*
X314222810Y-104154726D01*
X314299000Y-104192822D01*
X314489476Y-104192822D01*
X314565667Y-104154726D01*
X314603762Y-104116631D01*
X314641857Y-104040441D01*
X314641857Y-103811869D01*
X314603762Y-103735679D01*
X314565667Y-103697583D01*
X314641857Y-104954726D02*
X314641857Y-104497583D01*
X314641857Y-104726155D02*
X313841857Y-104726155D01*
X313956143Y-104649964D01*
X314032333Y-104573774D01*
X314070429Y-104497583D01*
G04 #@! TO.C,D32*
X357504393Y-102973774D02*
X356704393Y-102973774D01*
X356704393Y-103164250D01*
X356742489Y-103278536D01*
X356818679Y-103354726D01*
X356894869Y-103392822D01*
X357047250Y-103430917D01*
X357161536Y-103430917D01*
X357313917Y-103392822D01*
X357390108Y-103354726D01*
X357466298Y-103278536D01*
X357504393Y-103164250D01*
X357504393Y-102973774D01*
X356704393Y-103697583D02*
X356704393Y-104192822D01*
X357009155Y-103926155D01*
X357009155Y-104040441D01*
X357047250Y-104116631D01*
X357085346Y-104154726D01*
X357161536Y-104192822D01*
X357352012Y-104192822D01*
X357428203Y-104154726D01*
X357466298Y-104116631D01*
X357504393Y-104040441D01*
X357504393Y-103811869D01*
X357466298Y-103735679D01*
X357428203Y-103697583D01*
X356780584Y-104497583D02*
X356742489Y-104535679D01*
X356704393Y-104611869D01*
X356704393Y-104802345D01*
X356742489Y-104878536D01*
X356780584Y-104916631D01*
X356856774Y-104954726D01*
X356932965Y-104954726D01*
X357047250Y-104916631D01*
X357504393Y-104459488D01*
X357504393Y-104954726D01*
G04 #@! TO.C,D33*
X56871394Y-122023774D02*
X56071394Y-122023774D01*
X56071394Y-122214250D01*
X56109490Y-122328536D01*
X56185680Y-122404726D01*
X56261870Y-122442822D01*
X56414251Y-122480917D01*
X56528537Y-122480917D01*
X56680918Y-122442822D01*
X56757109Y-122404726D01*
X56833299Y-122328536D01*
X56871394Y-122214250D01*
X56871394Y-122023774D01*
X56071394Y-122747583D02*
X56071394Y-123242822D01*
X56376156Y-122976155D01*
X56376156Y-123090441D01*
X56414251Y-123166631D01*
X56452347Y-123204726D01*
X56528537Y-123242822D01*
X56719013Y-123242822D01*
X56795204Y-123204726D01*
X56833299Y-123166631D01*
X56871394Y-123090441D01*
X56871394Y-122861869D01*
X56833299Y-122785679D01*
X56795204Y-122747583D01*
X56071394Y-123509488D02*
X56071394Y-124004726D01*
X56376156Y-123738060D01*
X56376156Y-123852345D01*
X56414251Y-123928536D01*
X56452347Y-123966631D01*
X56528537Y-124004726D01*
X56719013Y-124004726D01*
X56795204Y-123966631D01*
X56833299Y-123928536D01*
X56871394Y-123852345D01*
X56871394Y-123623774D01*
X56833299Y-123547583D01*
X56795204Y-123509488D01*
G04 #@! TO.C,D34*
X75921394Y-122023774D02*
X75121394Y-122023774D01*
X75121394Y-122214250D01*
X75159490Y-122328536D01*
X75235680Y-122404726D01*
X75311870Y-122442822D01*
X75464251Y-122480917D01*
X75578537Y-122480917D01*
X75730918Y-122442822D01*
X75807109Y-122404726D01*
X75883299Y-122328536D01*
X75921394Y-122214250D01*
X75921394Y-122023774D01*
X75121394Y-122747583D02*
X75121394Y-123242822D01*
X75426156Y-122976155D01*
X75426156Y-123090441D01*
X75464251Y-123166631D01*
X75502347Y-123204726D01*
X75578537Y-123242822D01*
X75769013Y-123242822D01*
X75845204Y-123204726D01*
X75883299Y-123166631D01*
X75921394Y-123090441D01*
X75921394Y-122861869D01*
X75883299Y-122785679D01*
X75845204Y-122747583D01*
X75388061Y-123928536D02*
X75921394Y-123928536D01*
X75083299Y-123738060D02*
X75654728Y-123547583D01*
X75654728Y-124042822D01*
G04 #@! TO.C,D35*
X94971394Y-122023774D02*
X94171394Y-122023774D01*
X94171394Y-122214250D01*
X94209490Y-122328536D01*
X94285680Y-122404726D01*
X94361870Y-122442822D01*
X94514251Y-122480917D01*
X94628537Y-122480917D01*
X94780918Y-122442822D01*
X94857109Y-122404726D01*
X94933299Y-122328536D01*
X94971394Y-122214250D01*
X94971394Y-122023774D01*
X94171394Y-122747583D02*
X94171394Y-123242822D01*
X94476156Y-122976155D01*
X94476156Y-123090441D01*
X94514251Y-123166631D01*
X94552347Y-123204726D01*
X94628537Y-123242822D01*
X94819013Y-123242822D01*
X94895204Y-123204726D01*
X94933299Y-123166631D01*
X94971394Y-123090441D01*
X94971394Y-122861869D01*
X94933299Y-122785679D01*
X94895204Y-122747583D01*
X94171394Y-123966631D02*
X94171394Y-123585679D01*
X94552347Y-123547583D01*
X94514251Y-123585679D01*
X94476156Y-123661869D01*
X94476156Y-123852345D01*
X94514251Y-123928536D01*
X94552347Y-123966631D01*
X94628537Y-124004726D01*
X94819013Y-124004726D01*
X94895204Y-123966631D01*
X94933299Y-123928536D01*
X94971394Y-123852345D01*
X94971394Y-123661869D01*
X94933299Y-123585679D01*
X94895204Y-123547583D01*
G04 #@! TO.C,D36*
X114021394Y-122023774D02*
X113221394Y-122023774D01*
X113221394Y-122214250D01*
X113259490Y-122328536D01*
X113335680Y-122404726D01*
X113411870Y-122442822D01*
X113564251Y-122480917D01*
X113678537Y-122480917D01*
X113830918Y-122442822D01*
X113907109Y-122404726D01*
X113983299Y-122328536D01*
X114021394Y-122214250D01*
X114021394Y-122023774D01*
X113221394Y-122747583D02*
X113221394Y-123242822D01*
X113526156Y-122976155D01*
X113526156Y-123090441D01*
X113564251Y-123166631D01*
X113602347Y-123204726D01*
X113678537Y-123242822D01*
X113869013Y-123242822D01*
X113945204Y-123204726D01*
X113983299Y-123166631D01*
X114021394Y-123090441D01*
X114021394Y-122861869D01*
X113983299Y-122785679D01*
X113945204Y-122747583D01*
X113221394Y-123928536D02*
X113221394Y-123776155D01*
X113259490Y-123699964D01*
X113297585Y-123661869D01*
X113411870Y-123585679D01*
X113564251Y-123547583D01*
X113869013Y-123547583D01*
X113945204Y-123585679D01*
X113983299Y-123623774D01*
X114021394Y-123699964D01*
X114021394Y-123852345D01*
X113983299Y-123928536D01*
X113945204Y-123966631D01*
X113869013Y-124004726D01*
X113678537Y-124004726D01*
X113602347Y-123966631D01*
X113564251Y-123928536D01*
X113526156Y-123852345D01*
X113526156Y-123699964D01*
X113564251Y-123623774D01*
X113602347Y-123585679D01*
X113678537Y-123547583D01*
G04 #@! TO.C,D37*
X133071394Y-122023774D02*
X132271394Y-122023774D01*
X132271394Y-122214250D01*
X132309490Y-122328536D01*
X132385680Y-122404726D01*
X132461870Y-122442822D01*
X132614251Y-122480917D01*
X132728537Y-122480917D01*
X132880918Y-122442822D01*
X132957109Y-122404726D01*
X133033299Y-122328536D01*
X133071394Y-122214250D01*
X133071394Y-122023774D01*
X132271394Y-122747583D02*
X132271394Y-123242822D01*
X132576156Y-122976155D01*
X132576156Y-123090441D01*
X132614251Y-123166631D01*
X132652347Y-123204726D01*
X132728537Y-123242822D01*
X132919013Y-123242822D01*
X132995204Y-123204726D01*
X133033299Y-123166631D01*
X133071394Y-123090441D01*
X133071394Y-122861869D01*
X133033299Y-122785679D01*
X132995204Y-122747583D01*
X132271394Y-123509488D02*
X132271394Y-124042822D01*
X133071394Y-123699964D01*
G04 #@! TO.C,D38*
X152121394Y-122023774D02*
X151321394Y-122023774D01*
X151321394Y-122214250D01*
X151359490Y-122328536D01*
X151435680Y-122404726D01*
X151511870Y-122442822D01*
X151664251Y-122480917D01*
X151778537Y-122480917D01*
X151930918Y-122442822D01*
X152007109Y-122404726D01*
X152083299Y-122328536D01*
X152121394Y-122214250D01*
X152121394Y-122023774D01*
X151321394Y-122747583D02*
X151321394Y-123242822D01*
X151626156Y-122976155D01*
X151626156Y-123090441D01*
X151664251Y-123166631D01*
X151702347Y-123204726D01*
X151778537Y-123242822D01*
X151969013Y-123242822D01*
X152045204Y-123204726D01*
X152083299Y-123166631D01*
X152121394Y-123090441D01*
X152121394Y-122861869D01*
X152083299Y-122785679D01*
X152045204Y-122747583D01*
X151664251Y-123699964D02*
X151626156Y-123623774D01*
X151588061Y-123585679D01*
X151511870Y-123547583D01*
X151473775Y-123547583D01*
X151397585Y-123585679D01*
X151359490Y-123623774D01*
X151321394Y-123699964D01*
X151321394Y-123852345D01*
X151359490Y-123928536D01*
X151397585Y-123966631D01*
X151473775Y-124004726D01*
X151511870Y-124004726D01*
X151588061Y-123966631D01*
X151626156Y-123928536D01*
X151664251Y-123852345D01*
X151664251Y-123699964D01*
X151702347Y-123623774D01*
X151740442Y-123585679D01*
X151816632Y-123547583D01*
X151969013Y-123547583D01*
X152045204Y-123585679D01*
X152083299Y-123623774D01*
X152121394Y-123699964D01*
X152121394Y-123852345D01*
X152083299Y-123928536D01*
X152045204Y-123966631D01*
X151969013Y-124004726D01*
X151816632Y-124004726D01*
X151740442Y-123966631D01*
X151702347Y-123928536D01*
X151664251Y-123852345D01*
G04 #@! TO.C,D39*
X171171394Y-122023774D02*
X170371394Y-122023774D01*
X170371394Y-122214250D01*
X170409490Y-122328536D01*
X170485680Y-122404726D01*
X170561870Y-122442822D01*
X170714251Y-122480917D01*
X170828537Y-122480917D01*
X170980918Y-122442822D01*
X171057109Y-122404726D01*
X171133299Y-122328536D01*
X171171394Y-122214250D01*
X171171394Y-122023774D01*
X170371394Y-122747583D02*
X170371394Y-123242822D01*
X170676156Y-122976155D01*
X170676156Y-123090441D01*
X170714251Y-123166631D01*
X170752347Y-123204726D01*
X170828537Y-123242822D01*
X171019013Y-123242822D01*
X171095204Y-123204726D01*
X171133299Y-123166631D01*
X171171394Y-123090441D01*
X171171394Y-122861869D01*
X171133299Y-122785679D01*
X171095204Y-122747583D01*
X171171394Y-123623774D02*
X171171394Y-123776155D01*
X171133299Y-123852345D01*
X171095204Y-123890441D01*
X170980918Y-123966631D01*
X170828537Y-124004726D01*
X170523775Y-124004726D01*
X170447585Y-123966631D01*
X170409490Y-123928536D01*
X170371394Y-123852345D01*
X170371394Y-123699964D01*
X170409490Y-123623774D01*
X170447585Y-123585679D01*
X170523775Y-123547583D01*
X170714251Y-123547583D01*
X170790442Y-123585679D01*
X170828537Y-123623774D01*
X170866632Y-123699964D01*
X170866632Y-123852345D01*
X170828537Y-123928536D01*
X170790442Y-123966631D01*
X170714251Y-124004726D01*
G04 #@! TO.C,D40*
X190221394Y-122023774D02*
X189421394Y-122023774D01*
X189421394Y-122214250D01*
X189459490Y-122328536D01*
X189535680Y-122404726D01*
X189611870Y-122442822D01*
X189764251Y-122480917D01*
X189878537Y-122480917D01*
X190030918Y-122442822D01*
X190107109Y-122404726D01*
X190183299Y-122328536D01*
X190221394Y-122214250D01*
X190221394Y-122023774D01*
X189688061Y-123166631D02*
X190221394Y-123166631D01*
X189383299Y-122976155D02*
X189954728Y-122785679D01*
X189954728Y-123280917D01*
X189421394Y-123738060D02*
X189421394Y-123814250D01*
X189459490Y-123890441D01*
X189497585Y-123928536D01*
X189573775Y-123966631D01*
X189726156Y-124004726D01*
X189916632Y-124004726D01*
X190069013Y-123966631D01*
X190145204Y-123928536D01*
X190183299Y-123890441D01*
X190221394Y-123814250D01*
X190221394Y-123738060D01*
X190183299Y-123661869D01*
X190145204Y-123623774D01*
X190069013Y-123585679D01*
X189916632Y-123547583D01*
X189726156Y-123547583D01*
X189573775Y-123585679D01*
X189497585Y-123623774D01*
X189459490Y-123661869D01*
X189421394Y-123738060D01*
G04 #@! TO.C,D41*
X209271394Y-122023774D02*
X208471394Y-122023774D01*
X208471394Y-122214250D01*
X208509490Y-122328536D01*
X208585680Y-122404726D01*
X208661870Y-122442822D01*
X208814251Y-122480917D01*
X208928537Y-122480917D01*
X209080918Y-122442822D01*
X209157109Y-122404726D01*
X209233299Y-122328536D01*
X209271394Y-122214250D01*
X209271394Y-122023774D01*
X208738061Y-123166631D02*
X209271394Y-123166631D01*
X208433299Y-122976155D02*
X209004728Y-122785679D01*
X209004728Y-123280917D01*
X209271394Y-124004726D02*
X209271394Y-123547583D01*
X209271394Y-123776155D02*
X208471394Y-123776155D01*
X208585680Y-123699964D01*
X208661870Y-123623774D01*
X208699966Y-123547583D01*
G04 #@! TO.C,D42*
X228321394Y-122023774D02*
X227521394Y-122023774D01*
X227521394Y-122214250D01*
X227559490Y-122328536D01*
X227635680Y-122404726D01*
X227711870Y-122442822D01*
X227864251Y-122480917D01*
X227978537Y-122480917D01*
X228130918Y-122442822D01*
X228207109Y-122404726D01*
X228283299Y-122328536D01*
X228321394Y-122214250D01*
X228321394Y-122023774D01*
X227788061Y-123166631D02*
X228321394Y-123166631D01*
X227483299Y-122976155D02*
X228054728Y-122785679D01*
X228054728Y-123280917D01*
X227597585Y-123547583D02*
X227559490Y-123585679D01*
X227521394Y-123661869D01*
X227521394Y-123852345D01*
X227559490Y-123928536D01*
X227597585Y-123966631D01*
X227673775Y-124004726D01*
X227749966Y-124004726D01*
X227864251Y-123966631D01*
X228321394Y-123509488D01*
X228321394Y-124004726D01*
G04 #@! TO.C,D43*
X247371394Y-122023774D02*
X246571394Y-122023774D01*
X246571394Y-122214250D01*
X246609490Y-122328536D01*
X246685680Y-122404726D01*
X246761870Y-122442822D01*
X246914251Y-122480917D01*
X247028537Y-122480917D01*
X247180918Y-122442822D01*
X247257109Y-122404726D01*
X247333299Y-122328536D01*
X247371394Y-122214250D01*
X247371394Y-122023774D01*
X246838061Y-123166631D02*
X247371394Y-123166631D01*
X246533299Y-122976155D02*
X247104728Y-122785679D01*
X247104728Y-123280917D01*
X246571394Y-123509488D02*
X246571394Y-124004726D01*
X246876156Y-123738060D01*
X246876156Y-123852345D01*
X246914251Y-123928536D01*
X246952347Y-123966631D01*
X247028537Y-124004726D01*
X247219013Y-124004726D01*
X247295204Y-123966631D01*
X247333299Y-123928536D01*
X247371394Y-123852345D01*
X247371394Y-123623774D01*
X247333299Y-123547583D01*
X247295204Y-123509488D01*
G04 #@! TO.C,D44*
X266421394Y-122023774D02*
X265621394Y-122023774D01*
X265621394Y-122214250D01*
X265659490Y-122328536D01*
X265735680Y-122404726D01*
X265811870Y-122442822D01*
X265964251Y-122480917D01*
X266078537Y-122480917D01*
X266230918Y-122442822D01*
X266307109Y-122404726D01*
X266383299Y-122328536D01*
X266421394Y-122214250D01*
X266421394Y-122023774D01*
X265888061Y-123166631D02*
X266421394Y-123166631D01*
X265583299Y-122976155D02*
X266154728Y-122785679D01*
X266154728Y-123280917D01*
X265888061Y-123928536D02*
X266421394Y-123928536D01*
X265583299Y-123738060D02*
X266154728Y-123547583D01*
X266154728Y-124042822D01*
G04 #@! TO.C,D45*
X309283894Y-122023774D02*
X308483894Y-122023774D01*
X308483894Y-122214250D01*
X308521990Y-122328536D01*
X308598180Y-122404726D01*
X308674370Y-122442822D01*
X308826751Y-122480917D01*
X308941037Y-122480917D01*
X309093418Y-122442822D01*
X309169609Y-122404726D01*
X309245799Y-122328536D01*
X309283894Y-122214250D01*
X309283894Y-122023774D01*
X308750561Y-123166631D02*
X309283894Y-123166631D01*
X308445799Y-122976155D02*
X309017228Y-122785679D01*
X309017228Y-123280917D01*
X308483894Y-123966631D02*
X308483894Y-123585679D01*
X308864847Y-123547583D01*
X308826751Y-123585679D01*
X308788656Y-123661869D01*
X308788656Y-123852345D01*
X308826751Y-123928536D01*
X308864847Y-123966631D01*
X308941037Y-124004726D01*
X309131513Y-124004726D01*
X309207704Y-123966631D01*
X309245799Y-123928536D01*
X309283894Y-123852345D01*
X309283894Y-123661869D01*
X309245799Y-123585679D01*
X309207704Y-123547583D01*
G04 #@! TO.C,D46*
X328333894Y-122023774D02*
X327533894Y-122023774D01*
X327533894Y-122214250D01*
X327571990Y-122328536D01*
X327648180Y-122404726D01*
X327724370Y-122442822D01*
X327876751Y-122480917D01*
X327991037Y-122480917D01*
X328143418Y-122442822D01*
X328219609Y-122404726D01*
X328295799Y-122328536D01*
X328333894Y-122214250D01*
X328333894Y-122023774D01*
X327800561Y-123166631D02*
X328333894Y-123166631D01*
X327495799Y-122976155D02*
X328067228Y-122785679D01*
X328067228Y-123280917D01*
X327533894Y-123928536D02*
X327533894Y-123776155D01*
X327571990Y-123699964D01*
X327610085Y-123661869D01*
X327724370Y-123585679D01*
X327876751Y-123547583D01*
X328181513Y-123547583D01*
X328257704Y-123585679D01*
X328295799Y-123623774D01*
X328333894Y-123699964D01*
X328333894Y-123852345D01*
X328295799Y-123928536D01*
X328257704Y-123966631D01*
X328181513Y-124004726D01*
X327991037Y-124004726D01*
X327914847Y-123966631D01*
X327876751Y-123928536D01*
X327838656Y-123852345D01*
X327838656Y-123699964D01*
X327876751Y-123623774D01*
X327914847Y-123585679D01*
X327991037Y-123547583D01*
G04 #@! TO.C,D47*
X357504393Y-122023990D02*
X356704393Y-122023990D01*
X356704393Y-122214466D01*
X356742489Y-122328752D01*
X356818679Y-122404942D01*
X356894869Y-122443038D01*
X357047250Y-122481133D01*
X357161536Y-122481133D01*
X357313917Y-122443038D01*
X357390108Y-122404942D01*
X357466298Y-122328752D01*
X357504393Y-122214466D01*
X357504393Y-122023990D01*
X356971060Y-123166847D02*
X357504393Y-123166847D01*
X356666298Y-122976371D02*
X357237727Y-122785895D01*
X357237727Y-123281133D01*
X356704393Y-123509704D02*
X356704393Y-124043038D01*
X357504393Y-123700180D01*
G04 #@! TO.C,D48*
X56871394Y-141073774D02*
X56071394Y-141073774D01*
X56071394Y-141264250D01*
X56109490Y-141378536D01*
X56185680Y-141454726D01*
X56261870Y-141492822D01*
X56414251Y-141530917D01*
X56528537Y-141530917D01*
X56680918Y-141492822D01*
X56757109Y-141454726D01*
X56833299Y-141378536D01*
X56871394Y-141264250D01*
X56871394Y-141073774D01*
X56338061Y-142216631D02*
X56871394Y-142216631D01*
X56033299Y-142026155D02*
X56604728Y-141835679D01*
X56604728Y-142330917D01*
X56414251Y-142749964D02*
X56376156Y-142673774D01*
X56338061Y-142635679D01*
X56261870Y-142597583D01*
X56223775Y-142597583D01*
X56147585Y-142635679D01*
X56109490Y-142673774D01*
X56071394Y-142749964D01*
X56071394Y-142902345D01*
X56109490Y-142978536D01*
X56147585Y-143016631D01*
X56223775Y-143054726D01*
X56261870Y-143054726D01*
X56338061Y-143016631D01*
X56376156Y-142978536D01*
X56414251Y-142902345D01*
X56414251Y-142749964D01*
X56452347Y-142673774D01*
X56490442Y-142635679D01*
X56566632Y-142597583D01*
X56719013Y-142597583D01*
X56795204Y-142635679D01*
X56833299Y-142673774D01*
X56871394Y-142749964D01*
X56871394Y-142902345D01*
X56833299Y-142978536D01*
X56795204Y-143016631D01*
X56719013Y-143054726D01*
X56566632Y-143054726D01*
X56490442Y-143016631D01*
X56452347Y-142978536D01*
X56414251Y-142902345D01*
G04 #@! TO.C,D49*
X75921394Y-141073774D02*
X75121394Y-141073774D01*
X75121394Y-141264250D01*
X75159490Y-141378536D01*
X75235680Y-141454726D01*
X75311870Y-141492822D01*
X75464251Y-141530917D01*
X75578537Y-141530917D01*
X75730918Y-141492822D01*
X75807109Y-141454726D01*
X75883299Y-141378536D01*
X75921394Y-141264250D01*
X75921394Y-141073774D01*
X75388061Y-142216631D02*
X75921394Y-142216631D01*
X75083299Y-142026155D02*
X75654728Y-141835679D01*
X75654728Y-142330917D01*
X75921394Y-142673774D02*
X75921394Y-142826155D01*
X75883299Y-142902345D01*
X75845204Y-142940441D01*
X75730918Y-143016631D01*
X75578537Y-143054726D01*
X75273775Y-143054726D01*
X75197585Y-143016631D01*
X75159490Y-142978536D01*
X75121394Y-142902345D01*
X75121394Y-142749964D01*
X75159490Y-142673774D01*
X75197585Y-142635679D01*
X75273775Y-142597583D01*
X75464251Y-142597583D01*
X75540442Y-142635679D01*
X75578537Y-142673774D01*
X75616632Y-142749964D01*
X75616632Y-142902345D01*
X75578537Y-142978536D01*
X75540442Y-143016631D01*
X75464251Y-143054726D01*
G04 #@! TO.C,D50*
X94971394Y-141073774D02*
X94171394Y-141073774D01*
X94171394Y-141264250D01*
X94209490Y-141378536D01*
X94285680Y-141454726D01*
X94361870Y-141492822D01*
X94514251Y-141530917D01*
X94628537Y-141530917D01*
X94780918Y-141492822D01*
X94857109Y-141454726D01*
X94933299Y-141378536D01*
X94971394Y-141264250D01*
X94971394Y-141073774D01*
X94171394Y-142254726D02*
X94171394Y-141873774D01*
X94552347Y-141835679D01*
X94514251Y-141873774D01*
X94476156Y-141949964D01*
X94476156Y-142140441D01*
X94514251Y-142216631D01*
X94552347Y-142254726D01*
X94628537Y-142292822D01*
X94819013Y-142292822D01*
X94895204Y-142254726D01*
X94933299Y-142216631D01*
X94971394Y-142140441D01*
X94971394Y-141949964D01*
X94933299Y-141873774D01*
X94895204Y-141835679D01*
X94171394Y-142788060D02*
X94171394Y-142864250D01*
X94209490Y-142940441D01*
X94247585Y-142978536D01*
X94323775Y-143016631D01*
X94476156Y-143054726D01*
X94666632Y-143054726D01*
X94819013Y-143016631D01*
X94895204Y-142978536D01*
X94933299Y-142940441D01*
X94971394Y-142864250D01*
X94971394Y-142788060D01*
X94933299Y-142711869D01*
X94895204Y-142673774D01*
X94819013Y-142635679D01*
X94666632Y-142597583D01*
X94476156Y-142597583D01*
X94323775Y-142635679D01*
X94247585Y-142673774D01*
X94209490Y-142711869D01*
X94171394Y-142788060D01*
G04 #@! TO.C,D51*
X114021394Y-141073774D02*
X113221394Y-141073774D01*
X113221394Y-141264250D01*
X113259490Y-141378536D01*
X113335680Y-141454726D01*
X113411870Y-141492822D01*
X113564251Y-141530917D01*
X113678537Y-141530917D01*
X113830918Y-141492822D01*
X113907109Y-141454726D01*
X113983299Y-141378536D01*
X114021394Y-141264250D01*
X114021394Y-141073774D01*
X113221394Y-142254726D02*
X113221394Y-141873774D01*
X113602347Y-141835679D01*
X113564251Y-141873774D01*
X113526156Y-141949964D01*
X113526156Y-142140441D01*
X113564251Y-142216631D01*
X113602347Y-142254726D01*
X113678537Y-142292822D01*
X113869013Y-142292822D01*
X113945204Y-142254726D01*
X113983299Y-142216631D01*
X114021394Y-142140441D01*
X114021394Y-141949964D01*
X113983299Y-141873774D01*
X113945204Y-141835679D01*
X114021394Y-143054726D02*
X114021394Y-142597583D01*
X114021394Y-142826155D02*
X113221394Y-142826155D01*
X113335680Y-142749964D01*
X113411870Y-142673774D01*
X113449966Y-142597583D01*
G04 #@! TO.C,D52*
X133071394Y-141073774D02*
X132271394Y-141073774D01*
X132271394Y-141264250D01*
X132309490Y-141378536D01*
X132385680Y-141454726D01*
X132461870Y-141492822D01*
X132614251Y-141530917D01*
X132728537Y-141530917D01*
X132880918Y-141492822D01*
X132957109Y-141454726D01*
X133033299Y-141378536D01*
X133071394Y-141264250D01*
X133071394Y-141073774D01*
X132271394Y-142254726D02*
X132271394Y-141873774D01*
X132652347Y-141835679D01*
X132614251Y-141873774D01*
X132576156Y-141949964D01*
X132576156Y-142140441D01*
X132614251Y-142216631D01*
X132652347Y-142254726D01*
X132728537Y-142292822D01*
X132919013Y-142292822D01*
X132995204Y-142254726D01*
X133033299Y-142216631D01*
X133071394Y-142140441D01*
X133071394Y-141949964D01*
X133033299Y-141873774D01*
X132995204Y-141835679D01*
X132347585Y-142597583D02*
X132309490Y-142635679D01*
X132271394Y-142711869D01*
X132271394Y-142902345D01*
X132309490Y-142978536D01*
X132347585Y-143016631D01*
X132423775Y-143054726D01*
X132499966Y-143054726D01*
X132614251Y-143016631D01*
X133071394Y-142559488D01*
X133071394Y-143054726D01*
G04 #@! TO.C,D53*
X152121394Y-141073774D02*
X151321394Y-141073774D01*
X151321394Y-141264250D01*
X151359490Y-141378536D01*
X151435680Y-141454726D01*
X151511870Y-141492822D01*
X151664251Y-141530917D01*
X151778537Y-141530917D01*
X151930918Y-141492822D01*
X152007109Y-141454726D01*
X152083299Y-141378536D01*
X152121394Y-141264250D01*
X152121394Y-141073774D01*
X151321394Y-142254726D02*
X151321394Y-141873774D01*
X151702347Y-141835679D01*
X151664251Y-141873774D01*
X151626156Y-141949964D01*
X151626156Y-142140441D01*
X151664251Y-142216631D01*
X151702347Y-142254726D01*
X151778537Y-142292822D01*
X151969013Y-142292822D01*
X152045204Y-142254726D01*
X152083299Y-142216631D01*
X152121394Y-142140441D01*
X152121394Y-141949964D01*
X152083299Y-141873774D01*
X152045204Y-141835679D01*
X151321394Y-142559488D02*
X151321394Y-143054726D01*
X151626156Y-142788060D01*
X151626156Y-142902345D01*
X151664251Y-142978536D01*
X151702347Y-143016631D01*
X151778537Y-143054726D01*
X151969013Y-143054726D01*
X152045204Y-143016631D01*
X152083299Y-142978536D01*
X152121394Y-142902345D01*
X152121394Y-142673774D01*
X152083299Y-142597583D01*
X152045204Y-142559488D01*
G04 #@! TO.C,D54*
X171171394Y-141073774D02*
X170371394Y-141073774D01*
X170371394Y-141264250D01*
X170409490Y-141378536D01*
X170485680Y-141454726D01*
X170561870Y-141492822D01*
X170714251Y-141530917D01*
X170828537Y-141530917D01*
X170980918Y-141492822D01*
X171057109Y-141454726D01*
X171133299Y-141378536D01*
X171171394Y-141264250D01*
X171171394Y-141073774D01*
X170371394Y-142254726D02*
X170371394Y-141873774D01*
X170752347Y-141835679D01*
X170714251Y-141873774D01*
X170676156Y-141949964D01*
X170676156Y-142140441D01*
X170714251Y-142216631D01*
X170752347Y-142254726D01*
X170828537Y-142292822D01*
X171019013Y-142292822D01*
X171095204Y-142254726D01*
X171133299Y-142216631D01*
X171171394Y-142140441D01*
X171171394Y-141949964D01*
X171133299Y-141873774D01*
X171095204Y-141835679D01*
X170638061Y-142978536D02*
X171171394Y-142978536D01*
X170333299Y-142788060D02*
X170904728Y-142597583D01*
X170904728Y-143092822D01*
G04 #@! TO.C,D55*
X190221394Y-141073774D02*
X189421394Y-141073774D01*
X189421394Y-141264250D01*
X189459490Y-141378536D01*
X189535680Y-141454726D01*
X189611870Y-141492822D01*
X189764251Y-141530917D01*
X189878537Y-141530917D01*
X190030918Y-141492822D01*
X190107109Y-141454726D01*
X190183299Y-141378536D01*
X190221394Y-141264250D01*
X190221394Y-141073774D01*
X189421394Y-142254726D02*
X189421394Y-141873774D01*
X189802347Y-141835679D01*
X189764251Y-141873774D01*
X189726156Y-141949964D01*
X189726156Y-142140441D01*
X189764251Y-142216631D01*
X189802347Y-142254726D01*
X189878537Y-142292822D01*
X190069013Y-142292822D01*
X190145204Y-142254726D01*
X190183299Y-142216631D01*
X190221394Y-142140441D01*
X190221394Y-141949964D01*
X190183299Y-141873774D01*
X190145204Y-141835679D01*
X189421394Y-143016631D02*
X189421394Y-142635679D01*
X189802347Y-142597583D01*
X189764251Y-142635679D01*
X189726156Y-142711869D01*
X189726156Y-142902345D01*
X189764251Y-142978536D01*
X189802347Y-143016631D01*
X189878537Y-143054726D01*
X190069013Y-143054726D01*
X190145204Y-143016631D01*
X190183299Y-142978536D01*
X190221394Y-142902345D01*
X190221394Y-142711869D01*
X190183299Y-142635679D01*
X190145204Y-142597583D01*
G04 #@! TO.C,D56*
X209271394Y-141073774D02*
X208471394Y-141073774D01*
X208471394Y-141264250D01*
X208509490Y-141378536D01*
X208585680Y-141454726D01*
X208661870Y-141492822D01*
X208814251Y-141530917D01*
X208928537Y-141530917D01*
X209080918Y-141492822D01*
X209157109Y-141454726D01*
X209233299Y-141378536D01*
X209271394Y-141264250D01*
X209271394Y-141073774D01*
X208471394Y-142254726D02*
X208471394Y-141873774D01*
X208852347Y-141835679D01*
X208814251Y-141873774D01*
X208776156Y-141949964D01*
X208776156Y-142140441D01*
X208814251Y-142216631D01*
X208852347Y-142254726D01*
X208928537Y-142292822D01*
X209119013Y-142292822D01*
X209195204Y-142254726D01*
X209233299Y-142216631D01*
X209271394Y-142140441D01*
X209271394Y-141949964D01*
X209233299Y-141873774D01*
X209195204Y-141835679D01*
X208471394Y-142978536D02*
X208471394Y-142826155D01*
X208509490Y-142749964D01*
X208547585Y-142711869D01*
X208661870Y-142635679D01*
X208814251Y-142597583D01*
X209119013Y-142597583D01*
X209195204Y-142635679D01*
X209233299Y-142673774D01*
X209271394Y-142749964D01*
X209271394Y-142902345D01*
X209233299Y-142978536D01*
X209195204Y-143016631D01*
X209119013Y-143054726D01*
X208928537Y-143054726D01*
X208852347Y-143016631D01*
X208814251Y-142978536D01*
X208776156Y-142902345D01*
X208776156Y-142749964D01*
X208814251Y-142673774D01*
X208852347Y-142635679D01*
X208928537Y-142597583D01*
G04 #@! TO.C,D57*
X228321394Y-141073774D02*
X227521394Y-141073774D01*
X227521394Y-141264250D01*
X227559490Y-141378536D01*
X227635680Y-141454726D01*
X227711870Y-141492822D01*
X227864251Y-141530917D01*
X227978537Y-141530917D01*
X228130918Y-141492822D01*
X228207109Y-141454726D01*
X228283299Y-141378536D01*
X228321394Y-141264250D01*
X228321394Y-141073774D01*
X227521394Y-142254726D02*
X227521394Y-141873774D01*
X227902347Y-141835679D01*
X227864251Y-141873774D01*
X227826156Y-141949964D01*
X227826156Y-142140441D01*
X227864251Y-142216631D01*
X227902347Y-142254726D01*
X227978537Y-142292822D01*
X228169013Y-142292822D01*
X228245204Y-142254726D01*
X228283299Y-142216631D01*
X228321394Y-142140441D01*
X228321394Y-141949964D01*
X228283299Y-141873774D01*
X228245204Y-141835679D01*
X227521394Y-142559488D02*
X227521394Y-143092822D01*
X228321394Y-142749964D01*
G04 #@! TO.C,D58*
X247371394Y-141073774D02*
X246571394Y-141073774D01*
X246571394Y-141264250D01*
X246609490Y-141378536D01*
X246685680Y-141454726D01*
X246761870Y-141492822D01*
X246914251Y-141530917D01*
X247028537Y-141530917D01*
X247180918Y-141492822D01*
X247257109Y-141454726D01*
X247333299Y-141378536D01*
X247371394Y-141264250D01*
X247371394Y-141073774D01*
X246571394Y-142254726D02*
X246571394Y-141873774D01*
X246952347Y-141835679D01*
X246914251Y-141873774D01*
X246876156Y-141949964D01*
X246876156Y-142140441D01*
X246914251Y-142216631D01*
X246952347Y-142254726D01*
X247028537Y-142292822D01*
X247219013Y-142292822D01*
X247295204Y-142254726D01*
X247333299Y-142216631D01*
X247371394Y-142140441D01*
X247371394Y-141949964D01*
X247333299Y-141873774D01*
X247295204Y-141835679D01*
X246914251Y-142749964D02*
X246876156Y-142673774D01*
X246838061Y-142635679D01*
X246761870Y-142597583D01*
X246723775Y-142597583D01*
X246647585Y-142635679D01*
X246609490Y-142673774D01*
X246571394Y-142749964D01*
X246571394Y-142902345D01*
X246609490Y-142978536D01*
X246647585Y-143016631D01*
X246723775Y-143054726D01*
X246761870Y-143054726D01*
X246838061Y-143016631D01*
X246876156Y-142978536D01*
X246914251Y-142902345D01*
X246914251Y-142749964D01*
X246952347Y-142673774D01*
X246990442Y-142635679D01*
X247066632Y-142597583D01*
X247219013Y-142597583D01*
X247295204Y-142635679D01*
X247333299Y-142673774D01*
X247371394Y-142749964D01*
X247371394Y-142902345D01*
X247333299Y-142978536D01*
X247295204Y-143016631D01*
X247219013Y-143054726D01*
X247066632Y-143054726D01*
X246990442Y-143016631D01*
X246952347Y-142978536D01*
X246914251Y-142902345D01*
G04 #@! TO.C,D59*
X290233894Y-141073774D02*
X289433894Y-141073774D01*
X289433894Y-141264250D01*
X289471990Y-141378536D01*
X289548180Y-141454726D01*
X289624370Y-141492822D01*
X289776751Y-141530917D01*
X289891037Y-141530917D01*
X290043418Y-141492822D01*
X290119609Y-141454726D01*
X290195799Y-141378536D01*
X290233894Y-141264250D01*
X290233894Y-141073774D01*
X289433894Y-142254726D02*
X289433894Y-141873774D01*
X289814847Y-141835679D01*
X289776751Y-141873774D01*
X289738656Y-141949964D01*
X289738656Y-142140441D01*
X289776751Y-142216631D01*
X289814847Y-142254726D01*
X289891037Y-142292822D01*
X290081513Y-142292822D01*
X290157704Y-142254726D01*
X290195799Y-142216631D01*
X290233894Y-142140441D01*
X290233894Y-141949964D01*
X290195799Y-141873774D01*
X290157704Y-141835679D01*
X290233894Y-142673774D02*
X290233894Y-142826155D01*
X290195799Y-142902345D01*
X290157704Y-142940441D01*
X290043418Y-143016631D01*
X289891037Y-143054726D01*
X289586275Y-143054726D01*
X289510085Y-143016631D01*
X289471990Y-142978536D01*
X289433894Y-142902345D01*
X289433894Y-142749964D01*
X289471990Y-142673774D01*
X289510085Y-142635679D01*
X289586275Y-142597583D01*
X289776751Y-142597583D01*
X289852942Y-142635679D01*
X289891037Y-142673774D01*
X289929132Y-142749964D01*
X289929132Y-142902345D01*
X289891037Y-142978536D01*
X289852942Y-143016631D01*
X289776751Y-143054726D01*
G04 #@! TO.C,D60*
X309283894Y-141073774D02*
X308483894Y-141073774D01*
X308483894Y-141264250D01*
X308521990Y-141378536D01*
X308598180Y-141454726D01*
X308674370Y-141492822D01*
X308826751Y-141530917D01*
X308941037Y-141530917D01*
X309093418Y-141492822D01*
X309169609Y-141454726D01*
X309245799Y-141378536D01*
X309283894Y-141264250D01*
X309283894Y-141073774D01*
X308483894Y-142216631D02*
X308483894Y-142064250D01*
X308521990Y-141988060D01*
X308560085Y-141949964D01*
X308674370Y-141873774D01*
X308826751Y-141835679D01*
X309131513Y-141835679D01*
X309207704Y-141873774D01*
X309245799Y-141911869D01*
X309283894Y-141988060D01*
X309283894Y-142140441D01*
X309245799Y-142216631D01*
X309207704Y-142254726D01*
X309131513Y-142292822D01*
X308941037Y-142292822D01*
X308864847Y-142254726D01*
X308826751Y-142216631D01*
X308788656Y-142140441D01*
X308788656Y-141988060D01*
X308826751Y-141911869D01*
X308864847Y-141873774D01*
X308941037Y-141835679D01*
X308483894Y-142788060D02*
X308483894Y-142864250D01*
X308521990Y-142940441D01*
X308560085Y-142978536D01*
X308636275Y-143016631D01*
X308788656Y-143054726D01*
X308979132Y-143054726D01*
X309131513Y-143016631D01*
X309207704Y-142978536D01*
X309245799Y-142940441D01*
X309283894Y-142864250D01*
X309283894Y-142788060D01*
X309245799Y-142711869D01*
X309207704Y-142673774D01*
X309131513Y-142635679D01*
X308979132Y-142597583D01*
X308788656Y-142597583D01*
X308636275Y-142635679D01*
X308560085Y-142673774D01*
X308521990Y-142711869D01*
X308483894Y-142788060D01*
G04 #@! TO.C,D61*
X328333894Y-141073774D02*
X327533894Y-141073774D01*
X327533894Y-141264250D01*
X327571990Y-141378536D01*
X327648180Y-141454726D01*
X327724370Y-141492822D01*
X327876751Y-141530917D01*
X327991037Y-141530917D01*
X328143418Y-141492822D01*
X328219609Y-141454726D01*
X328295799Y-141378536D01*
X328333894Y-141264250D01*
X328333894Y-141073774D01*
X327533894Y-142216631D02*
X327533894Y-142064250D01*
X327571990Y-141988060D01*
X327610085Y-141949964D01*
X327724370Y-141873774D01*
X327876751Y-141835679D01*
X328181513Y-141835679D01*
X328257704Y-141873774D01*
X328295799Y-141911869D01*
X328333894Y-141988060D01*
X328333894Y-142140441D01*
X328295799Y-142216631D01*
X328257704Y-142254726D01*
X328181513Y-142292822D01*
X327991037Y-142292822D01*
X327914847Y-142254726D01*
X327876751Y-142216631D01*
X327838656Y-142140441D01*
X327838656Y-141988060D01*
X327876751Y-141911869D01*
X327914847Y-141873774D01*
X327991037Y-141835679D01*
X328333894Y-143054726D02*
X328333894Y-142597583D01*
X328333894Y-142826155D02*
X327533894Y-142826155D01*
X327648180Y-142749964D01*
X327724370Y-142673774D01*
X327762466Y-142597583D01*
G04 #@! TO.C,D62*
X357504393Y-141074006D02*
X356704393Y-141074006D01*
X356704393Y-141264482D01*
X356742489Y-141378768D01*
X356818679Y-141454958D01*
X356894869Y-141493054D01*
X357047250Y-141531149D01*
X357161536Y-141531149D01*
X357313917Y-141493054D01*
X357390108Y-141454958D01*
X357466298Y-141378768D01*
X357504393Y-141264482D01*
X357504393Y-141074006D01*
X356704393Y-142216863D02*
X356704393Y-142064482D01*
X356742489Y-141988292D01*
X356780584Y-141950196D01*
X356894869Y-141874006D01*
X357047250Y-141835911D01*
X357352012Y-141835911D01*
X357428203Y-141874006D01*
X357466298Y-141912101D01*
X357504393Y-141988292D01*
X357504393Y-142140673D01*
X357466298Y-142216863D01*
X357428203Y-142254958D01*
X357352012Y-142293054D01*
X357161536Y-142293054D01*
X357085346Y-142254958D01*
X357047250Y-142216863D01*
X357009155Y-142140673D01*
X357009155Y-141988292D01*
X357047250Y-141912101D01*
X357085346Y-141874006D01*
X357161536Y-141835911D01*
X356780584Y-142597815D02*
X356742489Y-142635911D01*
X356704393Y-142712101D01*
X356704393Y-142902577D01*
X356742489Y-142978768D01*
X356780584Y-143016863D01*
X356856774Y-143054958D01*
X356932965Y-143054958D01*
X357047250Y-143016863D01*
X357504393Y-142559720D01*
X357504393Y-143054958D01*
G04 #@! TO.C,D63*
X102115144Y-160123774D02*
X101315144Y-160123774D01*
X101315144Y-160314250D01*
X101353240Y-160428536D01*
X101429430Y-160504726D01*
X101505620Y-160542822D01*
X101658001Y-160580917D01*
X101772287Y-160580917D01*
X101924668Y-160542822D01*
X102000859Y-160504726D01*
X102077049Y-160428536D01*
X102115144Y-160314250D01*
X102115144Y-160123774D01*
X101315144Y-161266631D02*
X101315144Y-161114250D01*
X101353240Y-161038060D01*
X101391335Y-160999964D01*
X101505620Y-160923774D01*
X101658001Y-160885679D01*
X101962763Y-160885679D01*
X102038954Y-160923774D01*
X102077049Y-160961869D01*
X102115144Y-161038060D01*
X102115144Y-161190441D01*
X102077049Y-161266631D01*
X102038954Y-161304726D01*
X101962763Y-161342822D01*
X101772287Y-161342822D01*
X101696097Y-161304726D01*
X101658001Y-161266631D01*
X101619906Y-161190441D01*
X101619906Y-161038060D01*
X101658001Y-160961869D01*
X101696097Y-160923774D01*
X101772287Y-160885679D01*
X101315144Y-161609488D02*
X101315144Y-162104726D01*
X101619906Y-161838060D01*
X101619906Y-161952345D01*
X101658001Y-162028536D01*
X101696097Y-162066631D01*
X101772287Y-162104726D01*
X101962763Y-162104726D01*
X102038954Y-162066631D01*
X102077049Y-162028536D01*
X102115144Y-161952345D01*
X102115144Y-161723774D01*
X102077049Y-161647583D01*
X102038954Y-161609488D01*
G04 #@! TD*
M02*
